<svg width="295" height="338" viewBox="0 0 295 338" fill="none" xmlns="http://www.w3.org/2000/svg">
<g opacity="0.2" filter="url(#filter0_f_867_5922)">
<path d="M178.437 302.724L28.7084 213.589L76.383 184.758L226.111 273.888L178.437 302.724Z" fill="#010101"/>
</g>
<path d="M224.292 146.856C224.29 146.837 224.289 146.819 224.285 146.8C224.272 146.713 224.243 146.628 224.201 146.549C224.198 146.545 224.198 146.54 224.196 146.536L215.964 132.234C215.963 132.233 215.962 132.232 215.961 132.23C215.927 132.172 215.886 132.118 215.838 132.071C215.806 132.041 215.771 132.014 215.733 131.99C215.714 131.976 215.698 131.959 215.677 131.947L73.3515 49.4889C73.2325 49.4199 73.0975 49.3837 72.9602 49.3838H53.3831C53.2392 49.3837 53.098 49.4236 52.9751 49.4988C52.8522 49.5741 52.7524 49.682 52.6867 49.8105C52.621 49.939 52.5918 50.0832 52.6025 50.2273C52.6132 50.3714 52.6633 50.5097 52.7472 50.627L59.3278 59.8353L53.0449 63.4744C52.9259 63.5434 52.8271 63.6425 52.7584 63.7619C52.6897 63.8814 52.6536 64.0168 52.6536 64.1547V74.9858C52.6536 75.1236 52.6898 75.259 52.7585 75.3784C52.8272 75.4978 52.926 75.5969 53.0449 75.6659C53.1639 75.7348 53.2989 75.7711 53.4362 75.7711C53.5736 75.7712 53.7086 75.7349 53.8276 75.6661L60.315 71.9074V82.9599C60.315 83.063 60.3352 83.1652 60.3745 83.2605C60.4139 83.3557 60.4715 83.4423 60.5442 83.5153C60.6169 83.5882 60.7032 83.6461 60.7981 83.6855C60.8931 83.725 60.9949 83.7453 61.0977 83.7452H64.4591V200.44C64.4591 200.578 64.4952 200.713 64.5639 200.833C64.6326 200.952 64.7314 201.051 64.8504 201.12L201.726 280.417C201.845 280.486 201.98 280.522 202.117 280.522C202.254 280.522 202.389 280.486 202.508 280.417L210.732 275.659C210.733 275.658 210.734 275.658 210.735 275.658L223.909 268.023C224.028 267.954 224.127 267.855 224.196 267.736C224.265 267.616 224.301 267.481 224.301 267.343V146.928C224.301 146.904 224.294 146.88 224.292 146.856Z" fill="#231F20"/>
<path d="M62.4035 69.7907L53.4364 74.9858V64.1548L62.401 58.9629L62.4035 69.7907Z" fill="#151517"/>
<path d="M223.518 267.344L210.343 274.977L206.346 152.712L223.518 146.929V267.344Z" fill="#0B0D1B"/>
<path d="M223.518 146.928L210.344 154.562L191.59 140.259L215.286 132.627L223.518 146.928Z" fill="#1A1E42"/>
<path d="M61.0978 60.9638H65.2418L202.117 140.259L215.286 132.627L72.9602 50.1689H53.3833L61.0978 60.9638Z" fill="#DED9D9"/>
<path d="M61.0976 83.7452C60.9948 83.7452 60.893 83.7249 60.798 83.6854C60.7031 83.646 60.6168 83.5881 60.5441 83.5152C60.4714 83.4423 60.4138 83.3557 60.3745 83.2604C60.3351 83.1651 60.3149 83.0629 60.3149 82.9598L61.0299 61.0276C60.3607 60.6263 60.6654 60.1787 61.0976 60.1787H65.2417C65.4422 60.1787 65.6351 60.256 65.7806 60.3946C65.926 60.5331 66.0128 60.7224 66.0232 60.9234L67.1486 82.9191C67.1541 83.0256 67.138 83.132 67.1012 83.2319C67.0644 83.3319 67.0077 83.4233 66.9346 83.5005C66.8615 83.5778 66.7735 83.6393 66.6759 83.6814C66.5784 83.7234 66.4733 83.7451 66.3671 83.7452H61.0976Z" fill="#020202"/>
<path d="M66.3671 82.9599L60.3149 82.9597L61.0133 60.9639H65.2417L66.3671 82.9599Z" fill="#1A2328"/>
<path d="M202.117 280.522C201.98 280.522 201.845 280.485 201.726 280.417L64.8504 201.12C64.7314 201.051 64.6326 200.952 64.5639 200.833C64.4952 200.713 64.4591 200.578 64.4591 200.44V60.9641C64.4591 60.8262 64.4953 60.6908 64.564 60.5714C64.6327 60.4521 64.7315 60.3529 64.8505 60.284C64.9694 60.2151 65.1044 60.1787 65.2417 60.1787C65.3791 60.1787 65.5141 60.2149 65.6331 60.2838L202.509 139.579C202.628 139.648 202.727 139.747 202.795 139.867L211.022 154.17C211.09 154.289 211.126 154.425 211.126 154.563V274.977C211.126 275.115 211.09 275.251 211.021 275.37C210.952 275.49 210.853 275.589 210.734 275.658L202.508 280.417C202.389 280.485 202.255 280.522 202.117 280.522Z" fill="#020202"/>
<path d="M64.459 60.9639V200.44L202.117 279.736L210.343 274.977V154.562L202.117 140.259L64.459 60.9639Z" fill="#D8D3D1"/>
<path d="M140.253 77.4667C140.234 77.3556 140.206 77.2466 140.167 77.141C140.162 77.1325 140.163 77.123 140.158 77.1147L122.103 45.7321C122.098 45.7228 122.09 45.7163 122.084 45.7074C122.076 45.6943 122.065 45.6842 122.056 45.6716C121.994 45.5818 121.914 45.5061 121.821 45.4493C121.819 45.4481 121.818 45.4457 121.816 45.4445L96.2887 30.6812C96.1699 30.6124 96.035 30.5762 95.8978 30.5762C95.7606 30.5762 95.6257 30.6124 95.5068 30.6812L86.8982 35.6629L86.8969 35.6634L68.8722 46.1118C68.7532 46.1807 68.6544 46.2799 68.5857 46.3993C68.517 46.5187 68.4808 46.6542 68.4809 46.7921L68.4686 76.3493C68.4686 76.4871 68.5047 76.6225 68.5733 76.742L86.6282 108.126C86.6971 108.246 86.7962 108.345 86.9156 108.414L112.403 123.138C112.522 123.207 112.657 123.243 112.794 123.243C112.931 123.243 113.066 123.207 113.185 123.138L131.219 112.701L131.221 112.7L139.83 107.714C139.949 107.645 140.048 107.546 140.117 107.427C140.185 107.308 140.222 107.172 140.222 107.035L140.263 77.5081C140.263 77.4936 140.254 77.4812 140.253 77.4667Z" fill="#231F20"/>
<path d="M139.48 77.5078L139.439 107.034L130.829 112.02L123.405 82.0331L139.48 77.5078Z" fill="#F9C166"/>
<path d="M121.425 46.1256L95.8978 31.3623L87.2883 36.3446L110.096 56.8746L121.425 46.1256Z" fill="#F9C166"/>
<path d="M121.425 46.125L139.48 77.5075L130.857 82.5045L116.972 70.8399L112.8 51.1188L121.425 46.125Z" fill="#FDB45C"/>
<path d="M69.2634 46.7924L69.2512 76.3503L87.3062 107.734L112.794 122.458L130.829 112.021L130.857 82.5054L112.801 51.1196L87.2883 36.3447L69.2634 46.7924Z" fill="#FBD9A2"/>
<path d="M74.2757 75.4591L90.5835 103.802L113.67 117.173L127.909 108.925L127.934 82.1693L111.621 53.8185L88.5285 40.4424L74.2717 48.6986L74.2757 75.4591Z" fill="#F9C166"/>
<path d="M72.1508 49.9299L74.2717 48.6982L74.2758 75.4588L90.5835 103.801L113.67 117.172L111.549 118.404L88.5286 104.997L72.2235 76.6544L72.1508 49.9299Z" fill="#FDB45C"/>
<path d="M209.244 146.321C209.238 146.243 209.221 146.167 209.192 146.095C209.183 146.061 209.172 146.027 209.158 145.994C209.153 145.986 209.154 145.976 209.149 145.968L191.091 114.587C191.086 114.579 191.078 114.575 191.074 114.567C191.053 114.541 191.031 114.516 191.008 114.492C190.959 114.429 190.901 114.375 190.836 114.33C190.823 114.322 190.817 114.307 190.803 114.299L165.275 99.5357C165.157 99.4669 165.022 99.4307 164.884 99.4307C164.747 99.4307 164.612 99.4669 164.493 99.5357L155.885 104.523L137.856 114.964C137.737 115.033 137.638 115.132 137.57 115.252C137.501 115.371 137.465 115.506 137.465 115.644L137.457 145.202C137.457 145.34 137.493 145.476 137.561 145.595L155.618 176.986C155.687 177.106 155.786 177.205 155.906 177.274L181.389 191.988C181.507 192.057 181.642 192.093 181.779 192.093C181.916 192.093 182.051 192.056 182.17 191.988L200.211 181.556L200.214 181.555L208.817 176.566C208.936 176.497 209.035 176.398 209.103 176.279C209.172 176.16 209.208 176.024 209.209 175.887L209.254 146.362C209.254 146.347 209.245 146.335 209.244 146.321Z" fill="#231F20"/>
<path d="M208.471 146.36L208.426 175.886L199.823 180.874L192.396 150.886L208.471 146.36Z" fill="#F9C166"/>
<path d="M190.413 114.979L164.885 100.216L156.276 105.203L179.086 125.733L190.413 114.979Z" fill="#F9C166"/>
<path d="M190.413 114.979L208.471 146.36L199.847 151.357L185.96 139.693L181.792 119.976L190.413 114.979Z" fill="#FDB45C"/>
<path d="M138.248 115.644L138.239 145.202L156.296 176.593L181.779 191.307L199.823 180.874L199.847 151.357L181.792 119.976L156.276 105.203L138.248 115.644Z" fill="#FBD9A2"/>
<path d="M143.262 144.312L159.577 172.658L182.657 186.03L196.898 177.777L196.916 151.022L180.607 122.676L157.515 109.295L143.258 117.554L143.262 144.312Z" fill="#F9C166"/>
<path d="M141.14 116.613L143.258 115.388L143.262 142.145L159.577 170.491L182.657 183.864L180.539 185.089L157.515 171.68L141.207 143.341L141.14 116.613Z" fill="#FBC788"/>
<path d="M203.879 47.0138C203.861 46.9037 203.832 46.7956 203.793 46.6911C203.789 46.6828 203.789 46.6732 203.784 46.6651L185.724 15.2809C185.719 15.2717 185.711 15.2653 185.706 15.2564C185.697 15.2433 185.687 15.2332 185.678 15.2205C185.615 15.1293 185.534 15.0525 185.439 14.9953C185.438 14.9948 185.438 14.9938 185.437 14.9933L185.435 14.992L185.429 14.9888L159.91 0.230073C159.791 0.161234 159.656 0.125 159.519 0.125C159.382 0.125 159.247 0.161234 159.128 0.230073L150.518 5.21533L132.494 15.6614C132.375 15.7303 132.277 15.8295 132.208 15.9489C132.139 16.0683 132.103 16.2038 132.103 16.3417L132.092 45.9027C132.092 46.0405 132.128 46.176 132.197 46.2954L150.252 77.6795C150.321 77.7993 150.42 77.8987 150.539 77.9679L176.028 92.682C176.147 92.7505 176.282 92.7865 176.419 92.7863C176.556 92.7862 176.691 92.75 176.81 92.6813L194.845 82.2478L194.847 82.2467L203.45 77.2645C203.569 77.1956 203.668 77.0967 203.736 76.9776C203.805 76.8585 203.841 76.7234 203.842 76.5858L203.889 47.0593C203.889 47.0433 203.879 47.0297 203.879 47.0138Z" fill="#231F20"/>
<path d="M203.106 47.0576L203.059 76.5844L194.456 81.5667L187.03 51.5846L203.106 47.0576Z" fill="#F9C166"/>
<path d="M185.047 15.6735L159.519 0.910156L150.91 5.89556L173.719 26.4243L185.047 15.6735Z" fill="#F9C166"/>
<path d="M185.047 15.6729L203.106 47.0568L194.477 52.0522L180.589 40.3876L176.422 20.6698L185.047 15.6729Z" fill="#FDB45C"/>
<path d="M132.886 16.3417L132.875 45.9027L150.929 77.2868L176.419 92.0011L194.456 81.5665L194.477 52.0528L176.422 20.6704L150.91 5.89551L132.886 16.3417Z" fill="#FBD9A2"/>
<path d="M137.898 45.0086L154.207 73.3512L177.294 86.7274L191.53 78.4744L191.559 51.714L175.239 23.3697L152.149 9.99023L137.892 18.2483L137.898 45.0086Z" fill="#F9C166"/>
<path d="M135.775 19.4764L137.892 18.248L137.898 45.0084L154.207 73.3511L177.294 86.7272L175.175 87.9508L152.149 74.5452L135.843 46.1992L135.775 19.4764Z" fill="#FDB45C"/>
<path d="M201.277 160.195C201.275 160.172 201.272 160.15 201.268 160.128C201.254 160.038 201.225 159.951 201.181 159.871L201.181 159.871L192.956 145.568C192.956 145.566 192.955 145.566 192.954 145.565C192.92 145.506 192.878 145.452 192.83 145.404C192.777 145.362 192.723 145.321 192.67 145.28L56.1866 66.2153V64.7174L61.0134 60.9638C61.295 60.8004 53.1133 49.418 52.9918 49.4886L36.3822 59.1125C36.2632 59.1814 36.1644 59.2806 36.0957 59.4C36.027 59.5194 35.9908 59.6549 35.9908 59.7928V210.617C35.9908 210.755 36.027 210.89 36.0957 211.009C36.1644 211.129 36.2632 211.228 36.3822 211.297L178.714 293.752C178.833 293.821 178.968 293.857 179.106 293.857C179.243 293.857 179.378 293.821 179.497 293.752L187.723 288.986L200.895 281.354C201.014 281.285 201.112 281.186 201.181 281.066C201.25 280.947 201.286 280.811 201.286 280.673V160.263C201.286 160.24 201.279 160.218 201.277 160.195Z" fill="#231F20"/>
<path d="M179.106 153.592L128.122 117.966L36.7734 71.1338V210.618L179.106 293.072L187.332 288.306V167.89L179.106 153.592Z" fill="#1A1E42"/>
<g clip-path="url(#clip0_867_5922)">
<path d="M96.667 86.7389L98.2262 62.1497L107.078 84.7632L96.667 86.7389Z" fill="#1A1E42"/>
<path d="M96.5106 89.2029L95.6326 103.053L106.923 87.2077L96.5106 89.2029Z" fill="#1A1E42"/>
<path d="M96.6669 86.7385L98.2262 62.1493L86.918 78.2682L96.6669 86.7385Z" fill="#272C59"/>
<path d="M96.5106 89.2026L95.6326 103.053L86.7631 80.7129L96.5106 89.2026Z" fill="#272C59"/>
</g>
<path d="M186.941 167.995C186.804 167.995 186.668 167.959 186.549 167.89C186.43 167.821 186.331 167.721 186.263 167.602L178.819 154.664C178.715 154.484 178.687 154.269 178.741 154.068C178.795 153.867 178.926 153.695 179.105 153.591L192.278 145.96C192.458 145.856 192.672 145.828 192.872 145.882C193.073 145.936 193.244 146.068 193.348 146.248L200.79 159.191C200.893 159.371 200.921 159.585 200.868 159.787C200.814 159.988 200.683 160.159 200.503 160.264L187.332 167.889C187.213 167.958 187.078 167.995 186.941 167.995Z" fill="#020202"/>
<path d="M187.332 289.091C187.229 289.092 187.127 289.071 187.032 289.032C186.937 288.992 186.851 288.935 186.778 288.862C186.706 288.789 186.648 288.702 186.609 288.607C186.569 288.511 186.549 288.409 186.549 288.306V167.89C186.549 167.752 186.585 167.617 186.654 167.497C186.723 167.378 186.822 167.279 186.941 167.21L200.112 159.584C200.231 159.515 200.366 159.479 200.503 159.479C200.641 159.479 200.776 159.515 200.895 159.584C201.014 159.653 201.112 159.752 201.181 159.871C201.25 159.991 201.286 160.126 201.286 160.264V280.674C201.286 280.812 201.25 280.947 201.181 281.067C201.112 281.186 201.014 281.285 200.895 281.354L187.723 288.986C187.604 289.055 187.469 289.091 187.332 289.091Z" fill="#020202"/>
<path d="M200.503 280.673L187.332 288.306V167.889L200.503 160.264V280.673Z" fill="#0B0D1B"/>
<path d="M179.106 154.376C178.968 154.376 178.833 154.34 178.714 154.271L36.3822 71.8134C36.2632 71.7444 36.1644 71.6453 36.0957 71.5258C36.027 71.4064 35.9908 71.271 35.9908 71.1331V59.7928C35.9908 59.6549 36.027 59.5194 36.0957 59.4C36.1644 59.2806 36.2632 59.1814 36.3822 59.1125L52.9918 49.4886C53.1133 49.418 61.295 60.8004 61.0133 60.9638L56.1866 64.7174V66.2153L192.67 145.28C192.789 145.349 192.888 145.448 192.956 145.567C193.025 145.687 193.061 145.822 193.061 145.96C193.061 146.098 193.025 146.234 192.956 146.353C192.888 146.472 192.789 146.572 192.67 146.641L179.497 154.271C179.378 154.34 179.243 154.376 179.106 154.376Z" fill="#020202"/>
<path d="M53.3833 50.1689L36.7734 59.7928V71.1331L179.106 153.591L192.279 145.961L55.4038 66.6683V64.2641L60.9706 60.1786L60.1691 55.2298L53.3833 50.1689Z" fill="#DED9D9"/>
<path d="M200.503 160.264L187.332 167.89L179.106 153.592L192.278 145.961L200.503 160.264Z" fill="#1A1E42"/>
<path d="M230.755 183.35L223.911 179.385C223.792 179.317 223.657 179.28 223.52 179.28C223.382 179.28 223.247 179.317 223.128 179.386C223.009 179.454 222.91 179.554 222.842 179.673C222.773 179.792 222.737 179.928 222.737 180.066L222.735 187.544L187.332 208.055L161.421 193.044C161.302 192.975 161.167 192.939 161.03 192.939C160.892 192.939 160.757 192.975 160.638 193.044L153.787 197.016C153.787 197.017 153.786 197.018 153.785 197.018L148.714 199.95C148.595 200.019 148.496 200.118 148.427 200.237C148.359 200.357 148.322 200.492 148.322 200.63V222.161C148.322 222.299 148.358 222.435 148.427 222.554L153.501 231.375C153.57 231.494 153.669 231.593 153.788 231.662L180.093 246.901C180.114 246.913 180.137 246.918 180.158 246.928C180.181 246.939 180.202 246.948 180.225 246.956C180.308 246.987 180.396 247.004 180.484 247.006H194.179C194.265 247.004 194.351 246.988 194.433 246.958C194.456 246.95 194.478 246.94 194.5 246.93C194.523 246.92 194.548 246.914 194.57 246.901L230.755 225.933C230.874 225.864 230.972 225.765 231.041 225.646C231.11 225.526 231.146 225.391 231.146 225.253V184.03C231.146 183.892 231.11 183.757 231.041 183.637C230.972 183.518 230.874 183.419 230.755 183.35Z" fill="#231F20"/>
<path d="M230.364 184.031L223.52 180.065L223.518 187.997L187.332 208.962L161.029 193.725L154.179 197.697L155.901 201.632L179.726 215.126L194.634 214.909L227.719 195.454L230.364 191.963V184.031Z" fill="#DED9D9"/>
<path d="M180.484 247.007C180.285 247.007 180.093 246.93 179.948 246.793C179.803 246.656 179.715 246.468 179.703 246.269L178.438 225.193C178.436 225.15 178.436 225.107 178.441 225.064L179.706 212.844C179.726 212.651 179.816 212.472 179.96 212.342C180.104 212.212 180.291 212.14 180.484 212.14H194.179C194.356 212.14 194.529 212.2 194.668 212.312C194.806 212.424 194.903 212.579 194.942 212.753L197.123 222.53C197.141 222.61 197.146 222.692 197.139 222.774L194.958 246.294C194.94 246.489 194.85 246.67 194.706 246.802C194.562 246.933 194.374 247.007 194.179 247.007H180.484Z" fill="#231F20"/>
<path d="M194.178 212.926H180.485L179.22 225.146L180.485 246.221H194.178L196.359 222.702L194.178 212.926Z" fill="#1A1E42"/>
<path d="M180.484 247.006C180.347 247.006 180.212 246.97 180.093 246.901L153.788 231.662C153.669 231.593 153.57 231.494 153.501 231.375L148.427 222.554C148.358 222.434 148.322 222.299 148.322 222.161V200.63C148.322 200.492 148.359 200.357 148.427 200.237C148.496 200.118 148.595 200.019 148.714 199.95L153.789 197.016C153.907 196.947 154.042 196.911 154.179 196.911C154.317 196.911 154.451 196.947 154.57 197.016L180.876 212.244C180.995 212.313 181.094 212.412 181.162 212.532C181.231 212.651 181.267 212.787 181.267 212.925V246.221C181.267 246.324 181.247 246.426 181.208 246.521C181.168 246.617 181.111 246.703 181.038 246.776C180.965 246.849 180.879 246.907 180.784 246.946C180.689 246.986 180.587 247.006 180.484 247.006Z" fill="#231F20"/>
<path d="M180.485 212.926L154.179 197.697L149.105 200.631V222.162L154.179 230.983L180.485 246.221V212.926Z" fill="#D8D3D1"/>
<g clip-path="url(#clip1_867_5922)">
<path d="M165.916 221.765C165.895 221.614 165.868 221.462 165.84 221.309C165.821 221.204 165.803 221.099 165.781 220.994C165.76 220.897 165.735 220.8 165.712 220.702C165.678 220.565 165.644 220.428 165.606 220.291C165.583 220.213 165.56 220.134 165.536 220.056C165.489 219.901 165.439 219.748 165.386 219.594C165.365 219.532 165.344 219.47 165.322 219.407C165.245 219.196 165.164 218.985 165.076 218.776C165.066 218.752 165.055 218.729 165.045 218.706C164.965 218.518 164.879 218.332 164.79 218.147C164.763 218.09 164.735 218.034 164.707 217.977C164.62 217.802 164.53 217.629 164.436 217.458C164.418 217.425 164.401 217.392 164.383 217.36C164.272 217.161 164.155 216.965 164.034 216.772C163.999 216.716 163.962 216.661 163.926 216.606C163.837 216.467 163.745 216.331 163.651 216.197C163.601 216.124 163.549 216.052 163.497 215.98C163.416 215.868 163.332 215.758 163.247 215.649C163.176 215.558 163.105 215.467 163.032 215.379C162.963 215.294 162.891 215.212 162.82 215.13C162.7 214.991 162.577 214.855 162.452 214.724C162.39 214.659 162.329 214.595 162.267 214.533C162.019 214.283 161.759 214.046 161.488 213.824C161.44 213.785 161.392 213.75 161.344 213.712C161.069 213.492 160.78 213.291 160.48 213.108C160.255 212.974 160.022 212.854 159.783 212.749C159.71 212.716 159.638 212.687 159.565 212.659C159.433 212.606 159.303 212.559 159.174 212.519C159.091 212.493 159.009 212.468 158.928 212.448C158.851 212.428 158.776 212.412 158.7 212.397C158.601 212.378 158.503 212.362 158.407 212.351C158.351 212.344 158.295 212.337 158.241 212.333C158.122 212.325 158.004 212.322 157.885 212.326C157.858 212.327 157.83 212.325 157.803 212.327C157.666 212.335 157.529 212.353 157.394 212.38C157.361 212.387 157.329 212.396 157.296 212.403C157.193 212.428 157.091 212.458 156.991 212.494C156.96 212.506 156.928 212.516 156.897 212.529C156.772 212.579 156.651 212.638 156.534 212.707L158.108 211.76C158.119 211.754 158.129 211.748 158.139 211.742C158.229 211.69 158.322 211.643 158.417 211.602C158.435 211.594 158.454 211.589 158.472 211.582C158.503 211.569 158.534 211.559 158.566 211.547C158.614 211.53 158.66 211.51 158.71 211.495C158.762 211.479 158.817 211.469 158.871 211.456C158.903 211.449 158.935 211.44 158.968 211.433C158.986 211.43 159.003 211.424 159.021 211.421C159.132 211.401 159.244 211.387 159.356 211.38C159.363 211.379 159.371 211.38 159.378 211.38C159.405 211.378 159.432 211.38 159.459 211.379C159.546 211.376 159.633 211.373 159.723 211.377C159.753 211.378 159.785 211.384 159.815 211.386C159.87 211.39 159.925 211.397 159.981 211.404C160.033 211.41 160.084 211.411 160.136 211.42C160.182 211.427 160.23 211.442 160.276 211.451C160.351 211.465 160.426 211.482 160.502 211.501C160.543 211.511 160.583 211.516 160.624 211.528C160.665 211.539 160.708 211.559 160.749 211.572C160.877 211.612 161.008 211.659 161.14 211.712C161.187 211.73 161.231 211.741 161.278 211.761C161.304 211.772 161.331 211.79 161.357 211.802C161.596 211.907 161.829 212.027 162.055 212.161C162.355 212.344 162.643 212.545 162.919 212.765C162.967 212.803 163.015 212.838 163.062 212.877C163.334 213.1 163.594 213.336 163.842 213.586C163.863 213.608 163.886 213.624 163.907 213.646C163.948 213.687 163.985 213.733 164.025 213.775C164.151 213.908 164.274 214.044 164.395 214.184C164.434 214.229 164.475 214.269 164.513 214.314C164.545 214.352 164.575 214.393 164.606 214.431C164.679 214.52 164.751 214.611 164.822 214.703C164.869 214.763 164.918 214.82 164.963 214.881C165 214.931 165.035 214.983 165.072 215.033C165.124 215.105 165.175 215.177 165.226 215.25C165.261 215.3 165.298 215.348 165.332 215.399C165.39 215.484 165.444 215.572 165.5 215.658C165.536 215.714 165.573 215.769 165.608 215.826C165.623 215.849 165.639 215.872 165.654 215.895C165.752 216.055 165.848 216.217 165.94 216.381C165.946 216.392 165.952 216.403 165.958 216.414C165.976 216.445 165.992 216.478 166.009 216.509C166.074 216.627 166.139 216.745 166.201 216.864C166.229 216.919 166.254 216.975 166.282 217.03C166.31 217.087 166.338 217.144 166.365 217.201C166.39 217.252 166.416 217.301 166.44 217.352C166.502 217.486 166.56 217.62 166.618 217.755C166.628 217.78 166.64 217.805 166.651 217.83C166.654 217.837 166.657 217.844 166.66 217.851C166.731 218.021 166.799 218.193 166.863 218.365C166.875 218.397 166.885 218.428 166.896 218.46C166.919 218.522 166.94 218.585 166.961 218.648C166.991 218.735 167.023 218.821 167.051 218.907C167.073 218.974 167.09 219.041 167.111 219.109C167.134 219.187 167.158 219.266 167.18 219.344C167.194 219.393 167.21 219.443 167.224 219.492C167.247 219.58 167.265 219.668 167.286 219.756C167.31 219.853 167.334 219.95 167.355 220.047C167.363 220.081 167.373 220.116 167.38 220.15C167.394 220.221 167.402 220.292 167.415 220.363C167.443 220.515 167.469 220.667 167.49 220.818C167.496 220.861 167.506 220.904 167.512 220.946C167.517 220.985 167.515 221.023 167.519 221.063C167.559 221.397 167.581 221.733 167.583 222.069C167.578 223.877 166.96 225.15 165.964 225.749L164.39 226.696C165.385 226.097 166.003 224.824 166.008 223.016C166.006 222.679 165.985 222.344 165.944 222.01C165.935 221.928 165.927 221.847 165.916 221.765Z" fill="#667085"/>
<path d="M164.39 226.697C166.552 225.397 166.547 221.211 164.377 217.348C162.208 213.485 158.697 211.408 156.534 212.708C154.372 214.008 154.378 218.194 156.547 222.057C158.717 225.92 162.228 227.997 164.39 226.697Z" fill="#1A1E42"/>
</g>
<path d="M194.179 247.007C194.076 247.007 193.974 246.986 193.879 246.947C193.784 246.907 193.698 246.85 193.625 246.777C193.552 246.704 193.495 246.617 193.455 246.522C193.416 246.427 193.396 246.324 193.396 246.221V212.925C193.396 212.787 193.432 212.652 193.501 212.532C193.569 212.413 193.668 212.314 193.787 212.245L229.972 191.283C230.091 191.214 230.226 191.178 230.363 191.178C230.501 191.178 230.636 191.214 230.755 191.283C230.874 191.352 230.972 191.451 231.041 191.571C231.11 191.69 231.146 191.825 231.146 191.963V225.253C231.146 225.391 231.11 225.527 231.041 225.646C230.972 225.765 230.874 225.865 230.755 225.934L194.57 246.902C194.451 246.97 194.316 247.007 194.179 247.007Z" fill="#231F20"/>
<path d="M194.178 212.925L230.364 191.963V225.253L194.178 246.221V212.925Z" fill="#0B0D1B"/>
<path d="M123.096 313.29V320.513L133.198 326.367H147.462L157.558 320.506V313.29L147.462 307.438H133.198L123.096 313.29Z" fill="#FCE0BF"/>
<g opacity="0.3" filter="url(#filter1_f_867_5922)">
<path d="M73.4966 269.985V275.805L81.3297 280.522H92.39L100.218 275.799V269.985L92.39 265.27H81.3297L73.4966 269.985Z" fill="#010101"/>
</g>
<g opacity="0.3" filter="url(#filter2_f_867_5922)">
<path d="M243.535 258.102V262.318L249.209 265.735H257.221L262.891 262.314V258.102L257.221 254.687H249.209L243.535 258.102Z" fill="#010101"/>
</g>
<path d="M244.903 256.114V259.595L249.772 262.417H256.647L261.512 259.592V256.114L256.647 253.294H249.772L244.903 256.114Z" fill="#FCE0BF"/>
<g opacity="0.3" filter="url(#filter3_f_867_5922)">
<path d="M260.999 297.254V303.762L269.757 309.036H282.123L290.875 303.755V297.254L282.123 291.982H269.757L260.999 297.254Z" fill="#010101"/>
</g>
<path d="M290.674 299.878L290.671 293.081C290.671 292.979 290.644 292.879 290.593 292.79C290.542 292.701 290.468 292.628 290.38 292.576L282.101 287.764C282.012 287.713 281.911 287.686 281.809 287.686H270.058C269.956 287.685 269.856 287.712 269.767 287.764L261.467 292.576C261.379 292.627 261.305 292.701 261.254 292.79C261.203 292.879 261.176 292.979 261.176 293.082V303.124C261.176 303.226 261.203 303.327 261.254 303.415C261.305 303.504 261.379 303.578 261.467 303.629L269.767 308.445C269.78 308.453 269.795 308.456 269.809 308.462C269.826 308.47 269.842 308.477 269.859 308.483C269.923 308.508 269.99 308.522 270.058 308.523H281.809C281.878 308.522 281.945 308.508 282.009 308.483C282.026 308.477 282.041 308.47 282.057 308.463C282.071 308.456 282.087 308.453 282.101 308.445L290.384 303.629C290.472 303.578 290.545 303.504 290.596 303.415C290.647 303.327 290.674 303.226 290.674 303.123V299.878L290.674 299.878L290.674 299.878Z" fill="#231F20"/>
<path d="M281.809 307.939L290.092 303.123V299.878L280.464 302.658L281.809 307.939Z" fill="#F9C166"/>
<path d="M270.058 307.939L261.759 303.123V299.878L271.234 302.988L270.058 307.939Z" fill="#F9C166"/>
<path d="M270.058 307.939H281.809V304.689L276.271 302.658L270.058 304.689V307.939Z" fill="#FDB45C"/>
<path d="M261.759 299.878L270.058 304.689H281.809L290.092 299.878L290.089 293.082L281.809 288.27H270.058L261.759 293.082V299.878Z" fill="#FBD9A2"/>
<path d="M263.11 294.187V299.56L270.626 303.916H281.237L288.748 299.555V294.187L281.237 289.834H270.626L263.11 294.187Z" fill="#F9C166"/>
<path d="M263.11 293.389V294.187L270.626 289.834H281.237L288.748 294.187V293.389L281.237 289.06L270.626 289.061L263.11 293.389Z" fill="#FDB45C"/>
<g clip-path="url(#clip2_867_5922)">
<path d="M101.345 160.372C108.059 164.241 113.479 173.617 113.457 181.313C113.44 187.113 110.336 190.304 105.937 189.871L105.852 209.205C105.844 212.164 103.748 213.36 101.169 211.874C98.5894 210.387 96.5075 206.783 96.5159 203.825L96.6005 184.49C92.2132 179.86 89.1374 173.107 89.1539 167.307C89.1757 159.611 94.6351 156.505 101.345 160.372Z" fill="#475467"/>
<path d="M101.345 160.372C94.635 156.505 89.1757 159.611 89.1539 167.307C89.1374 173.107 92.2131 179.86 96.6005 184.49L112.512 175.32C110.679 169.261 106.375 163.271 101.345 160.372Z" fill="#667085"/>
<mask id="mask0_867_5922" style="mask-type:luminance" maskUnits="userSpaceOnUse" x="1" y="161" width="113" height="76">
<path d="M102.563 161.144L89.2147 168.782L87.0455 170.024C84.4042 168.729 82.0468 168.775 80.3623 169.935L75.4605 172.741C73.7324 173.724 72.6183 175.779 72.482 178.692L69.8899 180.139C65.5234 178.006 60.5696 176.477 55.3588 175.559C41.1873 173.058 25.1261 175.05 13.8699 181.537C13.2559 181.892 12.663 182.255 12.0968 182.625C5.09328 187.187 1.60202 192.916 1.62592 198.635C1.62615 198.632 1.62566 198.629 1.62451 198.627L1.64137 212.799C1.65963 218.895 5.6721 224.983 13.6886 229.635H13.6914L13.6915 229.635L13.6918 229.636L13.6923 229.636L13.6928 229.636C14.3517 230.018 15.0317 230.378 15.7215 230.729C23.0159 234.434 32.0299 236.404 41.1662 236.636C51.2199 236.888 61.4112 235.034 69.6033 231.079C70.546 230.624 71.4663 230.147 72.3528 229.636C80.299 225.056 84.379 219.086 84.5855 213.084C84.5925 212.917 84.5953 212.743 84.5953 212.562L84.5784 198.381C84.5784 198.409 84.577 198.435 84.577 198.461C84.577 198.177 84.57 197.892 84.5531 197.609C86.4962 198.258 88.2355 198.143 89.5926 197.366C89.5957 197.364 89.599 197.362 89.6025 197.36L94.8513 194.355C95.543 193.954 96.1298 193.396 96.5639 192.725C97.2987 191.623 97.744 190.146 97.8185 188.344L110.141 181.292L113.361 179.449C112.659 172.645 108.183 165.024 102.563 161.144ZM6.82977 210.21C6.76936 210.147 6.71175 210.084 6.65134 210.02C6.72721 210.1 6.80307 210.181 6.87895 210.259C6.86208 210.244 6.84662 210.227 6.82977 210.21ZM81.135 208.009C81.1181 208.031 81.0998 208.054 81.0816 208.077C81.1069 208.044 81.1322 208.011 81.156 207.979L81.135 208.009ZM81.9007 206.919C81.8936 206.93 81.8852 206.941 81.8768 206.953C81.8908 206.93 81.9049 206.909 81.9203 206.887C81.9146 206.898 81.908 206.909 81.9007 206.919Z" fill="white"/>
</mask>
<g mask="url(#mask0_867_5922)">
<path d="M121.997 174.508C124.95 172.818 124.973 167.322 122.05 162.234C119.126 157.146 114.362 154.391 111.409 156.082C108.456 157.772 108.433 163.268 111.357 168.356C114.281 173.444 119.045 176.199 121.997 174.508Z" fill="#C8B482"/>
<mask id="path-70-inside-1_867_5922" fill="white">
<path d="M92.8421 191.193C94.2197 190.402 95.0724 188.704 95.0731 186.288C95.0729 185.997 95.0604 185.705 95.0342 185.409C95.0263 185.31 95.0135 185.209 95.0018 185.112C94.9807 184.919 94.9596 184.725 94.9309 184.534C94.8703 184.14 94.7896 183.748 94.6939 183.353C94.6635 183.232 94.6292 183.112 94.5963 182.989C94.5364 182.774 94.4754 182.554 94.4068 182.337C94.36 182.193 94.312 182.052 94.2614 181.91C94.1992 181.732 94.1346 181.552 94.0648 181.376C94.0083 181.227 93.9495 181.077 93.8854 180.93C93.8162 180.764 93.7442 180.603 93.6721 180.442C93.6032 180.292 93.5342 180.142 93.46 179.996C93.3818 179.835 93.2996 179.674 93.2175 179.514C93.1405 179.372 93.065 179.228 92.9856 179.085C92.8888 178.917 92.7907 178.75 92.6902 178.582C92.61 178.452 92.5313 178.319 92.4497 178.191C92.3211 177.988 92.1835 177.789 92.0469 177.594C91.9753 177.488 91.9061 177.383 91.8318 177.282C91.5889 176.951 91.3404 176.63 91.0787 176.321C90.9907 176.215 90.8976 176.113 90.8068 176.012C90.6739 175.861 90.5433 175.712 90.4061 175.568C90.3057 175.461 90.201 175.362 90.1001 175.262C89.9636 175.128 89.8285 174.992 89.6902 174.867C89.6091 174.795 89.5265 174.724 89.444 174.654C89.3688 174.588 89.2911 174.521 89.2145 174.457C89.0612 174.33 88.9075 174.209 88.7525 174.091C88.6647 174.024 88.5784 173.955 88.4892 173.891C88.1818 173.671 87.8688 173.462 87.548 173.277C87.4046 173.194 87.264 173.129 87.1212 173.057C86.9834 172.987 86.8445 172.914 86.7097 172.855C86.5909 172.803 86.4727 172.761 86.356 172.716C86.2247 172.663 86.0909 172.609 85.9588 172.568C85.8799 172.542 85.8031 172.524 85.7214 172.502C85.5102 172.44 85.2953 172.39 85.0778 172.355C84.987 172.338 84.8949 172.324 84.8051 172.311C84.6528 172.294 84.5048 172.286 84.358 172.283C84.2665 172.278 84.1725 172.273 84.0831 172.276C83.9608 172.28 83.8389 172.291 83.7178 172.308C83.6241 172.319 83.5294 172.326 83.4392 172.342C83.3307 172.363 83.2233 172.389 83.1176 172.422C83.0256 172.446 82.935 172.469 82.8465 172.498C82.7398 172.537 82.64 172.586 82.5378 172.634C82.4423 172.676 82.3457 172.714 82.2546 172.765L111.414 156.081C111.44 156.063 111.468 156.05 111.496 156.034C111.559 155.999 111.629 155.978 111.697 155.946C111.797 155.9 111.901 155.85 112.006 155.814C112.024 155.805 112.042 155.796 112.059 155.789C112.129 155.765 112.204 155.757 112.275 155.736C112.382 155.707 112.487 155.677 112.596 155.656C112.622 155.651 112.642 155.644 112.664 155.64C112.733 155.628 112.807 155.628 112.876 155.62C112.997 155.608 113.118 155.594 113.24 155.59C113.271 155.588 113.3 155.583 113.329 155.583C113.39 155.583 113.455 155.594 113.517 155.594C113.664 155.598 113.812 155.609 113.965 155.626C114.007 155.631 114.05 155.63 114.095 155.636C114.141 155.64 114.192 155.66 114.236 155.666C114.448 155.704 114.662 155.753 114.882 155.815C114.936 155.83 114.984 155.835 115.04 155.851C115.065 155.859 115.093 155.872 115.12 155.881C115.251 155.924 115.384 155.979 115.517 156.029C115.634 156.074 115.75 156.115 115.867 156.169C116.004 156.229 116.143 156.303 116.283 156.374C116.381 156.423 116.478 156.463 116.576 156.517L116.708 156.592C117.032 156.781 117.346 156.985 117.649 157.206C117.738 157.27 117.823 157.336 117.911 157.402C118.066 157.521 118.22 157.642 118.372 157.771C118.45 157.832 118.527 157.9 118.605 157.967C118.656 158.013 118.709 158.05 118.761 158.096C118.791 158.123 118.819 158.152 118.849 158.179C118.988 158.308 119.123 158.444 119.26 158.577C119.363 158.679 119.465 158.777 119.563 158.882C119.701 159.026 119.836 159.178 119.969 159.329C120.045 159.415 120.127 159.498 120.202 159.586C120.217 159.601 120.226 159.619 120.24 159.634C120.499 159.942 120.75 160.264 120.989 160.596C121.008 160.62 121.028 160.641 121.045 160.667C121.101 160.745 121.151 160.825 121.206 160.905C121.343 161.104 121.478 161.302 121.607 161.505C121.638 161.552 121.673 161.598 121.703 161.648C121.753 161.729 121.798 161.813 121.85 161.898C121.949 162.062 122.049 162.232 122.143 162.399C122.178 162.462 122.217 162.523 122.252 162.585C122.296 162.666 122.333 162.748 122.375 162.827C122.461 162.987 122.54 163.146 122.621 163.309C122.655 163.38 122.696 163.449 122.729 163.52C122.765 163.599 122.794 163.677 122.831 163.753C122.905 163.916 122.976 164.08 123.045 164.246C123.076 164.321 123.114 164.395 123.146 164.475C123.174 164.543 123.196 164.617 123.223 164.688C123.294 164.868 123.359 165.047 123.421 165.226C123.45 165.31 123.487 165.393 123.515 165.477C123.533 165.536 123.546 165.592 123.564 165.651C123.633 165.868 123.695 166.085 123.754 166.303C123.78 166.393 123.812 166.483 123.834 166.573C123.842 166.604 123.844 166.634 123.851 166.667C123.949 167.063 124.03 167.456 124.09 167.846C124.093 167.867 124.098 167.886 124.102 167.908C124.128 168.081 124.143 168.252 124.16 168.423C124.171 168.523 124.187 168.623 124.195 168.722C124.218 169.019 124.23 169.311 124.232 169.6C124.232 172.019 123.379 173.718 122.001 174.505L92.8421 191.193Z"/>
</mask>
<path d="M92.8421 191.193C94.2197 190.402 95.0724 188.704 95.0731 186.288C95.0729 185.997 95.0604 185.705 95.0342 185.409C95.0263 185.31 95.0135 185.209 95.0018 185.112C94.9807 184.919 94.9596 184.725 94.9309 184.534C94.8703 184.14 94.7896 183.748 94.6939 183.353C94.6635 183.232 94.6292 183.112 94.5963 182.989C94.5364 182.774 94.4754 182.554 94.4068 182.337C94.36 182.193 94.312 182.052 94.2614 181.91C94.1992 181.732 94.1346 181.552 94.0648 181.376C94.0083 181.227 93.9495 181.077 93.8854 180.93C93.8162 180.764 93.7442 180.603 93.6721 180.442C93.6032 180.292 93.5342 180.142 93.46 179.996C93.3818 179.835 93.2996 179.674 93.2175 179.514C93.1405 179.372 93.065 179.228 92.9856 179.085C92.8888 178.917 92.7907 178.75 92.6902 178.582C92.61 178.452 92.5313 178.319 92.4497 178.191C92.3211 177.988 92.1835 177.789 92.0469 177.594C91.9753 177.488 91.9061 177.383 91.8318 177.282C91.5889 176.951 91.3404 176.63 91.0787 176.321C90.9907 176.215 90.8976 176.113 90.8068 176.012C90.6739 175.861 90.5433 175.712 90.4061 175.568C90.3057 175.461 90.201 175.362 90.1001 175.262C89.9636 175.128 89.8285 174.992 89.6902 174.867C89.6091 174.795 89.5265 174.724 89.444 174.654C89.3688 174.588 89.2911 174.521 89.2145 174.457C89.0612 174.33 88.9075 174.209 88.7525 174.091C88.6647 174.024 88.5784 173.955 88.4892 173.891C88.1818 173.671 87.8688 173.462 87.548 173.277C87.4046 173.194 87.264 173.129 87.1212 173.057C86.9834 172.987 86.8445 172.914 86.7097 172.855C86.5909 172.803 86.4727 172.761 86.356 172.716C86.2247 172.663 86.0909 172.609 85.9588 172.568C85.8799 172.542 85.8031 172.524 85.7214 172.502C85.5102 172.44 85.2953 172.39 85.0778 172.355C84.987 172.338 84.8949 172.324 84.8051 172.311C84.6528 172.294 84.5048 172.286 84.358 172.283C84.2665 172.278 84.1725 172.273 84.0831 172.276C83.9608 172.28 83.8389 172.291 83.7178 172.308C83.6241 172.319 83.5294 172.326 83.4392 172.342C83.3307 172.363 83.2233 172.389 83.1176 172.422C83.0256 172.446 82.935 172.469 82.8465 172.498C82.7398 172.537 82.64 172.586 82.5378 172.634C82.4423 172.676 82.3457 172.714 82.2546 172.765L111.414 156.081C111.44 156.063 111.468 156.05 111.496 156.034C111.559 155.999 111.629 155.978 111.697 155.946C111.797 155.9 111.901 155.85 112.006 155.814C112.024 155.805 112.042 155.796 112.059 155.789C112.129 155.765 112.204 155.757 112.275 155.736C112.382 155.707 112.487 155.677 112.596 155.656C112.622 155.651 112.642 155.644 112.664 155.64C112.733 155.628 112.807 155.628 112.876 155.62C112.997 155.608 113.118 155.594 113.24 155.59C113.271 155.588 113.3 155.583 113.329 155.583C113.39 155.583 113.455 155.594 113.517 155.594C113.664 155.598 113.812 155.609 113.965 155.626C114.007 155.631 114.05 155.63 114.095 155.636C114.141 155.64 114.192 155.66 114.236 155.666C114.448 155.704 114.662 155.753 114.882 155.815C114.936 155.83 114.984 155.835 115.04 155.851C115.065 155.859 115.093 155.872 115.12 155.881C115.251 155.924 115.384 155.979 115.517 156.029C115.634 156.074 115.75 156.115 115.867 156.169C116.004 156.229 116.143 156.303 116.283 156.374C116.381 156.423 116.478 156.463 116.576 156.517L116.708 156.592C117.032 156.781 117.346 156.985 117.649 157.206C117.738 157.27 117.823 157.336 117.911 157.402C118.066 157.521 118.22 157.642 118.372 157.771C118.45 157.832 118.527 157.9 118.605 157.967C118.656 158.013 118.709 158.05 118.761 158.096C118.791 158.123 118.819 158.152 118.849 158.179C118.988 158.308 119.123 158.444 119.26 158.577C119.363 158.679 119.465 158.777 119.563 158.882C119.701 159.026 119.836 159.178 119.969 159.329C120.045 159.415 120.127 159.498 120.202 159.586C120.217 159.601 120.226 159.619 120.24 159.634C120.499 159.942 120.75 160.264 120.989 160.596C121.008 160.62 121.028 160.641 121.045 160.667C121.101 160.745 121.151 160.825 121.206 160.905C121.343 161.104 121.478 161.302 121.607 161.505C121.638 161.552 121.673 161.598 121.703 161.648C121.753 161.729 121.798 161.813 121.85 161.898C121.949 162.062 122.049 162.232 122.143 162.399C122.178 162.462 122.217 162.523 122.252 162.585C122.296 162.666 122.333 162.748 122.375 162.827C122.461 162.987 122.54 163.146 122.621 163.309C122.655 163.38 122.696 163.449 122.729 163.52C122.765 163.599 122.794 163.677 122.831 163.753C122.905 163.916 122.976 164.08 123.045 164.246C123.076 164.321 123.114 164.395 123.146 164.475C123.174 164.543 123.196 164.617 123.223 164.688C123.294 164.868 123.359 165.047 123.421 165.226C123.45 165.31 123.487 165.393 123.515 165.477C123.533 165.536 123.546 165.592 123.564 165.651C123.633 165.868 123.695 166.085 123.754 166.303C123.78 166.393 123.812 166.483 123.834 166.573C123.842 166.604 123.844 166.634 123.851 166.667C123.949 167.063 124.03 167.456 124.09 167.846C124.093 167.867 124.098 167.886 124.102 167.908C124.128 168.081 124.143 168.252 124.16 168.423C124.171 168.523 124.187 168.623 124.195 168.722C124.218 169.019 124.23 169.311 124.232 169.6C124.232 172.019 123.379 173.718 122.001 174.505L92.8421 191.193Z" fill="#F9C166" stroke="#231F20" stroke-width="2" mask="url(#path-70-inside-1_867_5922)"/>
<path d="M92.843 191.192C95.7957 189.502 95.8191 184.006 92.8952 178.918C89.9713 173.829 85.2074 171.075 82.2547 172.765C79.302 174.456 79.2786 179.951 82.2025 185.04C85.1264 190.128 89.8903 192.883 92.843 191.192Z" fill="#C8B482"/>
<path d="M122.504 173.47L122.504 173.469C122.544 173.426 122.585 173.38 122.626 173.331C122.626 173.33 122.626 173.33 122.627 173.329L122.629 173.327C122.641 173.312 122.65 173.301 122.659 173.29L122.66 173.289C122.705 173.233 122.749 173.175 122.793 173.115C122.793 173.115 122.793 173.114 122.794 173.113L122.797 173.108L122.799 173.106C123.375 172.298 123.732 171.126 123.732 169.601C123.73 169.326 123.718 169.047 123.697 168.761C123.692 168.705 123.688 168.673 123.682 168.633C123.677 168.596 123.671 168.552 123.663 168.475L123.663 168.474C123.66 168.441 123.657 168.41 123.654 168.379C123.64 168.242 123.628 168.118 123.609 167.991C123.609 167.99 123.608 167.987 123.607 167.983L123.607 167.982C123.605 167.972 123.601 167.953 123.597 167.931L123.595 167.921L123.595 167.921C123.538 167.548 123.461 167.171 123.366 166.787L123.363 166.777L123.361 166.767C123.358 166.749 123.355 166.733 123.353 166.721L123.351 166.705L123.349 166.695C123.349 166.694 123.349 166.694 123.349 166.693L123.349 166.692L123.349 166.692C123.337 166.647 123.328 166.617 123.315 166.578C123.304 166.545 123.292 166.505 123.274 166.443L123.271 166.433L123.271 166.433C123.214 166.221 123.153 166.011 123.087 165.801L123.085 165.795L123.085 165.795C123.074 165.759 123.065 165.724 123.058 165.696L123.057 165.694C123.05 165.668 123.045 165.649 123.039 165.63C123.03 165.603 123.018 165.573 123.003 165.534C122.987 165.494 122.967 165.443 122.948 165.389C122.887 165.214 122.825 165.042 122.758 164.871L122.757 164.867L122.757 164.867C122.742 164.829 122.728 164.789 122.718 164.758C122.716 164.753 122.714 164.749 122.713 164.744C122.7 164.709 122.692 164.686 122.684 164.668L122.681 164.66L122.681 164.66C122.671 164.633 122.658 164.606 122.641 164.567L122.637 164.56C122.622 164.526 122.602 164.482 122.583 164.436C122.516 164.276 122.449 164.12 122.378 163.966C122.354 163.914 122.316 163.826 122.293 163.771C122.285 163.752 122.278 163.737 122.275 163.729C122.265 163.708 122.252 163.684 122.234 163.65L122.232 163.646C122.215 163.615 122.193 163.572 122.171 163.527C122.091 163.366 122.016 163.215 121.935 163.065L121.933 163.061L121.933 163.061C121.91 163.019 121.889 162.976 121.872 162.94L121.866 162.927C121.846 162.888 121.831 162.857 121.816 162.829C121.802 162.805 121.787 162.781 121.769 162.75L121.768 162.748C121.75 162.718 121.728 162.682 121.708 162.645L121.707 162.645C121.615 162.481 121.519 162.316 121.423 162.157L122.504 173.47ZM122.504 173.47C122.491 173.484 122.478 173.497 122.46 173.515C122.456 173.519 122.451 173.524 122.446 173.53M122.504 173.47L122.446 173.53M122.446 173.53C122.404 173.572 122.369 173.607 122.335 173.639L122.335 173.639C122.316 173.656 122.299 173.672 122.274 173.693C122.267 173.699 122.259 173.706 122.251 173.714C122.24 173.722 122.231 173.73 122.223 173.738C122.195 173.762 122.175 173.78 122.153 173.797L122.153 173.797C122.123 173.821 122.091 173.844 122.048 173.875L122.037 173.883C122.037 173.884 122.037 173.884 122.037 173.884C121.999 173.912 121.988 173.92 121.976 173.929C121.971 173.933 121.966 173.936 121.959 173.941L121.958 173.941C121.89 173.988 121.822 174.031 121.753 174.07L121.752 174.071L94.9998 189.382C95.3035 188.664 95.4888 187.829 95.5456 186.901L98.2249 185.528L98.233 185.524L98.241 185.52C105.049 181.713 105.87 172.079 99.5963 167.397C99.2538 167.14 98.896 166.904 98.525 166.691L98.5241 166.69C97.5417 166.128 96.5783 165.785 95.6718 165.664L111.663 156.515L111.676 156.507L111.688 156.499C111.689 156.499 111.691 156.497 111.695 156.495L111.712 156.486L111.739 156.472L111.742 156.47C111.742 156.47 111.742 156.47 111.742 156.47C111.742 156.47 111.744 156.468 111.75 156.466C111.757 156.463 111.767 156.459 111.782 156.453C111.785 156.451 111.789 156.45 111.793 156.448C111.82 156.437 111.864 156.42 111.907 156.399C111.932 156.388 111.954 156.378 111.976 156.368C112.053 156.333 112.11 156.307 112.169 156.286L112.199 156.276L112.228 156.262L112.236 156.258C112.244 156.256 112.254 156.254 112.27 156.25C112.273 156.25 112.277 156.249 112.281 156.248C112.309 156.242 112.36 156.232 112.409 156.217C112.429 156.212 112.447 156.207 112.465 156.202C112.553 156.179 112.619 156.161 112.69 156.147C112.69 156.147 112.691 156.147 112.691 156.147L112.597 155.656M122.446 173.53L112.759 156.131M112.597 155.656C112.609 155.653 112.621 155.65 112.632 155.647C112.643 155.644 112.653 155.642 112.664 155.64C112.704 155.633 112.746 155.63 112.788 155.627C112.818 155.625 112.848 155.623 112.877 155.62M112.597 155.656C112.506 155.673 112.418 155.697 112.329 155.721C112.311 155.726 112.293 155.731 112.275 155.736L112.597 155.656ZM112.877 155.62L112.925 156.118C112.926 156.117 112.928 156.117 112.93 156.117M112.877 155.62L112.936 156.116C112.934 156.117 112.932 156.117 112.93 156.117M112.877 155.62C112.899 155.618 112.921 155.616 112.943 155.613C113.041 155.603 113.141 155.594 113.24 155.59C113.252 155.59 113.264 155.588 113.275 155.587C113.293 155.585 113.311 155.583 113.329 155.583C113.36 155.583 113.391 155.586 113.423 155.589C113.454 155.591 113.486 155.594 113.517 155.594M112.93 156.117C112.888 156.122 112.844 156.125 112.817 156.126C112.812 156.127 112.807 156.127 112.803 156.127C112.779 156.129 112.766 156.13 112.759 156.131M112.93 156.117C112.954 156.115 112.977 156.112 112.999 156.11C113.096 156.101 113.175 156.093 113.257 156.09L113.265 156.09L113.273 156.089C113.29 156.088 113.306 156.087 113.317 156.085L113.331 156.084L113.335 156.083M112.759 156.131C112.759 156.131 112.759 156.131 112.759 156.131L112.761 156.13C112.768 156.129 112.768 156.129 112.767 156.129C112.765 156.129 112.76 156.131 112.752 156.132C112.753 156.132 112.755 156.131 112.759 156.131ZM113.335 156.083L113.342 156.084C113.351 156.084 113.361 156.085 113.378 156.087L113.383 156.087C113.41 156.09 113.458 156.094 113.509 156.094M113.335 156.083L113.34 156.083C113.342 156.082 113.343 156.082 113.343 156.082C113.343 156.082 113.343 156.082 113.341 156.083C113.339 156.083 113.335 156.083 113.329 156.083C113.327 156.083 113.324 156.083 113.321 156.083L113.321 156.083L113.329 156.083C113.329 156.083 113.33 156.083 113.333 156.083L113.335 156.083ZM113.517 155.594L113.504 156.094C113.506 156.094 113.507 156.094 113.509 156.094M113.517 155.594L113.518 156.094C113.515 156.094 113.512 156.094 113.509 156.094M113.517 155.594C113.664 155.598 113.812 155.609 113.965 155.626M113.509 156.094C113.637 156.098 113.769 156.108 113.909 156.123M113.909 156.123C113.908 156.123 113.907 156.123 113.906 156.123L113.965 155.626M113.909 156.123C113.909 156.123 113.91 156.123 113.911 156.123L113.965 155.626M113.909 156.123L114.095 155.636C114.071 155.633 114.047 155.632 114.023 155.63C114.004 155.629 113.984 155.628 113.965 155.626M119.214 158.532C119.25 158.568 119.286 158.603 119.321 158.638C119.404 158.718 119.485 158.798 119.563 158.882C119.701 159.026 119.836 159.178 119.969 159.329C120.001 159.365 120.033 159.4 120.066 159.435C120.112 159.484 120.158 159.534 120.202 159.586C120.21 159.594 120.215 159.602 120.221 159.61L119.214 158.532ZM119.214 158.532C119.125 158.444 119.035 158.357 118.944 158.271M119.214 158.532L118.944 158.271M111.496 156.034C111.488 156.039 111.481 156.043 111.473 156.047C111.453 156.058 111.433 156.068 111.414 156.081L111.496 156.034ZM111.496 156.034C111.533 156.014 111.571 155.998 111.611 155.982C111.639 155.971 111.668 155.959 111.697 155.946C111.716 155.937 111.736 155.928 111.756 155.919L111.496 156.034ZM118.944 158.271C118.898 158.226 118.852 158.182 118.806 158.138L118.944 158.271ZM122.579 174.091C122.585 174.085 122.592 174.08 122.598 174.074C122.624 174.051 122.65 174.029 122.676 174.005L122.579 174.091ZM115.339 156.496C115.369 156.508 115.396 156.518 115.422 156.528C115.511 156.561 115.581 156.588 115.656 156.623L115.656 156.623L115.668 156.628C115.763 156.669 115.857 156.717 115.968 156.774C115.996 156.789 116.026 156.804 116.057 156.819C116.107 156.845 116.157 156.868 116.198 156.887C116.205 156.891 116.211 156.894 116.217 156.897C116.263 156.918 116.299 156.935 116.333 156.953L116.457 157.025C116.457 157.025 116.457 157.025 116.457 157.025C116.766 157.205 117.066 157.4 117.355 157.61L117.356 157.611C117.431 157.665 117.502 157.719 117.581 157.779L117.608 157.8C117.608 157.8 117.608 157.8 117.608 157.8C117.759 157.916 117.905 158.03 118.047 158.152L118.055 158.158L118.063 158.165C118.129 158.216 118.197 158.275 118.275 158.343C118.311 158.374 118.345 158.402 118.369 158.421L118.372 158.423C118.399 158.445 118.414 158.457 118.427 158.468L115.339 156.496ZM118.458 158.498C118.508 158.546 118.557 158.592 118.604 158.637C118.692 158.721 118.776 158.802 118.862 158.887L118.862 158.887C118.904 158.929 118.944 158.968 118.981 159.004C119.059 159.08 119.127 159.147 119.198 159.223L119.198 159.223L119.202 159.227C119.331 159.363 119.461 159.509 119.594 159.659L119.595 159.661C119.646 159.718 119.681 159.755 119.712 159.788C119.747 159.826 119.777 159.858 119.819 159.907C119.822 159.912 119.828 159.919 119.833 159.926C119.841 159.936 119.851 159.949 119.864 159.964C120.112 160.259 120.353 160.569 120.583 160.888L120.59 160.897L120.596 160.905C120.605 160.917 120.613 160.927 120.619 160.933L120.627 160.943L120.632 160.949C120.632 160.949 120.632 160.949 120.632 160.949L120.634 160.951L120.639 160.959C120.67 161.002 120.692 161.036 120.719 161.077C120.739 161.107 120.762 161.142 120.792 161.186L120.794 161.19C120.932 161.388 121.062 161.578 121.184 161.772L121.184 161.772L121.19 161.781C121.22 161.827 121.235 161.847 121.245 161.861C121.255 161.875 121.261 161.883 121.274 161.905L121.274 161.905L121.279 161.912C121.299 161.944 121.319 161.979 121.343 162.021L121.349 162.032C121.371 162.069 121.396 162.113 121.422 162.157L118.458 158.498ZM112.247 156.253C112.247 156.253 112.247 156.253 112.247 156.253L112.247 156.253Z" fill="#F7931A" stroke="#231F20"/>
<path d="M78.2185 176.28C78.2185 173.175 79.3023 171.118 80.9134 170.176C82.5235 169.235 84.8357 169.305 87.5196 170.842C90.2012 172.377 92.6574 175.044 94.4445 178.134C96.2315 181.224 97.3222 184.689 97.3222 187.791C97.3222 190.893 96.2375 192.948 94.6254 193.889C93.014 194.829 90.7003 194.758 88.0164 193.221C85.3348 191.686 82.8798 189.019 81.0939 185.931C79.3081 182.843 78.2185 179.38 78.2185 176.28Z" fill="#C8B482" stroke="#231F20"/>
<mask id="path-74-inside-2_867_5922" fill="white">
<path d="M75.825 172.571C75.9611 172.508 76.0958 172.443 76.2384 172.392C76.355 172.351 76.478 172.322 76.5988 172.29C76.7402 172.251 76.8804 172.21 77.0273 172.183C77.1486 172.161 77.2754 172.151 77.4003 172.137C77.5607 172.118 77.7211 172.1 77.8872 172.095C78.1212 172.087 78.3554 172.091 78.5889 172.109C78.6278 172.112 78.6675 172.117 78.7066 172.121C78.9542 172.146 79.2003 172.184 79.444 172.233C79.4918 172.243 79.5386 172.25 79.5867 172.26C79.851 172.318 80.121 172.396 80.394 172.484C80.5689 172.54 80.7478 172.613 80.926 172.682C81.0821 172.743 81.237 172.798 81.3954 172.868C81.5773 172.949 81.7628 173.047 81.9475 173.141C82.1371 173.237 82.3248 173.324 82.517 173.434C82.9499 173.686 83.3697 173.96 83.7748 174.254C83.8934 174.339 84.0102 174.43 84.1275 174.519C84.4412 174.757 84.7498 175.008 85.0532 175.274C85.1616 175.368 85.2717 175.459 85.3786 175.557C85.5641 175.727 85.7446 175.906 85.9255 176.085C86.0625 176.221 86.2014 176.353 86.3356 176.494C86.5187 176.685 86.6954 176.887 86.8729 177.088C86.9942 177.225 87.1182 177.358 87.2368 177.499C87.5843 177.912 87.9187 178.342 88.2404 178.785C88.339 178.92 88.4322 179.06 88.5282 179.198C88.7113 179.461 88.8919 179.727 89.0651 179.998C89.1753 180.171 89.2818 180.346 89.3878 180.522C89.5221 180.745 89.6542 180.969 89.7814 181.196C89.8872 181.384 89.9896 181.574 90.0902 181.765C90.2026 181.979 90.312 182.193 90.4182 182.409C90.5147 182.607 90.6082 182.805 90.6987 183.004C90.7977 183.221 90.8933 183.439 90.9853 183.658C91.0681 183.855 91.148 184.053 91.225 184.251C91.3177 184.49 91.405 184.73 91.4888 184.97C91.5549 185.159 91.6193 185.348 91.6798 185.537C91.7724 185.828 91.8551 186.119 91.934 186.409C91.9781 186.572 92.0249 186.734 92.0645 186.896C92.1934 187.424 92.3008 187.95 92.3812 188.472C92.4211 188.732 92.4489 188.989 92.4762 189.246C92.4902 189.378 92.5107 189.512 92.5213 189.643C92.5531 190.038 92.5713 190.43 92.5713 190.817C92.5713 194.044 91.4318 196.313 89.5924 197.366L94.852 194.355C96.6914 193.302 97.8309 191.033 97.8309 187.805C97.8309 187.419 97.8128 187.027 97.7809 186.632C97.7703 186.501 97.7498 186.367 97.7358 186.235C97.7113 186.004 97.6917 185.774 97.657 185.541C97.653 185.515 97.6449 185.488 97.6408 185.461C97.5604 184.938 97.453 184.413 97.324 183.885C97.3136 183.842 97.3092 183.8 97.2985 183.758C97.2684 183.638 97.2262 183.518 97.1936 183.398C97.1147 183.107 97.0321 182.817 96.9396 182.527C96.9149 182.449 96.8975 182.372 96.8718 182.294C96.8344 182.181 96.7873 182.07 96.7479 181.957C96.6643 181.718 96.5775 181.479 96.4851 181.241C96.448 181.146 96.4178 181.049 96.3793 180.953C96.3376 180.85 96.2878 180.749 96.2445 180.646C96.1526 180.427 96.0572 180.209 95.9584 179.993C95.9113 179.889 95.8706 179.784 95.8219 179.681C95.7767 179.586 95.7243 179.493 95.6778 179.398C95.5718 179.182 95.4624 178.967 95.3498 178.754C95.2938 178.647 95.244 178.539 95.1864 178.433C95.1404 178.349 95.088 178.268 95.0411 178.184C94.9137 177.957 94.7818 177.734 94.6474 177.511C94.5809 177.401 94.5206 177.286 94.4524 177.177C94.4117 177.112 94.3658 177.051 94.3246 176.987C94.1517 176.716 93.9717 176.451 93.789 176.189C93.7153 176.082 93.6481 175.971 93.5728 175.866C93.5495 175.834 93.5231 175.805 93.4996 175.773C93.1778 175.33 92.8434 174.902 92.4964 174.488C92.4794 174.467 92.4643 174.445 92.4472 174.425C92.3453 174.304 92.2364 174.194 92.1325 174.076C91.9549 173.876 91.7784 173.674 91.5952 173.482C91.4608 173.341 91.322 173.209 91.1849 173.074C91.004 172.895 90.8238 172.715 90.6384 172.546C90.5985 172.509 90.5609 172.468 90.5209 172.432C90.4532 172.371 90.3807 172.322 90.3124 172.262C90.0091 171.997 89.7006 171.745 89.3871 171.507C89.2696 171.418 89.1532 171.328 89.0343 171.243C88.6293 170.948 88.2096 170.674 87.7766 170.422C87.718 170.389 87.6595 170.356 87.6011 170.324C87.4681 170.25 87.3391 170.196 87.2074 170.13C87.0224 170.036 86.8369 169.938 86.6547 169.857C86.4963 169.787 86.3418 169.731 86.1858 169.671C86.0076 169.602 85.8288 169.529 85.6539 169.473C85.6188 169.461 85.5821 169.444 85.5471 169.433C85.3098 169.359 85.0765 169.3 84.8459 169.249C84.7982 169.238 84.752 169.232 84.7045 169.222C84.5643 169.194 84.4234 169.164 84.2859 169.144C84.178 169.128 84.0726 169.12 83.9665 169.11C83.9271 169.106 83.8874 169.1 83.8482 169.097C83.6508 169.081 83.4557 169.072 83.265 169.073C83.2244 169.074 83.1873 169.082 83.147 169.084C82.9806 169.088 82.8202 169.107 82.6594 169.125C82.5661 169.136 82.4676 169.134 82.3763 169.149C82.3454 169.155 82.3176 169.166 82.287 169.172C82.1399 169.199 81.9997 169.24 81.8581 169.278C81.7626 169.304 81.6616 169.319 81.5688 169.35C81.5442 169.359 81.5225 169.372 81.4981 169.381C81.3553 169.432 81.2207 169.497 81.0845 169.56C80.9962 169.601 80.9017 169.631 80.8162 169.677C80.7796 169.696 80.7432 169.716 80.7071 169.737L75.4475 172.748C75.5679 172.68 75.6988 172.63 75.825 172.571Z"/>
</mask>
<path d="M75.825 172.571C75.9611 172.508 76.0958 172.443 76.2384 172.392C76.355 172.351 76.478 172.322 76.5988 172.29C76.7402 172.251 76.8804 172.21 77.0273 172.183C77.1486 172.161 77.2754 172.151 77.4003 172.137C77.5607 172.118 77.7211 172.1 77.8872 172.095C78.1212 172.087 78.3554 172.091 78.5889 172.109C78.6278 172.112 78.6675 172.117 78.7066 172.121C78.9542 172.146 79.2003 172.184 79.444 172.233C79.4918 172.243 79.5386 172.25 79.5867 172.26C79.851 172.318 80.121 172.396 80.394 172.484C80.5689 172.54 80.7478 172.613 80.926 172.682C81.0821 172.743 81.237 172.798 81.3954 172.868C81.5773 172.949 81.7628 173.047 81.9475 173.141C82.1371 173.237 82.3248 173.324 82.517 173.434C82.9499 173.686 83.3697 173.96 83.7748 174.254C83.8934 174.339 84.0102 174.43 84.1275 174.519C84.4412 174.757 84.7498 175.008 85.0532 175.274C85.1616 175.368 85.2717 175.459 85.3786 175.557C85.5641 175.727 85.7446 175.906 85.9255 176.085C86.0625 176.221 86.2014 176.353 86.3356 176.494C86.5187 176.685 86.6954 176.887 86.8729 177.088C86.9942 177.225 87.1182 177.358 87.2368 177.499C87.5843 177.912 87.9187 178.342 88.2404 178.785C88.339 178.92 88.4322 179.06 88.5282 179.198C88.7113 179.461 88.8919 179.727 89.0651 179.998C89.1753 180.171 89.2818 180.346 89.3878 180.522C89.5221 180.745 89.6542 180.969 89.7814 181.196C89.8872 181.384 89.9896 181.574 90.0902 181.765C90.2026 181.979 90.312 182.193 90.4182 182.409C90.5147 182.607 90.6082 182.805 90.6987 183.004C90.7977 183.221 90.8933 183.439 90.9853 183.658C91.0681 183.855 91.148 184.053 91.225 184.251C91.3177 184.49 91.405 184.73 91.4888 184.97C91.5549 185.159 91.6193 185.348 91.6798 185.537C91.7724 185.828 91.8551 186.119 91.934 186.409C91.9781 186.572 92.0249 186.734 92.0645 186.896C92.1934 187.424 92.3008 187.95 92.3812 188.472C92.4211 188.732 92.4489 188.989 92.4762 189.246C92.4902 189.378 92.5107 189.512 92.5213 189.643C92.5531 190.038 92.5713 190.43 92.5713 190.817C92.5713 194.044 91.4318 196.313 89.5924 197.366L94.852 194.355C96.6914 193.302 97.8309 191.033 97.8309 187.805C97.8309 187.419 97.8128 187.027 97.7809 186.632C97.7703 186.501 97.7498 186.367 97.7358 186.235C97.7113 186.004 97.6917 185.774 97.657 185.541C97.653 185.515 97.6449 185.488 97.6408 185.461C97.5604 184.938 97.453 184.413 97.324 183.885C97.3136 183.842 97.3092 183.8 97.2985 183.758C97.2684 183.638 97.2262 183.518 97.1936 183.398C97.1147 183.107 97.0321 182.817 96.9396 182.527C96.9149 182.449 96.8975 182.372 96.8718 182.294C96.8344 182.181 96.7873 182.07 96.7479 181.957C96.6643 181.718 96.5775 181.479 96.4851 181.241C96.448 181.146 96.4178 181.049 96.3793 180.953C96.3376 180.85 96.2878 180.749 96.2445 180.646C96.1526 180.427 96.0572 180.209 95.9584 179.993C95.9113 179.889 95.8706 179.784 95.8219 179.681C95.7767 179.586 95.7243 179.493 95.6778 179.398C95.5718 179.182 95.4624 178.967 95.3498 178.754C95.2938 178.647 95.244 178.539 95.1864 178.433C95.1404 178.349 95.088 178.268 95.0411 178.184C94.9137 177.957 94.7818 177.734 94.6474 177.511C94.5809 177.401 94.5206 177.286 94.4524 177.177C94.4117 177.112 94.3658 177.051 94.3246 176.987C94.1517 176.716 93.9717 176.451 93.789 176.189C93.7153 176.082 93.6481 175.971 93.5728 175.866C93.5495 175.834 93.5231 175.805 93.4996 175.773C93.1778 175.33 92.8434 174.902 92.4964 174.488C92.4794 174.467 92.4643 174.445 92.4472 174.425C92.3453 174.304 92.2364 174.194 92.1325 174.076C91.9549 173.876 91.7784 173.674 91.5952 173.482C91.4608 173.341 91.322 173.209 91.1849 173.074C91.004 172.895 90.8238 172.715 90.6384 172.546C90.5985 172.509 90.5609 172.468 90.5209 172.432C90.4532 172.371 90.3807 172.322 90.3124 172.262C90.0091 171.997 89.7006 171.745 89.3871 171.507C89.2696 171.418 89.1532 171.328 89.0343 171.243C88.6293 170.948 88.2096 170.674 87.7766 170.422C87.718 170.389 87.6595 170.356 87.6011 170.324C87.4681 170.25 87.3391 170.196 87.2074 170.13C87.0224 170.036 86.8369 169.938 86.6547 169.857C86.4963 169.787 86.3418 169.731 86.1858 169.671C86.0076 169.602 85.8288 169.529 85.6539 169.473C85.6188 169.461 85.5821 169.444 85.5471 169.433C85.3098 169.359 85.0765 169.3 84.8459 169.249C84.7982 169.238 84.752 169.232 84.7045 169.222C84.5643 169.194 84.4234 169.164 84.2859 169.144C84.178 169.128 84.0726 169.12 83.9665 169.11C83.9271 169.106 83.8874 169.1 83.8482 169.097C83.6508 169.081 83.4557 169.072 83.265 169.073C83.2244 169.074 83.1873 169.082 83.147 169.084C82.9806 169.088 82.8202 169.107 82.6594 169.125C82.5661 169.136 82.4676 169.134 82.3763 169.149C82.3454 169.155 82.3176 169.166 82.287 169.172C82.1399 169.199 81.9997 169.24 81.8581 169.278C81.7626 169.304 81.6616 169.319 81.5688 169.35C81.5442 169.359 81.5225 169.372 81.4981 169.381C81.3553 169.432 81.2207 169.497 81.0845 169.56C80.9962 169.601 80.9017 169.631 80.8162 169.677C80.7796 169.696 80.7432 169.716 80.7071 169.737L75.4475 172.748C75.5679 172.68 75.6988 172.63 75.825 172.571Z" fill="#FBC977" stroke="#231F20" stroke-width="2" mask="url(#path-74-inside-2_867_5922)"/>
<path d="M72.9675 179.307C72.9675 176.201 74.0513 174.144 75.6624 173.202C77.2725 172.261 79.5847 172.332 82.2686 173.868C84.9502 175.403 87.4065 178.071 89.1935 181.16C90.9805 184.25 92.0713 187.715 92.0713 190.817C92.0713 193.919 90.9866 195.975 89.3744 196.915C87.763 197.855 85.4493 197.784 82.7655 196.248C80.0839 194.712 77.6288 192.046 75.8429 188.957C74.0571 185.869 72.9675 182.406 72.9675 179.307Z" fill="#F89D1F" stroke="#231F20"/>
<path d="M87.8649 194.442C90.8176 192.752 90.8409 187.256 87.917 182.168C84.9931 177.079 80.2292 174.325 77.2765 176.015C74.3238 177.706 74.3005 183.201 77.2244 188.29C80.1483 193.378 84.9122 196.133 87.8649 194.442Z" fill="#C8B482"/>
<mask id="path-77-inside-3_867_5922" fill="white">
<path d="M66.6853 206.266C68.0615 205.477 68.9142 203.779 68.9163 201.361C68.9148 201.072 68.9022 200.78 68.876 200.484C68.8681 200.385 68.8553 200.284 68.8436 200.187C68.8225 199.994 68.8014 199.8 68.7727 199.609C68.7121 199.215 68.6314 198.823 68.5357 198.428C68.5053 198.307 68.471 198.187 68.4381 198.064C68.3796 197.846 68.3172 197.629 68.2486 197.412C68.2019 197.268 68.1538 197.127 68.1032 196.985C68.0411 196.807 67.9764 196.627 67.9079 196.449C67.8502 196.302 67.7913 196.152 67.7272 196.005C67.658 195.839 67.586 195.678 67.5139 195.517C67.445 195.367 67.376 195.217 67.3032 195.069C67.2236 194.909 67.1414 194.749 67.0593 194.588C66.9838 194.445 66.9068 194.303 66.8274 194.16C66.7306 193.991 66.6326 193.825 66.532 193.657C66.4518 193.527 66.3731 193.394 66.2915 193.266C66.1605 193.061 66.0253 192.864 65.8901 192.666C65.8171 192.563 65.7479 192.458 65.6736 192.357C65.4307 192.026 65.1822 191.705 64.9205 191.396C64.8326 191.29 64.7394 191.188 64.6462 191.086C64.5157 190.936 64.3851 190.786 64.2479 190.643C64.1475 190.536 64.0428 190.437 63.9395 190.336C63.8054 190.203 63.6703 190.067 63.532 189.942C63.4522 189.867 63.3683 189.799 63.2858 189.729C63.1866 189.643 63.0875 189.557 62.9869 189.473C62.8562 189.368 62.7254 189.264 62.5943 189.166C62.5065 189.099 62.4202 189.03 62.331 188.965C62.0236 188.746 61.7106 188.537 61.3898 188.352C61.2464 188.269 61.1058 188.204 60.963 188.132C60.8252 188.062 60.6863 187.988 60.5515 187.93C60.4327 187.878 60.3145 187.836 60.1978 187.791C60.0664 187.738 59.9327 187.684 59.802 187.641C59.7217 187.617 59.6449 187.599 59.5632 187.577C59.352 187.514 59.1371 187.465 58.9196 187.43C58.8288 187.413 58.7367 187.399 58.6469 187.386C58.4945 187.369 58.3467 187.361 58.1998 187.358C58.1083 187.353 58.0143 187.348 57.9249 187.351C57.8026 187.355 57.6807 187.366 57.5596 187.383C57.4659 187.394 57.3712 187.401 57.281 187.417C57.1725 187.438 57.0651 187.464 56.9594 187.497C56.8674 187.521 56.7768 187.543 56.6883 187.573C56.5816 187.612 56.4818 187.661 56.3796 187.709C56.2841 187.751 56.1875 187.789 56.0964 187.84L77.2821 176.012C77.3093 175.999 77.3355 175.981 77.3627 175.968C77.4276 175.934 77.4994 175.911 77.5653 175.881C77.6675 175.833 77.7673 175.784 77.874 175.745C77.8916 175.739 77.9088 175.731 77.9255 175.723C77.9974 175.7 78.0723 175.688 78.1437 175.671C78.2491 175.638 78.3565 175.611 78.4653 175.591C78.4883 175.585 78.5089 175.577 78.5319 175.571C78.5991 175.561 78.6732 175.562 78.7453 175.555C78.8644 175.54 78.9845 175.528 79.1105 175.523C79.1394 175.524 79.1663 175.516 79.199 175.516C79.2581 175.514 79.3228 175.526 79.3855 175.529C79.5345 175.532 79.6832 175.542 79.8312 175.56C79.876 175.566 79.9179 175.561 79.9627 175.568C80.0076 175.574 80.058 175.594 80.1028 175.6C80.3143 175.638 80.5288 175.687 80.7489 175.749C80.8021 175.764 80.8522 175.767 80.9064 175.785C80.9335 175.794 80.9592 175.806 80.9863 175.815C81.117 175.858 81.2507 175.912 81.3835 175.963C81.5002 176.008 81.6159 176.048 81.7372 176.102C81.8706 176.163 82.0094 176.236 82.1497 176.307C82.2473 176.357 82.3442 176.397 82.4428 176.451L82.5741 176.526C82.8989 176.713 83.2131 176.918 83.5153 177.14C83.6044 177.204 83.6922 177.271 83.78 177.338C83.8365 177.38 83.8916 177.425 83.9492 177.471C84.1271 177.606 84.3019 177.752 84.4739 177.902C84.5228 177.947 84.5759 177.984 84.6272 178.03C84.657 178.056 84.6854 178.086 84.7152 178.113C84.8546 178.241 84.9911 178.375 85.1287 178.513C85.2295 178.613 85.3317 178.711 85.4312 178.813C85.5708 178.958 85.7024 179.112 85.8354 179.263C85.9143 179.35 85.9936 179.432 86.0688 179.52C86.0823 179.535 86.0948 179.551 86.1062 179.568C86.3655 179.876 86.6164 180.198 86.8568 180.527C86.8741 180.554 86.8942 180.575 86.9129 180.598C86.9685 180.676 87.0176 180.759 87.0719 180.839C87.211 181.036 87.3448 181.236 87.4772 181.438C87.5069 181.487 87.5394 181.532 87.5705 181.579C87.622 181.664 87.6672 181.748 87.7163 181.831C87.8182 181.997 87.9163 182.163 88.0092 182.333C88.0469 182.397 88.0859 182.458 88.1211 182.521C88.1629 182.6 88.1994 182.682 88.2436 182.763C88.3271 182.921 88.4092 183.081 88.4875 183.243C88.521 183.314 88.5621 183.383 88.5955 183.454C88.6325 183.53 88.6641 183.61 88.6972 183.687C88.7716 183.85 88.8422 184.013 88.9129 184.177C88.9459 184.254 88.9828 184.33 89.0135 184.406C89.0406 184.477 89.064 184.549 89.0912 184.619C89.1621 184.799 89.2267 184.979 89.2899 185.161C89.3202 185.243 89.3529 185.326 89.3818 185.411C89.401 185.467 89.4126 185.526 89.4318 185.582C89.5029 185.801 89.5639 186.02 89.6238 186.236C89.646 186.327 89.6784 186.416 89.7006 186.507C89.7088 186.537 89.7132 186.569 89.72 186.602C89.8171 186.994 89.8964 187.389 89.956 187.779C89.9597 187.801 89.9648 187.82 89.9699 187.839C89.9946 188.015 90.0095 188.185 90.0268 188.357C90.0372 188.457 90.0538 188.557 90.0617 188.655C90.0854 188.951 90.1005 189.244 90.0981 189.534C90.0998 191.951 89.2458 193.651 87.8696 194.44L66.6853 206.266Z"/>
</mask>
<path d="M66.6853 206.266C68.0615 205.477 68.9142 203.779 68.9163 201.361C68.9148 201.072 68.9022 200.78 68.876 200.484C68.8681 200.385 68.8553 200.284 68.8436 200.187C68.8225 199.994 68.8014 199.8 68.7727 199.609C68.7121 199.215 68.6314 198.823 68.5357 198.428C68.5053 198.307 68.471 198.187 68.4381 198.064C68.3796 197.846 68.3172 197.629 68.2486 197.412C68.2019 197.268 68.1538 197.127 68.1032 196.985C68.0411 196.807 67.9764 196.627 67.9079 196.449C67.8502 196.302 67.7913 196.152 67.7272 196.005C67.658 195.839 67.586 195.678 67.5139 195.517C67.445 195.367 67.376 195.217 67.3032 195.069C67.2236 194.909 67.1414 194.749 67.0593 194.588C66.9838 194.445 66.9068 194.303 66.8274 194.16C66.7306 193.991 66.6326 193.825 66.532 193.657C66.4518 193.527 66.3731 193.394 66.2915 193.266C66.1605 193.061 66.0253 192.864 65.8901 192.666C65.8171 192.563 65.7479 192.458 65.6736 192.357C65.4307 192.026 65.1822 191.705 64.9205 191.396C64.8326 191.29 64.7394 191.188 64.6462 191.086C64.5157 190.936 64.3851 190.786 64.2479 190.643C64.1475 190.536 64.0428 190.437 63.9395 190.336C63.8054 190.203 63.6703 190.067 63.532 189.942C63.4522 189.867 63.3683 189.799 63.2858 189.729C63.1866 189.643 63.0875 189.557 62.9869 189.473C62.8562 189.368 62.7254 189.264 62.5943 189.166C62.5065 189.099 62.4202 189.03 62.331 188.965C62.0236 188.746 61.7106 188.537 61.3898 188.352C61.2464 188.269 61.1058 188.204 60.963 188.132C60.8252 188.062 60.6863 187.988 60.5515 187.93C60.4327 187.878 60.3145 187.836 60.1978 187.791C60.0664 187.738 59.9327 187.684 59.802 187.641C59.7217 187.617 59.6449 187.599 59.5632 187.577C59.352 187.514 59.1371 187.465 58.9196 187.43C58.8288 187.413 58.7367 187.399 58.6469 187.386C58.4945 187.369 58.3467 187.361 58.1998 187.358C58.1083 187.353 58.0143 187.348 57.9249 187.351C57.8026 187.355 57.6807 187.366 57.5596 187.383C57.4659 187.394 57.3712 187.401 57.281 187.417C57.1725 187.438 57.0651 187.464 56.9594 187.497C56.8674 187.521 56.7768 187.543 56.6883 187.573C56.5816 187.612 56.4818 187.661 56.3796 187.709C56.2841 187.751 56.1875 187.789 56.0964 187.84L77.2821 176.012C77.3093 175.999 77.3355 175.981 77.3627 175.968C77.4276 175.934 77.4994 175.911 77.5653 175.881C77.6675 175.833 77.7673 175.784 77.874 175.745C77.8916 175.739 77.9088 175.731 77.9255 175.723C77.9974 175.7 78.0723 175.688 78.1437 175.671C78.2491 175.638 78.3565 175.611 78.4653 175.591C78.4883 175.585 78.5089 175.577 78.5319 175.571C78.5991 175.561 78.6732 175.562 78.7453 175.555C78.8644 175.54 78.9845 175.528 79.1105 175.523C79.1394 175.524 79.1663 175.516 79.199 175.516C79.2581 175.514 79.3228 175.526 79.3855 175.529C79.5345 175.532 79.6832 175.542 79.8312 175.56C79.876 175.566 79.9179 175.561 79.9627 175.568C80.0076 175.574 80.058 175.594 80.1028 175.6C80.3143 175.638 80.5288 175.687 80.7489 175.749C80.8021 175.764 80.8522 175.767 80.9064 175.785C80.9335 175.794 80.9592 175.806 80.9863 175.815C81.117 175.858 81.2507 175.912 81.3835 175.963C81.5002 176.008 81.6159 176.048 81.7372 176.102C81.8706 176.163 82.0094 176.236 82.1497 176.307C82.2473 176.357 82.3442 176.397 82.4428 176.451L82.5741 176.526C82.8989 176.713 83.2131 176.918 83.5153 177.14C83.6044 177.204 83.6922 177.271 83.78 177.338C83.8365 177.38 83.8916 177.425 83.9492 177.471C84.1271 177.606 84.3019 177.752 84.4739 177.902C84.5228 177.947 84.5759 177.984 84.6272 178.03C84.657 178.056 84.6854 178.086 84.7152 178.113C84.8546 178.241 84.9911 178.375 85.1287 178.513C85.2295 178.613 85.3317 178.711 85.4312 178.813C85.5708 178.958 85.7024 179.112 85.8354 179.263C85.9143 179.35 85.9936 179.432 86.0688 179.52C86.0823 179.535 86.0948 179.551 86.1062 179.568C86.3655 179.876 86.6164 180.198 86.8568 180.527C86.8741 180.554 86.8942 180.575 86.9129 180.598C86.9685 180.676 87.0176 180.759 87.0719 180.839C87.211 181.036 87.3448 181.236 87.4772 181.438C87.5069 181.487 87.5394 181.532 87.5705 181.579C87.622 181.664 87.6672 181.748 87.7163 181.831C87.8182 181.997 87.9163 182.163 88.0092 182.333C88.0469 182.397 88.0859 182.458 88.1211 182.521C88.1629 182.6 88.1994 182.682 88.2436 182.763C88.3271 182.921 88.4092 183.081 88.4875 183.243C88.521 183.314 88.5621 183.383 88.5955 183.454C88.6325 183.53 88.6641 183.61 88.6972 183.687C88.7716 183.85 88.8422 184.013 88.9129 184.177C88.9459 184.254 88.9828 184.33 89.0135 184.406C89.0406 184.477 89.064 184.549 89.0912 184.619C89.1621 184.799 89.2267 184.979 89.2899 185.161C89.3202 185.243 89.3529 185.326 89.3818 185.411C89.401 185.467 89.4126 185.526 89.4318 185.582C89.5029 185.801 89.5639 186.02 89.6238 186.236C89.646 186.327 89.6784 186.416 89.7006 186.507C89.7088 186.537 89.7132 186.569 89.72 186.602C89.8171 186.994 89.8964 187.389 89.956 187.779C89.9597 187.801 89.9648 187.82 89.9699 187.839C89.9946 188.015 90.0095 188.185 90.0268 188.357C90.0372 188.457 90.0538 188.557 90.0617 188.655C90.0854 188.951 90.1005 189.244 90.0981 189.534C90.0998 191.951 89.2458 193.651 87.8696 194.44L66.6853 206.266Z" fill="#F9C166" stroke="#231F20" stroke-width="2" mask="url(#path-77-inside-3_867_5922)"/>
<path d="M66.6848 206.267C69.6375 204.577 69.6609 199.081 66.737 193.993C63.8131 188.904 59.0492 186.15 56.0965 187.84C53.1438 189.531 53.1204 195.026 56.0443 200.115C58.9682 205.203 63.7321 207.958 66.6848 206.267Z" fill="#C8B482"/>
<path d="M89.7815 189.534L89.5977 189.637C89.5957 189.839 89.5874 190.034 89.5732 190.223L90.0904 189.934C90.0956 189.803 90.0983 189.67 90.0982 189.534C90.0984 189.498 90.0974 189.462 90.0964 189.426C90.0958 189.404 90.0951 189.382 90.0948 189.359L89.7864 189.532L89.7815 189.534ZM69.4156 201.476C69.4161 201.438 69.4163 201.4 69.4163 201.362L69.4163 201.358C69.4161 201.314 69.4135 201.271 69.4117 201.243L69.4116 201.241C69.4096 201.209 69.4085 201.192 69.4082 201.176L68.9083 201.186L69.0056 201.361L69.0059 201.361L69.152 201.623L69.4156 201.476ZM68.8329 204.494L68.0381 204.938C67.6799 205.512 67.2225 205.958 66.6853 206.266L68.392 205.313C68.5585 205.061 68.7057 204.788 68.8329 204.494ZM87.6259 194.004L87.6233 194.005C87.6226 194.005 87.6218 194.006 87.621 194.006L87.8696 194.44L87.6259 194.004Z" fill="#F28F2C" stroke="#231F20"/>
<path d="M65.5133 218.64C67.8713 217.768 70.1531 216.702 72.3353 215.455C84.1396 208.652 87.4106 198.782 82.1344 190.3C80.1461 187.103 76.9434 184.102 72.5224 181.539C67.5631 178.661 61.6466 176.668 55.3589 175.56C41.1873 173.059 25.1266 175.05 13.8699 181.538C13.2561 181.893 12.665 182.255 12.0966 182.626C-2.36377 192.046 -1.85636 206.443 13.6745 215.454C27.7149 223.597 49.4092 224.66 65.5133 218.64Z" fill="#FF8666"/>
<path d="M65.3398 218.171L65.3382 218.172C49.3558 224.146 27.8201 223.08 13.9254 215.021C6.24867 210.567 2.38893 204.846 2.13835 199.171C1.888 193.502 5.23269 187.694 12.3695 183.045L12.3696 183.045C12.9302 182.679 13.5136 182.321 14.12 181.971C25.2536 175.555 41.1895 173.567 55.2719 176.052L55.2721 176.052C61.5143 177.152 67.3726 179.129 72.2715 181.971L72.2716 181.971C76.6388 184.503 79.7742 187.451 81.7098 190.564L82.1344 190.3L81.7098 190.564C84.2711 194.681 84.7479 199.108 83.1716 203.332C81.5899 207.571 77.9195 211.66 72.0857 215.022C69.9278 216.255 67.6715 217.309 65.3398 218.171Z" fill="#FBC977" stroke="#231F20"/>
<path d="M1.625 198.617L1.64201 204.606C1.65934 210.704 5.67334 224.985 13.6916 229.636C29.837 239.002 56.1018 230.809 72.3529 221.443C80.5295 216.731 84.6127 218.739 84.5952 212.563L84.5782 198.381C84.5957 204.557 80.5125 210.742 72.3358 215.454C56.0847 224.82 29.82 224.82 13.6745 215.454C5.65633 210.803 1.64231 204.715 1.625 198.617Z" fill="#D69746"/>
<path d="M67.3322 184.53C80.6086 192.232 80.5336 204.761 67.1747 212.46C53.8116 220.161 32.1458 220.161 18.8694 212.46C5.59742 204.761 5.66382 192.231 19.027 184.53C32.3858 176.831 54.0602 176.831 67.3322 184.53ZM64.1655 210.714C75.854 203.978 75.9201 193.014 64.3033 186.276C52.6908 179.539 33.7247 179.539 22.0362 186.276C10.3434 193.014 10.2859 203.978 21.8984 210.714C33.5151 217.453 52.4727 217.453 64.1655 210.714Z" fill="#F7931A"/>
<path d="M72.5856 215.887C78.5246 212.465 82.3869 208.237 84.0847 203.748L84.0953 212.564L84.0953 212.565C84.1121 218.498 80.1888 224.544 72.1033 229.203C71.4552 229.577 70.787 229.933 70.1038 230.276L70.1038 217.202C70.9505 216.786 71.7813 216.351 72.5856 215.887Z" fill="#F7931A" stroke="#231F20" stroke-linecap="round" stroke-linejoin="bevel"/>
<path d="M41.6655 236.146L41.6655 222.964C51.3282 223.137 61.0973 221.379 69.1037 217.678L69.1037 230.764C61.1772 234.523 51.3822 236.325 41.6655 236.146Z" fill="#F89D1F" stroke="#231F20"/>
<path d="M16.2212 230.421L16.2212 217.361C23.3307 220.806 31.9389 222.662 40.6655 222.939L40.6655 236.12C31.8787 235.836 23.2513 233.928 16.2212 230.421Z" fill="#F9B142" stroke="#231F20"/>
<path d="M2.14199 212.797L2.13137 203.935C3.8164 208.354 7.60684 212.512 13.4236 215.886C14.0104 216.226 14.6129 216.549 15.2212 216.861L15.2212 229.908C14.7866 229.679 14.3594 229.445 13.9424 229.203L13.6915 229.636L13.9424 229.203C6.01566 224.605 2.15862 218.655 2.14199 212.797Z" fill="#F9C166" stroke="#231F20"/>
</g>
</g>
<g clip-path="url(#clip3_867_5922)">
<path d="M174.03 57.5338C173.386 56.0814 172.51 54.7436 171.436 53.5728C173.212 53.2612 174.128 51.9724 174.185 49.7064C174.235 47.6401 173.546 45.5036 172.117 43.2968C170.79 41.1883 168.965 39.4383 166.803 38.2011L165.639 37.545L165.74 33.3883L163.162 31.9355L163.06 36.092L161.907 35.4423L162.009 31.2859L159.43 29.8328L159.329 33.9896L157.414 32.9104L156.555 32.4264L151.588 29.6279L151.49 33.6622L156.456 36.4605L156.014 54.5388L151.048 51.7403L150.949 55.7746L155.916 58.5731L156.775 59.0571L158.69 60.1363L158.595 64.0214L161.173 65.4742L161.268 61.5893L162.421 62.2389L162.326 66.1239L164.904 67.5769L164.999 63.6917L166.975 64.8049C169.137 66.0231 170.986 66.3452 172.52 65.7711C174.054 65.1962 174.847 63.8382 174.9 61.6971C174.92 60.2622 174.623 58.8405 174.03 57.5338ZM169.04 44.5545C169.624 45.4416 169.936 46.4797 169.938 47.5417C169.915 48.5126 169.575 49.148 168.92 49.4479C168.265 49.7478 167.47 49.6344 166.536 49.1079L160.527 45.7219L160.695 38.8494L166.704 42.2351C167.67 42.7933 168.475 43.5925 169.04 44.5545ZM169.588 61.1085C168.895 61.4376 168.057 61.325 167.074 60.7708L160.253 56.9277L160.432 49.6071L167.253 53.4502C168.275 54.0427 169.124 54.8931 169.715 55.9163C170.33 56.8586 170.66 57.9584 170.665 59.0837C170.64 60.1048 170.281 60.7797 169.588 61.1085Z" fill="#1A1E42"/>
</g>
<path d="M100.038 272.33L100.035 266.252C100.035 266.16 100.011 266.07 99.9654 265.991C99.9198 265.912 99.8542 265.846 99.7752 265.8L92.3699 261.496C92.2906 261.45 92.2006 261.426 92.109 261.426H81.5994C81.5079 261.426 81.418 261.45 81.3387 261.496L73.9153 265.8C73.8362 265.846 73.7705 265.912 73.7248 265.991C73.6792 266.071 73.6551 266.161 73.6552 266.252V275.234C73.6551 275.325 73.6792 275.415 73.7248 275.495C73.7705 275.574 73.8362 275.64 73.9153 275.686L81.3387 279.993C81.3507 280 81.3641 280.003 81.3766 280.009C81.3912 280.016 81.4055 280.021 81.4209 280.027C81.4778 280.05 81.5382 280.062 81.5994 280.063H92.109C92.1704 280.062 92.2311 280.05 92.2882 280.027C92.303 280.022 92.3169 280.016 92.331 280.009C92.3439 280.003 92.3577 280 92.3701 279.993L99.7785 275.686C99.8575 275.64 99.923 275.574 99.9686 275.495C100.014 275.415 100.038 275.325 100.038 275.234V272.331L100.038 272.331L100.038 272.33Z" fill="#231F20"/>
<path d="M92.1092 279.541L99.5173 275.233V272.331L90.9065 274.818L92.1092 279.541Z" fill="#F9C166"/>
<path d="M81.5992 279.541L74.1759 275.233V272.331L82.651 275.112L81.5992 279.541Z" fill="#F9C166"/>
<path d="M81.5992 279.541H92.1091V276.634L87.156 274.817L81.5992 276.634V279.541Z" fill="#FDB45C"/>
<path d="M74.1759 272.331L81.5993 276.634H92.1091L99.5174 272.331L99.5145 266.253L92.1091 261.948H81.5993L74.1759 266.253V272.331Z" fill="#FBD9A2"/>
<path d="M75.3848 266.528V267.242L82.1066 263.348H91.5979L98.3151 267.242V266.528L91.5979 262.655L82.1066 262.656L75.3848 266.528Z" fill="#FDB45C"/>
<path d="M75.3846 267.241V272.047L82.1066 275.942H91.5978L98.315 272.042V267.241L91.5978 263.348H82.1066L75.3846 267.241Z" fill="#F9C166"/>
<path d="M89.0627 270.838C89.1244 270.728 89.1588 270.604 89.1631 270.478C89.1674 270.352 89.1415 270.227 89.0874 270.113C89.7981 270.155 90.5059 269.992 91.126 269.642C91.6744 269.327 91.9586 268.967 91.9787 268.564C91.9983 268.161 91.7575 267.821 91.2562 267.543L90.9801 267.389L92.0834 266.755L91.4719 266.416L90.3685 267.05L90.0952 266.899L91.1982 266.265L90.5867 265.926L89.4837 266.56L89.0294 266.308L88.8255 266.195L87.6477 265.542L86.5771 266.158L87.7549 266.811L82.9571 269.569L81.779 268.916L80.7084 269.531L81.8865 270.184L82.0901 270.297L82.5444 270.549L81.5133 271.142L82.1249 271.481L83.1559 270.888L83.4292 271.039L82.3985 271.632L83.01 271.971L84.0411 271.379L84.5095 271.638C85.0851 271.937 85.7304 272.074 86.3774 272.036C87.0609 272.029 87.7319 271.851 88.3283 271.517C88.6322 271.364 88.8868 271.129 89.0627 270.838ZM90.4826 268.619C90.456 268.73 90.404 268.832 90.3308 268.919C90.2575 269.006 90.1651 269.074 90.0608 269.119C89.7924 269.27 89.4919 269.355 89.1842 269.366C88.9005 269.391 88.6154 269.336 88.3616 269.207L86.9363 268.416L88.7604 267.368L90.1857 268.158C90.4072 268.281 90.5062 268.435 90.4826 268.619ZM86.4527 271.188C86.1521 271.217 85.8495 271.159 85.5801 271.023L83.9625 270.126L85.9055 269.009L87.5231 269.906C87.6208 269.943 87.7038 270.01 87.7594 270.099C87.815 270.187 87.8401 270.291 87.8308 270.396C87.8016 270.512 87.746 270.621 87.6682 270.713C87.5904 270.804 87.4926 270.877 87.3823 270.925C87.0975 271.085 86.779 271.175 86.4527 271.188Z" fill="#1A1E42"/>
<path d="M278.612 298.803C278.686 298.675 278.727 298.531 278.732 298.384C278.737 298.237 278.706 298.091 278.642 297.957C279.488 298.007 280.33 297.817 281.069 297.408C281.721 297.04 282.06 296.621 282.084 296.151C282.107 295.681 281.82 295.283 281.224 294.959L280.895 294.78L282.208 294.041L281.48 293.645L280.167 294.385L279.841 294.208L281.155 293.468L280.427 293.073L279.113 293.813L278.573 293.519L278.33 293.387L276.928 292.625L275.653 293.343L277.055 294.105L271.344 297.323L269.941 296.561L268.667 297.279L270.069 298.041L270.312 298.173L270.852 298.466L269.625 299.158L270.353 299.553L271.58 298.862L271.906 299.039L270.679 299.73L271.407 300.126L272.634 299.434L273.192 299.737C273.877 300.085 274.645 300.246 275.415 300.201C276.229 300.194 277.028 299.985 277.738 299.595C278.1 299.418 278.403 299.143 278.612 298.803ZM280.303 296.215C280.271 296.344 280.209 296.464 280.122 296.565C280.035 296.666 279.925 296.746 279.8 296.798C279.481 296.974 279.123 297.073 278.757 297.086C278.419 297.116 278.08 297.051 277.778 296.9L276.081 295.979L278.252 294.755L279.949 295.677C280.213 295.82 280.331 296 280.303 296.215ZM275.505 299.212C275.147 299.245 274.787 299.179 274.466 299.019L272.541 297.973L274.854 296.67L276.779 297.716C276.896 297.759 276.995 297.838 277.061 297.941C277.127 298.044 277.157 298.166 277.146 298.287C277.111 298.424 277.045 298.55 276.952 298.657C276.86 298.764 276.743 298.849 276.612 298.905C276.273 299.091 275.894 299.196 275.505 299.212Z" fill="#1A1E42"/>
<g opacity="0.3" filter="url(#filter4_f_867_5922)">
<path d="M120.258 317.413V326.16L132.031 333.25H148.653L160.417 326.151V317.413L148.653 310.326H132.031L120.258 317.413Z" fill="#010101"/>
</g>
<path d="M121.279 320.939L132.436 327.406H148.231L159.364 320.939L159.36 311.804L148.231 305.335H132.436L121.279 311.804V320.939Z" fill="#FCE0BF"/>
<path d="M160.147 320.938L160.143 311.803C160.143 311.665 160.106 311.53 160.038 311.411C159.969 311.292 159.871 311.193 159.752 311.124L148.623 304.656C148.503 304.586 148.368 304.55 148.23 304.55H132.436C132.298 304.55 132.163 304.586 132.044 304.655L120.887 311.123C120.768 311.192 120.67 311.292 120.601 311.411C120.532 311.53 120.496 311.666 120.496 311.804V325.302C120.496 325.439 120.532 325.575 120.601 325.694C120.67 325.813 120.768 325.912 120.887 325.981L132.044 332.454C132.062 332.465 132.082 332.469 132.101 332.478C132.123 332.489 132.144 332.497 132.167 332.506C132.253 332.54 132.344 332.558 132.436 332.56H148.23C148.323 332.558 148.414 332.54 148.5 332.505C148.522 332.497 148.543 332.489 148.564 332.479C148.583 332.47 148.604 332.465 148.623 332.454L159.757 325.981C159.876 325.912 159.974 325.813 160.043 325.694C160.111 325.574 160.147 325.439 160.147 325.301V320.939L160.147 320.939L160.147 320.938Z" fill="#231F20"/>
<path d="M148.231 331.775L159.365 325.301V320.939L146.423 324.676L148.231 331.775Z" fill="#F9C166"/>
<path d="M132.435 331.775L121.279 325.301V320.939L134.016 325.12L132.435 331.775Z" fill="#F9C166"/>
<path d="M132.436 331.775H148.231V327.407L140.787 324.677L132.436 327.407V331.775Z" fill="#FDB45C"/>
<path d="M121.279 320.939L132.436 327.406H148.231L159.364 320.939L159.36 311.804L148.231 305.335H132.436L121.279 311.804V320.939Z" fill="#FBD9A2"/>
<path d="M123.096 313.29V320.513L133.198 326.367H147.462L157.558 320.506V313.29L147.462 307.438H133.198L123.096 313.29Z" fill="#F9C166"/>
<path d="M123.096 312.217V313.29L133.198 307.439H147.462L157.558 313.29V312.217L147.462 306.397L133.198 306.399L123.096 312.217Z" fill="#FDB45C"/>
<g clip-path="url(#clip4_867_5922)">
<path d="M138.043 317.203L147.351 311.829L145.137 319.015L138.043 317.203Z" fill="#1A1E42"/>
<path d="M137.11 317.741L131.867 320.768L144.212 319.55L137.11 317.741Z" fill="#1A1E42"/>
<path d="M138.043 317.203L147.351 311.829L134.903 313.107L138.043 317.203Z" fill="#272C59"/>
<path d="M137.11 317.742L131.867 320.768L133.977 313.642L137.11 317.742Z" fill="#272C59"/>
</g>
<path d="M262.761 259.801L262.758 255.398C262.758 255.332 262.741 255.267 262.708 255.209C262.675 255.152 262.627 255.104 262.57 255.071L257.206 251.953C257.149 251.92 257.083 251.902 257.017 251.902H249.405C249.338 251.902 249.273 251.92 249.216 251.953L243.839 255.071C243.781 255.104 243.734 255.152 243.701 255.209C243.668 255.267 243.65 255.332 243.65 255.398V261.904C243.65 261.97 243.668 262.035 243.701 262.093C243.734 262.15 243.781 262.198 243.839 262.231L249.216 265.351C249.224 265.356 249.234 265.358 249.243 265.363C249.254 265.368 249.264 265.372 249.275 265.376C249.316 265.392 249.36 265.401 249.405 265.402H257.017C257.062 265.401 257.106 265.392 257.147 265.376C257.158 265.372 257.168 265.368 257.178 265.363C257.187 265.359 257.197 265.356 257.206 265.351L262.572 262.231C262.63 262.198 262.677 262.15 262.71 262.093C262.743 262.035 262.761 261.97 262.761 261.904V259.801L262.76 259.801L262.761 259.801Z" fill="#231F20"/>
<path d="M257.017 265.024L262.383 261.904V259.802L256.146 261.603L257.017 265.024Z" fill="#F9C166"/>
<path d="M249.404 265.024L244.027 261.904V259.802L250.166 261.816L249.404 265.024Z" fill="#F9C166"/>
<path d="M249.404 265.024H257.017V262.918L253.429 261.603L249.404 262.918V265.024Z" fill="#FDB45C"/>
<path d="M244.027 259.801L249.404 262.918H257.017L262.383 259.801L262.381 255.398L257.017 252.28H249.404L244.027 255.398V259.801Z" fill="#FBD9A2"/>
<path d="M244.903 256.115V259.596L249.772 262.418H256.647L261.512 259.593V256.115L256.647 253.295H249.772L244.903 256.115Z" fill="#F9C166"/>
<path d="M244.903 255.598V256.115L249.772 253.295H256.647L261.512 256.115V255.598L256.647 252.793L249.772 252.794L244.903 255.598Z" fill="#FDB45C"/>
<g clip-path="url(#clip5_867_5922)">
<path d="M252.84 257.675L256.761 255.411L255.829 258.438L252.84 257.675Z" fill="#1A1E42"/>
<path d="M252.447 257.902L250.239 259.176L255.439 258.663L252.447 257.902Z" fill="#1A1E42"/>
<path d="M252.84 257.675L256.761 255.411L251.518 255.95L252.84 257.675Z" fill="#272C59"/>
<path d="M252.447 257.902L250.239 259.177L251.128 256.175L252.447 257.902Z" fill="#272C59"/>
</g>
<defs>
<filter id="filter0_f_867_5922" x="8.70837" y="164.758" width="237.402" height="157.967" filterUnits="userSpaceOnUse" color-interpolation-filters="sRGB">
<feFlood flood-opacity="0" result="BackgroundImageFix"/>
<feBlend mode="normal" in="SourceGraphic" in2="BackgroundImageFix" result="shape"/>
<feGaussianBlur stdDeviation="10" result="effect1_foregroundBlur_867_5922"/>
</filter>
<filter id="filter1_f_867_5922" x="69.4966" y="261.27" width="34.7211" height="23.2529" filterUnits="userSpaceOnUse" color-interpolation-filters="sRGB">
<feFlood flood-opacity="0" result="BackgroundImageFix"/>
<feBlend mode="normal" in="SourceGraphic" in2="BackgroundImageFix" result="shape"/>
<feGaussianBlur stdDeviation="2" result="effect1_foregroundBlur_867_5922"/>
</filter>
<filter id="filter2_f_867_5922" x="239.535" y="250.687" width="27.3551" height="19.0479" filterUnits="userSpaceOnUse" color-interpolation-filters="sRGB">
<feFlood flood-opacity="0" result="BackgroundImageFix"/>
<feBlend mode="normal" in="SourceGraphic" in2="BackgroundImageFix" result="shape"/>
<feGaussianBlur stdDeviation="2" result="effect1_foregroundBlur_867_5922"/>
</filter>
<filter id="filter3_f_867_5922" x="256.999" y="287.982" width="37.8757" height="25.0537" filterUnits="userSpaceOnUse" color-interpolation-filters="sRGB">
<feFlood flood-opacity="0" result="BackgroundImageFix"/>
<feBlend mode="normal" in="SourceGraphic" in2="BackgroundImageFix" result="shape"/>
<feGaussianBlur stdDeviation="2" result="effect1_foregroundBlur_867_5922"/>
</filter>
<filter id="filter4_f_867_5922" x="116.258" y="306.326" width="48.1589" height="30.9238" filterUnits="userSpaceOnUse" color-interpolation-filters="sRGB">
<feFlood flood-opacity="0" result="BackgroundImageFix"/>
<feBlend mode="normal" in="SourceGraphic" in2="BackgroundImageFix" result="shape"/>
<feGaussianBlur stdDeviation="2" result="effect1_foregroundBlur_867_5922"/>
</filter>
<clipPath id="clip0_867_5922">
<rect width="18.9844" height="39.4095" fill="white" transform="translate(83.4166 65.3818) rotate(-12.3129)"/>
</clipPath>
<clipPath id="clip1_867_5922">
<rect width="12.666" height="15.7083" fill="white" transform="translate(154.917 211.375)"/>
</clipPath>
<clipPath id="clip2_867_5922">
<rect width="122.607" height="81.0753" fill="white" transform="translate(1.625 155.583)"/>
</clipPath>
<clipPath id="clip3_867_5922">
<rect width="24.0886" height="37.6123" fill="white" transform="translate(151.125 29.917)"/>
</clipPath>
<clipPath id="clip4_867_5922">
<rect width="11.8179" height="17.8783" fill="white" transform="matrix(0.866044 0.499967 -0.866044 0.499967 142.233 308.875)"/>
</clipPath>
<clipPath id="clip5_867_5922">
<rect width="4.97807" height="7.53092" fill="white" transform="matrix(0.866044 0.499967 -0.866044 0.499967 254.605 254.167)"/>
</clipPath>
</defs>
</svg>
