<svg width="150" height="32" viewBox="0 0 150 32" fill="none" xmlns="http://www.w3.org/2000/svg">
<g clip-path="url(#clip0_947_17405)">
<path d="M41.6536 23.3026C40.3354 23.3026 39.6763 22.6481 39.6763 21.3392V10.6958C39.6763 9.38687 40.3354 8.73242 41.6536 8.73242H46.6794C48.2441 8.73242 49.4559 9.07351 50.3146 9.75567C51.1733 10.4378 51.6025 11.351 51.6021 12.4952C51.6021 13.2533 51.4132 13.9147 51.0355 14.4793C50.6577 15.0438 50.1325 15.4641 49.46 15.7399C50.2702 15.9879 50.895 16.4045 51.3344 16.9896C51.7738 17.5746 51.9935 18.3013 51.9935 19.1697C51.9935 20.4513 51.5368 21.4606 50.6235 22.1976C49.7102 22.9346 48.4648 23.303 46.8873 23.303L41.6536 23.3026ZM43.3024 14.5191H46.0006C46.6869 14.5191 47.1914 14.3951 47.5143 14.1471C47.8371 13.8991 47.9979 13.5202 47.9966 13.0105C47.9966 12.501 47.8352 12.1256 47.5124 11.8844C47.1895 11.6431 46.685 11.5224 45.9987 11.5224H43.3024V14.5191ZM43.3024 20.5125H46.3714C47.0717 20.5125 47.5826 20.3783 47.9042 20.1098C48.2258 19.8413 48.3872 19.4382 48.3885 18.9005C48.3885 18.3632 48.227 17.9636 47.9042 17.7018C47.5813 17.4401 47.0704 17.3092 46.3714 17.3092H43.3024V20.5125Z" fill="#667085"/>
<path d="M56.1005 11.4813C55.4548 11.4813 54.957 11.3297 54.607 11.0266C54.257 10.7235 54.0814 10.2826 54.0801 9.70395C54.0801 9.13938 54.2557 8.70537 54.607 8.40194C54.9583 8.0985 55.4561 7.94695 56.1005 7.94727C57.46 7.94727 58.1397 8.53283 58.1397 9.70395C58.1397 10.2826 57.964 10.7235 57.6128 11.0266C57.2615 11.3297 56.7574 11.4813 56.1005 11.4813ZM56.1005 23.4888C55.5098 23.4888 55.06 23.3165 54.7512 22.9721C54.4424 22.6276 54.288 22.131 54.288 21.4821V14.9533C54.288 14.3058 54.4424 13.8091 54.7512 13.4634C55.06 13.1177 55.5098 12.9454 56.1005 12.9467C56.6907 12.9467 57.1472 13.1189 57.47 13.4634C57.7929 13.8078 57.9543 14.3045 57.9543 14.9533V21.485C57.9543 22.1329 57.7964 22.6296 57.4806 22.975C57.1647 23.3204 56.7047 23.4916 56.1005 23.4888Z" fill="#667085"/>
<path d="M65.8919 23.528C64.3543 23.528 63.2146 23.1698 62.4727 22.4533C61.7309 21.7369 61.3603 20.6553 61.361 19.2086V15.8399H60.6607C59.7403 15.8399 59.2802 15.3853 59.2802 14.4759C59.2802 13.5807 59.7403 13.1329 60.6607 13.1326H61.361V11.8512C61.361 11.2453 61.5187 10.7838 61.8342 10.4665C62.1497 10.1493 62.6029 9.99089 63.1936 9.99121C64.4161 9.99121 65.0273 10.6112 65.0273 11.8512V13.1326H66.7158C67.6499 13.1326 68.1169 13.5804 68.1169 14.4759C68.1169 15.3853 67.6499 15.8399 66.7158 15.8399H65.0273V19.0846C65.0273 20.0779 65.5283 20.5746 66.5304 20.5746C66.7177 20.5751 66.9044 20.5543 67.087 20.5126C67.2488 20.4733 67.4145 20.4525 67.5809 20.4506C67.6793 20.4402 67.7787 20.4525 67.8716 20.4865C67.9645 20.5206 68.0484 20.5755 68.1169 20.6471C68.2539 20.7917 68.3224 21.1188 68.3224 21.6286C68.3224 22.0419 68.2606 22.3899 68.137 22.6725C68.0134 22.9551 67.7939 23.1582 67.4784 23.2819C67.2236 23.3652 66.9615 23.4241 66.6957 23.4578C66.4297 23.4997 66.1611 23.5232 65.8919 23.528Z" fill="#667085"/>
<path d="M74.9241 23.529C73.7841 23.529 72.7919 23.3155 71.9476 22.8883C71.1271 22.483 70.4438 21.8441 69.9831 21.0514C69.5163 20.2526 69.2828 19.3019 69.2828 18.1994C69.2828 17.0968 69.5163 16.1489 69.9831 15.3555C70.4442 14.5678 71.1276 13.9349 71.9471 13.5368C72.7917 13.1164 73.7839 12.9062 74.9236 12.9062C75.3449 12.9084 75.7652 12.9465 76.1801 13.0202C76.6488 13.105 77.1053 13.2472 77.5395 13.4436C77.855 13.5676 78.0816 13.7571 78.2192 14.0122C78.3553 14.2617 78.416 14.5456 78.3941 14.8292C78.3769 15.1074 78.292 15.377 78.1469 15.6146C78.0124 15.841 77.7999 16.0101 77.5496 16.0899C77.2941 16.1726 77.0092 16.1381 76.695 15.9866C76.2626 15.7847 75.7919 15.679 75.315 15.6766C74.5869 15.6766 74.0239 15.897 73.626 16.3379C73.2281 16.7788 73.029 17.3988 73.0287 18.1979C73.0287 19.0111 73.2278 19.6416 73.626 20.0892C74.0242 20.5368 74.5872 20.7611 75.315 20.7621C75.5434 20.7612 75.7711 20.737 75.9947 20.69C76.2368 20.6378 76.4718 20.5571 76.695 20.4497C77.0246 20.2984 77.3094 20.2675 77.5496 20.3569C77.7887 20.4465 77.991 20.6138 78.1244 20.8322C78.2705 21.0655 78.3556 21.332 78.3715 21.607C78.3935 21.8906 78.3328 22.1745 78.1967 22.4241C78.0591 22.6804 77.8256 22.8698 77.4964 22.9922C77.0678 23.1867 76.6175 23.3291 76.1552 23.4161C75.7489 23.4895 75.337 23.5273 74.9241 23.529Z" fill="#667085"/>
<path d="M85.1256 23.528C83.9999 23.528 83.0181 23.3145 82.1801 22.8873C81.363 22.48 80.6828 21.8414 80.2234 21.0504C79.7568 20.2494 79.5234 19.3041 79.5231 18.2147C79.5231 17.1128 79.7565 16.1656 80.2234 15.3733C80.6851 14.586 81.3649 13.9505 82.1801 13.544C83.0178 13.1172 83.9996 12.9036 85.1256 12.9033C86.2515 12.903 87.2333 13.1166 88.071 13.544C88.8848 13.9488 89.5618 14.585 90.0177 15.3733C90.4775 16.1653 90.7074 17.1125 90.7074 18.2147C90.7074 19.3041 90.4775 20.2479 90.0177 21.0461C89.5644 21.8389 88.8869 22.479 88.071 22.8854C87.2337 23.3135 86.2519 23.5277 85.1256 23.528ZM85.1256 20.8207C85.384 20.8265 85.6405 20.7737 85.8758 20.6664C86.1112 20.559 86.3194 20.3999 86.485 20.2006C86.8423 19.7873 87.0208 19.126 87.0205 18.2166C87.0205 17.2938 86.842 16.6291 86.485 16.2225C86.128 15.8159 85.6748 15.6126 85.1256 15.6126C84.5629 15.6126 84.1029 15.8159 83.7455 16.2225C83.3882 16.6291 83.2097 17.2932 83.21 18.2147C83.21 19.124 83.3885 19.7854 83.7455 20.1987C84.1026 20.6121 84.5626 20.8194 85.1256 20.8207Z" fill="#667085"/>
<path d="M94.4478 11.4813C93.8021 11.4813 93.3043 11.3297 92.9543 11.0266C92.6043 10.7235 92.4286 10.2826 92.4274 9.70395C92.4274 9.13938 92.603 8.70537 92.9543 8.40194C93.3055 8.0985 93.8034 7.94695 94.4478 7.94727C95.8072 7.94727 96.487 8.53283 96.487 9.70395C96.487 10.2826 96.3113 10.7235 95.9601 11.0266C95.6088 11.3297 95.1047 11.4813 94.4478 11.4813ZM94.4478 23.4888C93.8574 23.4888 93.4076 23.3165 93.0985 22.9721C92.7893 22.6276 92.6349 22.131 92.6353 21.4821V14.9533C92.6353 14.3058 92.7897 13.8091 93.0985 13.4634C93.4073 13.1177 93.857 12.9454 94.4478 12.9467C95.038 12.9467 95.4945 13.1189 95.8173 13.4634C96.1402 13.8078 96.3016 14.3045 96.3016 14.9533V21.485C96.3016 22.1329 96.1437 22.6296 95.8278 22.975C95.512 23.3204 95.052 23.4916 94.4478 23.4888Z" fill="#667085"/>
<path d="M100.563 23.4877C99.9726 23.4877 99.523 23.3292 99.2142 23.0123C98.9054 22.6955 98.7508 22.2341 98.7505 21.6281V14.7869C98.7505 13.5607 99.3478 12.9476 100.542 12.9476C101.628 12.9476 102.219 13.478 102.315 14.5389C102.654 14.0192 103.127 13.6014 103.684 13.3302C104.254 13.0476 104.889 12.9062 105.59 12.9062C106.798 12.9062 107.694 13.2645 108.278 13.9809C108.862 14.6974 109.154 15.7996 109.153 17.2876V21.6281C109.153 22.2347 108.995 22.6963 108.679 23.0128C108.364 23.3294 107.91 23.4878 107.32 23.4882C106.729 23.4882 106.276 23.3297 105.961 23.0128C105.645 22.6959 105.486 22.2344 105.486 21.6281V17.4323C105.486 16.8123 105.379 16.3714 105.166 16.1096C104.953 15.8478 104.641 15.7168 104.229 15.7165C103.68 15.7165 103.24 15.8927 102.911 16.2452C102.582 16.5976 102.417 17.0694 102.417 17.6606V21.6281C102.417 22.8678 101.799 23.4877 100.563 23.4877Z" fill="#667085"/>
<path d="M112.998 23.3004C112.394 23.3004 111.958 23.1593 111.69 22.877C111.422 22.5947 111.288 22.1782 111.288 21.6274C111.282 21.2675 111.367 20.9119 111.536 20.594C111.719 20.2665 111.947 19.9669 112.215 19.7044L115.819 15.9224C116.355 15.3578 116.736 14.8653 116.962 14.4449C117.189 14.0245 117.302 13.608 117.302 13.1953C117.302 12.1485 116.636 11.6249 115.304 11.6246C114.947 11.6284 114.591 11.6736 114.243 11.7592C113.831 11.8625 113.433 12.0187 113.059 12.2239C112.689 12.4031 112.352 12.4548 112.05 12.3792C111.759 12.3101 111.498 12.1465 111.309 11.9139C111.118 11.6832 110.993 11.4045 110.948 11.1079C110.9 10.8016 110.947 10.488 111.082 10.2092C111.219 9.91278 111.466 9.66814 111.824 9.47525C112.446 9.14836 113.107 8.90192 113.79 8.74182C114.462 8.58419 115.15 8.50436 115.84 8.50391C117.515 8.50391 118.796 8.86902 119.681 9.59925C120.567 10.3295 121.01 11.3835 121.01 12.7613C121.011 13.6372 120.807 14.5011 120.413 15.2826C120.014 16.0818 119.348 16.9429 118.415 17.866L116.068 20.2211H120.166C121.21 20.2211 121.732 20.7308 121.732 21.7504C121.732 22.7838 121.21 23.3004 120.166 23.3004H112.998Z" fill="#667085"/>
<path d="M131.156 23.5297C129.495 23.5297 128.084 23.2197 126.923 22.5997C125.762 21.9797 124.88 21.1113 124.276 19.9947C123.672 18.8787 123.37 17.5767 123.37 16.0886C123.37 14.5458 123.689 13.206 124.328 12.0692C124.967 10.9323 125.883 10.0539 127.078 9.43392C128.272 8.81391 129.714 8.50391 131.403 8.50391C132.108 8.50587 132.811 8.57166 133.504 8.70048C134.238 8.83795 134.947 9.08552 135.607 9.43488C135.964 9.60021 136.208 9.83107 136.338 10.1275C136.469 10.4223 136.512 10.7488 136.462 11.0676C136.419 11.3865 136.295 11.6891 136.102 11.9461C135.914 12.1985 135.65 12.3838 135.35 12.4748C135.041 12.571 134.687 12.5296 134.289 12.3508C133.437 11.9516 132.483 11.7518 131.426 11.7515C130.039 11.7515 129.006 12.1235 128.326 12.8675C127.647 13.6115 127.307 14.6862 127.306 16.0915C127.306 17.4969 127.65 18.5578 128.336 19.2742C129.023 19.9907 130.039 20.3489 131.385 20.3489C132.016 20.3489 132.723 20.2528 133.506 20.0605V17.7636H132.063C131.087 17.7636 130.6 17.3158 130.6 16.4203C130.6 15.5388 131.088 15.0979 132.063 15.0976H135.111C136.101 15.0976 136.596 15.5942 136.596 16.5875V21.1535C136.596 21.5668 136.51 21.9181 136.338 22.2075C136.166 22.4968 135.895 22.7035 135.524 22.8275C134.114 23.2905 132.641 23.5276 131.157 23.5302L131.156 23.5297Z" fill="#667085"/>
<path d="M144.418 23.528C143.292 23.528 142.31 23.3145 141.473 22.8873C140.655 22.4801 139.975 21.8415 139.516 21.0504C139.05 20.2494 138.816 19.3041 138.816 18.2147C138.816 17.1128 139.05 16.1656 139.517 15.3733C139.978 14.586 140.658 13.9505 141.473 13.544C142.311 13.1172 143.293 12.9036 144.419 12.9033C145.545 12.903 146.526 13.1166 147.364 13.544C148.178 13.9488 148.855 14.585 149.311 15.3733C149.771 16.1653 150.001 17.1125 150.001 18.2147C150.001 19.3041 149.771 20.2479 149.311 21.0461C148.858 21.8389 148.18 22.479 147.364 22.8854C146.526 23.3135 145.544 23.5277 144.418 23.528ZM144.418 20.8207C144.676 20.8265 144.933 20.7737 145.168 20.6664C145.404 20.559 145.612 20.3999 145.777 20.2006C146.134 19.7873 146.313 19.126 146.313 18.2166C146.313 17.2938 146.134 16.6291 145.777 16.2225C145.42 15.8159 144.967 15.6126 144.418 15.6126C143.855 15.6126 143.395 15.8159 143.038 16.2225C142.681 16.6291 142.503 17.2932 142.505 18.2147C142.505 19.124 142.683 19.7854 143.04 20.1987C143.397 20.6121 143.857 20.8194 144.418 20.8207Z" fill="#667085"/>
<path opacity="0.9" d="M15.9462 32C24.753 32 31.8924 24.8366 31.8924 16C31.8924 7.16344 24.753 0 15.9462 0C7.13935 0 0 7.16344 0 16C0 24.8366 7.13935 32 15.9462 32Z" fill="url(#paint0_radial_947_17405)"/>
<path d="M24.0333 17.3333C23.4288 16.5288 22.5698 15.9559 21.4563 15.6146C22.3808 15.2359 23.103 14.6582 23.6228 13.8815C24.1427 13.1048 24.4022 12.1955 24.4012 11.1535C24.4012 9.58343 23.8114 8.32852 22.6318 7.38874C21.4521 6.44896 19.786 5.98019 17.6333 5.98243H10.7236C8.91169 5.98243 8.00557 6.88232 8.00525 8.6821V23.3147C8.00525 25.1142 8.91137 26.0139 10.7236 26.0139H17.915C20.0865 26.0139 21.7997 25.5072 23.0547 24.4937C24.3097 23.4802 24.9376 22.0927 24.9382 20.331C24.9391 19.1378 24.6375 18.1386 24.0333 17.3333Z" fill="url(#paint1_linear_947_17405)"/>
<mask id="mask0_947_17405" style="mask-type:luminance" maskUnits="userSpaceOnUse" x="8" y="5" width="17" height="22">
<path d="M24.0333 17.3333C23.4288 16.5288 22.5698 15.9559 21.4563 15.6146C22.3808 15.2359 23.103 14.6582 23.6228 13.8815C24.1427 13.1048 24.4022 12.1955 24.4012 11.1535C24.4012 9.58343 23.8114 8.32852 22.6318 7.38874C21.4521 6.44896 19.786 5.98019 17.6333 5.98243H10.7236C8.91169 5.98243 8.00557 6.88232 8.00525 8.6821V23.3147C8.00525 25.1142 8.91137 26.0139 10.7236 26.0139H17.915C20.0865 26.0139 21.7997 25.5072 23.0547 24.4937C24.3097 23.4802 24.9376 22.0927 24.9382 20.331C24.9391 19.1378 24.6375 18.1386 24.0333 17.3333Z" fill="white"/>
</mask>
<g mask="url(#mask0_947_17405)">
<path d="M26.8481 10.1924C16.0919 9.03361 15.074 16.0411 7.62881 17.0437C7.1498 17.1081 6.24687 17.1182 5.69409 17.0591V22.3162C6.24687 22.3748 7.14932 22.3642 7.62881 22.3003C15.074 21.2977 16.0919 14.2888 26.8481 15.449V10.1924Z" fill="#667085"/>
<path d="M28.2956 -1.20957C17.5394 -2.37028 16.5215 4.63915 9.07632 5.64173C8.59731 5.70614 7.69438 5.71623 7.1416 5.65711V11.8221C7.69438 11.8807 8.59683 11.8701 9.07632 11.8062C16.5215 10.8041 17.5394 3.79565 28.2956 4.9554V-1.20957Z" fill="#667085"/>
<path d="M26.4682 20.388C15.7116 19.2278 14.6941 26.2367 7.24892 27.2393C6.76992 27.3037 5.86698 27.3143 5.31421 27.2552V33.4201C5.86698 33.4792 6.76944 33.4682 7.24892 33.4043C14.6941 32.4022 15.7116 25.3927 26.4682 26.5534V20.388Z" fill="#667085"/>
</g>
<path d="M12.8374 8.3165C12.2914 8.3165 11.8694 8.16702 11.5714 7.86808C11.2735 7.56913 11.1245 7.13336 11.1245 6.56078V5.48081C11.1245 4.90791 11.2735 4.47198 11.5714 4.17303C11.8694 3.87408 12.2914 3.72461 12.8374 3.72461C13.3835 3.72461 13.8055 3.87392 14.1035 4.17255C14.4014 4.47118 14.5504 4.90727 14.5504 5.48081V6.56174C14.5504 7.13464 14.4044 7.57041 14.1126 7.86904C13.8207 8.16767 13.3956 8.31682 12.8374 8.3165Z" fill="#667085"/>
<path d="M18.0941 24.4092C18.6404 24.4092 19.0625 24.5587 19.3601 24.8576C19.6577 25.1565 19.8067 25.5925 19.807 26.1654V26.5201C19.807 27.093 19.658 27.5289 19.3601 27.8279C19.0621 28.1268 18.6401 28.2763 18.0941 28.2763C17.548 28.2763 17.126 28.1268 16.828 27.8279C16.5301 27.5289 16.3814 27.093 16.3821 26.5201V26.1654C16.3821 25.5925 16.528 25.1565 16.8199 24.8576C17.1118 24.5587 17.5365 24.4092 18.0941 24.4092Z" fill="#667085"/>
<path d="M11.5311 27.8269C11.8291 28.1259 12.2511 28.2753 12.7972 28.2753C13.3432 28.2753 13.8031 28.1259 14.1034 27.8269C14.4038 27.528 14.5503 27.092 14.5503 26.5191V24.5409C14.5537 24.2997 14.5206 24.0594 14.4521 23.8281C13.3806 24.6043 12.2875 25.3786 11.0842 26.0034V26.5201C11.0842 27.093 11.2332 27.5286 11.5311 27.8269Z" fill="#667085"/>
<path d="M19.3601 4.17255C19.0621 3.87392 18.6401 3.72461 18.0941 3.72461C17.548 3.72461 17.126 3.87392 16.828 4.17255C16.5307 4.4715 16.3821 4.90759 16.3821 5.48081V6.56174C16.3821 7.13464 16.5311 7.57041 16.829 7.86904C16.8558 7.89595 16.8841 7.92094 16.9128 7.94546C17.8105 7.30815 18.7436 6.68958 19.8079 6.17387V5.48081C19.8076 4.90855 19.6583 4.47246 19.3601 4.17255Z" fill="#667085"/>
</g>
<defs>
<radialGradient id="paint0_radial_947_17405" cx="0" cy="0" r="1" gradientUnits="userSpaceOnUse" gradientTransform="translate(15.9462 16) scale(15.9462 16)">
<stop stop-color="#98A2B3" stop-opacity="0.1"/>
<stop offset="0.2" stop-color="#2E2E2E" stop-opacity="0.13"/>
<stop offset="0.2001" stop-color="#98A2B3" stop-opacity="0.138437"/>
<stop offset="0.3999" stop-color="#98A2B3" stop-opacity="0.211925"/>
<stop offset="0.4" stop-color="#98A2B3" stop-opacity="0.22"/>
<stop offset="0.697917" stop-color="#98A2B3" stop-opacity="0.36"/>
<stop offset="0.81" stop-color="#98A2B3" stop-opacity="0.57"/>
<stop offset="1" stop-color="#98A2B3" stop-opacity="0.8"/>
</radialGradient>
<linearGradient id="paint1_linear_947_17405" x1="8.00525" y1="15.9982" x2="24.9382" y2="15.9982" gradientUnits="userSpaceOnUse">
<stop stop-color="#98A2B3" stop-opacity="0.1"/>
<stop offset="0.17" stop-color="#98A2B3" stop-opacity="0.13"/>
<stop offset="0.35" stop-color="#98A2B3" stop-opacity="0.22"/>
<stop offset="0.53" stop-color="#98A2B3" stop-opacity="0.36"/>
<stop offset="0.71" stop-color="#98A2B3" stop-opacity="0.57"/>
<stop offset="0.9" stop-color="#98A2B3" stop-opacity="0.83"/>
<stop offset="1" stop-color="#98A2B3"/>
</linearGradient>
<clipPath id="clip0_947_17405">
<rect width="150" height="32" fill="white"/>
</clipPath>
</defs>
</svg>
