<svg width="170" height="40" viewBox="0 0 170 40" fill="none" xmlns="http://www.w3.org/2000/svg">
<g clip-path="url(#clip0_867_5737)">
<path d="M39.3996 24.8385C36.7284 35.5529 25.8765 42.0735 15.1609 39.4016C4.4496 36.7304 -2.07102 25.8779 0.601479 15.1641C3.27148 4.4485 14.1234 -2.07275 24.8359 0.598497C35.5509 3.26975 42.0709 14.1235 39.3996 24.8385Z" fill="#98A2B3"/>
<path d="M28.8184 17.1506C29.2165 14.4894 27.1902 13.0588 24.4196 12.1044L25.3184 8.49938L23.124 7.9525L22.249 11.4625C21.6721 11.3188 21.0796 11.1831 20.4909 11.0488L21.3721 7.51563L19.179 6.96875L18.2796 10.5725C17.8021 10.4638 17.3334 10.3563 16.8784 10.2431L16.8809 10.2319L13.8546 9.47625L13.2709 11.82C13.2709 11.82 14.899 12.1931 14.8646 12.2163C15.7534 12.4381 15.914 13.0263 15.8871 13.4925L14.8634 17.5994C14.9246 17.615 15.004 17.6375 15.0915 17.6725C15.0184 17.6544 14.9402 17.6344 14.8596 17.615L13.4246 23.3681C13.3159 23.6381 13.0402 24.0431 12.419 23.8894C12.4409 23.9213 10.824 23.4913 10.824 23.4913L9.73462 26.0031L12.5902 26.715C13.1215 26.8481 13.6421 26.9875 14.1546 27.1188L13.2465 30.765L15.4384 31.3119L16.3377 27.7044C16.9365 27.8669 17.5177 28.0169 18.0865 28.1581L17.1902 31.7488L19.3846 32.2956L20.2927 28.6563C24.0346 29.3644 26.8484 29.0788 28.0327 25.6944C28.9871 22.9694 27.9852 21.3975 26.0165 20.3725C27.4502 20.0419 28.5302 19.0988 28.8184 17.1506ZM23.8046 24.1813C23.1265 26.9063 18.5384 25.4331 17.0509 25.0638L18.2559 20.2331C19.7434 20.6044 24.5134 21.3394 23.8046 24.1813ZM24.4834 17.1113C23.8646 19.59 20.0459 18.3306 18.8071 18.0219L19.8996 13.6406C21.1384 13.9494 25.1277 14.5256 24.4834 17.1113Z" fill="white"/>
</g>
<path d="M48.752 26V24.464H50.256V16.336H48.752V14.8H54.432C55.104 14.8 55.6907 14.9173 56.192 15.152C56.6933 15.376 57.0827 15.7013 57.36 16.128C57.648 16.544 57.792 17.04 57.792 17.616V17.776C57.792 18.288 57.696 18.7093 57.504 19.04C57.312 19.3707 57.0773 19.6267 56.8 19.808C56.5333 19.9893 56.2773 20.1173 56.032 20.192V20.448C56.2773 20.512 56.5387 20.64 56.816 20.832C57.104 21.0133 57.344 21.2693 57.536 21.6C57.7387 21.9307 57.84 22.3627 57.84 22.896V23.056C57.84 23.6747 57.696 24.2027 57.408 24.64C57.12 25.0773 56.72 25.4133 56.208 25.648C55.7067 25.8827 55.1253 26 54.464 26H48.752ZM52 24.432H54.256C54.832 24.432 55.2853 24.2933 55.616 24.016C55.9467 23.7387 56.112 23.3547 56.112 22.864V22.72C56.112 22.2293 55.9467 21.8453 55.616 21.568C55.296 21.2907 54.8427 21.152 54.256 21.152H52V24.432ZM52 19.568H54.256C54.8 19.568 55.2373 19.4347 55.568 19.168C55.8987 18.8907 56.064 18.5173 56.064 18.048V17.888C56.064 17.4187 55.8987 17.0507 55.568 16.784C55.248 16.5067 54.8107 16.368 54.256 16.368H52V19.568ZM59.8254 26V18.112H61.4734V26H59.8254ZM60.6574 17.04C60.3374 17.04 60.0654 16.9387 59.8414 16.736C59.628 16.5227 59.5214 16.2507 59.5214 15.92C59.5214 15.5893 59.628 15.3227 59.8414 15.12C60.0654 14.9067 60.3374 14.8 60.6574 14.8C60.988 14.8 61.26 14.9067 61.4734 15.12C61.6867 15.3227 61.7934 15.5893 61.7934 15.92C61.7934 16.2507 61.6867 16.5227 61.4734 16.736C61.26 16.9387 60.988 17.04 60.6574 17.04ZM66.8791 26C66.3991 26 66.0151 25.856 65.7271 25.568C65.4498 25.28 65.3111 24.896 65.3111 24.416V19.504H63.1351V18.112H65.3111V15.504H66.9591V18.112H69.3111V19.504H66.9591V24.128C66.9591 24.448 67.1085 24.608 67.4071 24.608H69.0551V26H66.8791ZM74.63 26.224C73.8727 26.224 73.1847 26.064 72.566 25.744C71.958 25.424 71.4727 24.96 71.11 24.352C70.758 23.744 70.582 23.0133 70.582 22.16V21.952C70.582 21.0987 70.758 20.3733 71.11 19.776C71.4727 19.168 71.958 18.704 72.566 18.384C73.1847 18.0533 73.8727 17.888 74.63 17.888C75.3873 17.888 76.0327 18.0267 76.566 18.304C77.0993 18.5813 77.526 18.9493 77.846 19.408C78.1767 19.8667 78.39 20.3733 78.486 20.928L76.886 21.264C76.8327 20.912 76.7207 20.592 76.55 20.304C76.3793 20.016 76.1393 19.7867 75.83 19.616C75.5207 19.4453 75.1313 19.36 74.662 19.36C74.2033 19.36 73.7873 19.4667 73.414 19.68C73.0513 19.8827 72.7633 20.1813 72.55 20.576C72.3367 20.96 72.23 21.4293 72.23 21.984V22.128C72.23 22.6827 72.3367 23.1573 72.55 23.552C72.7633 23.9467 73.0513 24.2453 73.414 24.448C73.7873 24.6507 74.2033 24.752 74.662 24.752C75.3553 24.752 75.8833 24.576 76.246 24.224C76.6087 23.8613 76.838 23.4027 76.934 22.848L78.534 23.216C78.406 23.76 78.1767 24.2613 77.846 24.72C77.526 25.1787 77.0993 25.5467 76.566 25.824C76.0327 26.0907 75.3873 26.224 74.63 26.224ZM84.1308 26.224C83.3414 26.224 82.6374 26.064 82.0188 25.744C81.4108 25.4133 80.9308 24.944 80.5788 24.336C80.2268 23.728 80.0508 23.008 80.0508 22.176V21.936C80.0508 21.104 80.2268 20.3893 80.5788 19.792C80.9308 19.184 81.4108 18.7147 82.0188 18.384C82.6374 18.0533 83.3414 17.888 84.1308 17.888C84.9201 17.888 85.6241 18.0533 86.2428 18.384C86.8614 18.7147 87.3468 19.184 87.6988 19.792C88.0508 20.3893 88.2268 21.104 88.2268 21.936V22.176C88.2268 23.008 88.0508 23.728 87.6988 24.336C87.3468 24.944 86.8614 25.4133 86.2428 25.744C85.6241 26.064 84.9201 26.224 84.1308 26.224ZM84.1308 24.752C84.8561 24.752 85.4428 24.5227 85.8908 24.064C86.3494 23.5947 86.5788 22.9493 86.5788 22.128V21.984C86.5788 21.1627 86.3548 20.5227 85.9068 20.064C85.4588 19.5947 84.8668 19.36 84.1308 19.36C83.4161 19.36 82.8294 19.5947 82.3708 20.064C81.9228 20.5227 81.6988 21.1627 81.6988 21.984V22.128C81.6988 22.9493 81.9228 23.5947 82.3708 24.064C82.8294 24.5227 83.4161 24.752 84.1308 24.752ZM90.2785 26V18.112H91.9265V26H90.2785ZM91.1105 17.04C90.7905 17.04 90.5185 16.9387 90.2945 16.736C90.0812 16.5227 89.9745 16.2507 89.9745 15.92C89.9745 15.5893 90.0812 15.3227 90.2945 15.12C90.5185 14.9067 90.7905 14.8 91.1105 14.8C91.4412 14.8 91.7132 14.9067 91.9265 15.12C92.1398 15.3227 92.2465 15.5893 92.2465 15.92C92.2465 16.2507 92.1398 16.5227 91.9265 16.736C91.7132 16.9387 91.4412 17.04 91.1105 17.04ZM94.3723 26V18.112H95.9883V19.296H96.2443C96.3936 18.976 96.6603 18.6773 97.0443 18.4C97.4283 18.1227 97.9989 17.984 98.7563 17.984C99.3536 17.984 99.8816 18.1173 100.34 18.384C100.81 18.6507 101.178 19.0293 101.444 19.52C101.711 20 101.844 20.5813 101.844 21.264V26H100.196V21.392C100.196 20.7093 100.026 20.208 99.6843 19.888C99.3429 19.5573 98.8736 19.392 98.2763 19.392C97.5936 19.392 97.0443 19.616 96.6283 20.064C96.2229 20.512 96.0203 21.1627 96.0203 22.016V26H94.3723ZM111.958 26.224C111.201 26.224 110.513 26.064 109.894 25.744C109.286 25.424 108.801 24.96 108.438 24.352C108.086 23.744 107.91 23.0133 107.91 22.16V21.952C107.91 21.0987 108.086 20.3733 108.438 19.776C108.801 19.168 109.286 18.704 109.894 18.384C110.513 18.0533 111.201 17.888 111.958 17.888C112.715 17.888 113.361 18.0267 113.894 18.304C114.427 18.5813 114.854 18.9493 115.174 19.408C115.505 19.8667 115.718 20.3733 115.814 20.928L114.214 21.264C114.161 20.912 114.049 20.592 113.878 20.304C113.707 20.016 113.467 19.7867 113.158 19.616C112.849 19.4453 112.459 19.36 111.99 19.36C111.531 19.36 111.115 19.4667 110.742 19.68C110.379 19.8827 110.091 20.1813 109.878 20.576C109.665 20.96 109.558 21.4293 109.558 21.984V22.128C109.558 22.6827 109.665 23.1573 109.878 23.552C110.091 23.9467 110.379 24.2453 110.742 24.448C111.115 24.6507 111.531 24.752 111.99 24.752C112.683 24.752 113.211 24.576 113.574 24.224C113.937 23.8613 114.166 23.4027 114.262 22.848L115.862 23.216C115.734 23.76 115.505 24.2613 115.174 24.72C114.854 25.1787 114.427 25.5467 113.894 25.824C113.361 26.0907 112.715 26.224 111.958 26.224ZM121.459 26.224C120.67 26.224 119.966 26.064 119.347 25.744C118.739 25.4133 118.259 24.944 117.907 24.336C117.555 23.728 117.379 23.008 117.379 22.176V21.936C117.379 21.104 117.555 20.3893 117.907 19.792C118.259 19.184 118.739 18.7147 119.347 18.384C119.966 18.0533 120.67 17.888 121.459 17.888C122.248 17.888 122.952 18.0533 123.571 18.384C124.19 18.7147 124.675 19.184 125.027 19.792C125.379 20.3893 125.555 21.104 125.555 21.936V22.176C125.555 23.008 125.379 23.728 125.027 24.336C124.675 24.944 124.19 25.4133 123.571 25.744C122.952 26.064 122.248 26.224 121.459 26.224ZM121.459 24.752C122.184 24.752 122.771 24.5227 123.219 24.064C123.678 23.5947 123.907 22.9493 123.907 22.128V21.984C123.907 21.1627 123.683 20.5227 123.235 20.064C122.787 19.5947 122.195 19.36 121.459 19.36C120.744 19.36 120.158 19.5947 119.699 20.064C119.251 20.5227 119.027 21.1627 119.027 21.984V22.128C119.027 22.9493 119.251 23.5947 119.699 24.064C120.158 24.5227 120.744 24.752 121.459 24.752ZM127.607 26V18.112H129.223V19.04H129.479C129.607 18.7093 129.809 18.4693 130.087 18.32C130.375 18.16 130.727 18.08 131.143 18.08H132.087V19.568H131.079C130.545 19.568 130.108 19.7173 129.767 20.016C129.425 20.304 129.255 20.752 129.255 21.36V26H127.607ZM137.129 26.224C136.329 26.224 135.63 26.0587 135.033 25.728C134.436 25.3867 133.966 24.912 133.625 24.304C133.294 23.6853 133.129 22.9707 133.129 22.16V21.968C133.129 21.1467 133.294 20.432 133.625 19.824C133.956 19.2053 134.414 18.7307 135.001 18.4C135.598 18.0587 136.286 17.888 137.065 17.888C137.822 17.888 138.484 18.0587 139.049 18.4C139.625 18.7307 140.073 19.1947 140.393 19.792C140.713 20.3893 140.873 21.088 140.873 21.888V22.512H134.809C134.83 23.2053 135.06 23.76 135.497 24.176C135.945 24.5813 136.5 24.784 137.161 24.784C137.78 24.784 138.244 24.6453 138.553 24.368C138.873 24.0907 139.118 23.7707 139.289 23.408L140.649 24.112C140.5 24.4107 140.281 24.7253 139.993 25.056C139.716 25.3867 139.348 25.664 138.889 25.888C138.43 26.112 137.844 26.224 137.129 26.224ZM134.825 21.248H139.193C139.15 20.6507 138.937 20.1867 138.553 19.856C138.169 19.5147 137.668 19.344 137.049 19.344C136.43 19.344 135.924 19.5147 135.529 19.856C135.145 20.1867 134.91 20.6507 134.825 21.248Z" fill="#98A2B3"/>
<defs>
<clipPath id="clip0_867_5737">
<rect width="40" height="40" fill="white"/>
</clipPath>
</defs>
</svg>
