<svg width="170" height="40" viewBox="0 0 170 40" fill="none" xmlns="http://www.w3.org/2000/svg">
<g clip-path="url(#clip0_867_5733)">
<path d="M3.43846 14.7168L1.60966 16.5472C-0.48154 18.5344 -0.53274 21.8272 1.45286 23.9184C1.50566 23.9712 1.55686 24.0224 1.60966 24.0752L16.2993 38.9216C16.6657 39.288 17.0305 39.6016 17.5009 39.8096V21.7744L3.43846 14.7168Z" fill="#98A2B3"/>
<path d="M36.5809 14.7168L38.4113 16.5472C40.4497 18.5344 40.5537 21.8272 38.5681 23.9184C38.5153 23.9712 38.4641 24.0224 38.4113 24.0752L23.6689 38.8688C23.3025 39.2352 22.9377 39.5488 22.4673 39.7584V21.7744L36.5809 14.7168Z" fill="#667085"/>
<path d="M33.0257 10.9536L23.8257 1.75358C21.7873 -0.284821 18.4929 -0.337621 16.4545 1.64958C16.4017 1.70238 16.3505 1.70238 16.3505 1.75358L7.09766 10.9536L20.0097 17.384L33.0257 10.9536Z" fill="#D0D5DD"/>
</g>
<path d="M48.752 26V24.464H50.256V16.336H48.752V14.8H54.432C55.104 14.8 55.6907 14.9173 56.192 15.152C56.6933 15.376 57.0827 15.7013 57.36 16.128C57.648 16.544 57.792 17.04 57.792 17.616V17.776C57.792 18.288 57.696 18.7093 57.504 19.04C57.312 19.3707 57.0773 19.6267 56.8 19.808C56.5333 19.9893 56.2773 20.1173 56.032 20.192V20.448C56.2773 20.512 56.5387 20.64 56.816 20.832C57.104 21.0133 57.344 21.2693 57.536 21.6C57.7387 21.9307 57.84 22.3627 57.84 22.896V23.056C57.84 23.6747 57.696 24.2027 57.408 24.64C57.12 25.0773 56.72 25.4133 56.208 25.648C55.7067 25.8827 55.1253 26 54.464 26H48.752ZM52 24.432H54.256C54.832 24.432 55.2853 24.2933 55.616 24.016C55.9467 23.7387 56.112 23.3547 56.112 22.864V22.72C56.112 22.2293 55.9467 21.8453 55.616 21.568C55.296 21.2907 54.8427 21.152 54.256 21.152H52V24.432ZM52 19.568H54.256C54.8 19.568 55.2373 19.4347 55.568 19.168C55.8987 18.8907 56.064 18.5173 56.064 18.048V17.888C56.064 17.4187 55.8987 17.0507 55.568 16.784C55.248 16.5067 54.8107 16.368 54.256 16.368H52V19.568ZM59.8254 26V14.8H61.4734V26H59.8254ZM67.6151 26.224C66.8258 26.224 66.1218 26.064 65.5031 25.744C64.8951 25.4133 64.4151 24.944 64.0631 24.336C63.7111 23.728 63.5351 23.008 63.5351 22.176V21.936C63.5351 21.104 63.7111 20.3893 64.0631 19.792C64.4151 19.184 64.8951 18.7147 65.5031 18.384C66.1218 18.0533 66.8258 17.888 67.6151 17.888C68.4045 17.888 69.1085 18.0533 69.7271 18.384C70.3458 18.7147 70.8311 19.184 71.1831 19.792C71.5351 20.3893 71.7111 21.104 71.7111 21.936V22.176C71.7111 23.008 71.5351 23.728 71.1831 24.336C70.8311 24.944 70.3458 25.4133 69.7271 25.744C69.1085 26.064 68.4045 26.224 67.6151 26.224ZM67.6151 24.752C68.3405 24.752 68.9271 24.5227 69.3751 24.064C69.8338 23.5947 70.0631 22.9493 70.0631 22.128V21.984C70.0631 21.1627 69.8391 20.5227 69.3911 20.064C68.9431 19.5947 68.3511 19.36 67.6151 19.36C66.9005 19.36 66.3138 19.5947 65.8551 20.064C65.4071 20.5227 65.1831 21.1627 65.1831 21.984V22.128C65.1831 22.9493 65.4071 23.5947 65.8551 24.064C66.3138 24.5227 66.9005 24.752 67.6151 24.752ZM77.4269 26.224C76.6695 26.224 75.9815 26.064 75.3629 25.744C74.7549 25.424 74.2695 24.96 73.9069 24.352C73.5549 23.744 73.3789 23.0133 73.3789 22.16V21.952C73.3789 21.0987 73.5549 20.3733 73.9069 19.776C74.2695 19.168 74.7549 18.704 75.3629 18.384C75.9815 18.0533 76.6695 17.888 77.4269 17.888C78.1842 17.888 78.8295 18.0267 79.3629 18.304C79.8962 18.5813 80.3229 18.9493 80.6429 19.408C80.9735 19.8667 81.1869 20.3733 81.2829 20.928L79.6829 21.264C79.6295 20.912 79.5175 20.592 79.3469 20.304C79.1762 20.016 78.9362 19.7867 78.6269 19.616C78.3175 19.4453 77.9282 19.36 77.4589 19.36C77.0002 19.36 76.5842 19.4667 76.2109 19.68C75.8482 19.8827 75.5602 20.1813 75.3469 20.576C75.1335 20.96 75.0269 21.4293 75.0269 21.984V22.128C75.0269 22.6827 75.1335 23.1573 75.3469 23.552C75.5602 23.9467 75.8482 24.2453 76.2109 24.448C76.5842 24.6507 77.0002 24.752 77.4589 24.752C78.1522 24.752 78.6802 24.576 79.0429 24.224C79.4055 23.8613 79.6349 23.4027 79.7309 22.848L81.3309 23.216C81.2029 23.76 80.9735 24.2613 80.6429 24.72C80.3229 25.1787 79.8962 25.5467 79.3629 25.824C78.8295 26.0907 78.1842 26.224 77.4269 26.224ZM83.2316 26V14.8H84.8796V21.184H85.1356L88.2396 18.112H90.4316L86.4476 21.936L90.5596 26H88.3836L85.1356 22.72H84.8796V26H83.2316ZM95.255 26.224C94.4977 26.224 93.8097 26.064 93.191 25.744C92.583 25.424 92.0977 24.96 91.735 24.352C91.383 23.744 91.207 23.0133 91.207 22.16V21.952C91.207 21.0987 91.383 20.3733 91.735 19.776C92.0977 19.168 92.583 18.704 93.191 18.384C93.8097 18.0533 94.4977 17.888 95.255 17.888C96.0123 17.888 96.6577 18.0267 97.191 18.304C97.7243 18.5813 98.151 18.9493 98.471 19.408C98.8017 19.8667 99.015 20.3733 99.111 20.928L97.511 21.264C97.4577 20.912 97.3457 20.592 97.175 20.304C97.0043 20.016 96.7643 19.7867 96.455 19.616C96.1457 19.4453 95.7563 19.36 95.287 19.36C94.8283 19.36 94.4123 19.4667 94.039 19.68C93.6763 19.8827 93.3883 20.1813 93.175 20.576C92.9617 20.96 92.855 21.4293 92.855 21.984V22.128C92.855 22.6827 92.9617 23.1573 93.175 23.552C93.3883 23.9467 93.6763 24.2453 94.039 24.448C94.4123 24.6507 94.8283 24.752 95.287 24.752C95.9803 24.752 96.5083 24.576 96.871 24.224C97.2337 23.8613 97.463 23.4027 97.559 22.848L99.159 23.216C99.031 23.76 98.8017 24.2613 98.471 24.72C98.151 25.1787 97.7243 25.5467 97.191 25.824C96.6577 26.0907 96.0123 26.224 95.255 26.224ZM101.06 26V14.8H102.708V19.232H102.964C103.07 19.0293 103.22 18.832 103.412 18.64C103.614 18.448 103.876 18.2933 104.196 18.176C104.526 18.048 104.942 17.984 105.444 17.984C106.041 17.984 106.569 18.1173 107.028 18.384C107.497 18.6507 107.865 19.0293 108.132 19.52C108.398 20 108.532 20.5813 108.532 21.264V26H106.884V21.392C106.884 20.7093 106.713 20.208 106.372 19.888C106.03 19.5573 105.561 19.392 104.964 19.392C104.281 19.392 103.732 19.616 103.316 20.064C102.91 20.512 102.708 21.1627 102.708 22.016V26H101.06ZM113.352 26.224C112.786 26.224 112.28 26.128 111.832 25.936C111.394 25.744 111.042 25.4613 110.776 25.088C110.52 24.7147 110.392 24.2613 110.392 23.728C110.392 23.184 110.52 22.736 110.776 22.384C111.042 22.0213 111.4 21.7493 111.848 21.568C112.306 21.3867 112.824 21.296 113.4 21.296H115.8V20.784C115.8 20.3253 115.661 19.9573 115.384 19.68C115.106 19.4027 114.68 19.264 114.104 19.264C113.538 19.264 113.106 19.3973 112.808 19.664C112.509 19.9307 112.312 20.2773 112.216 20.704L110.68 20.208C110.808 19.7813 111.01 19.3973 111.288 19.056C111.576 18.704 111.954 18.4213 112.424 18.208C112.893 17.9947 113.458 17.888 114.12 17.888C115.144 17.888 115.949 18.1493 116.536 18.672C117.122 19.1947 117.416 19.936 117.416 20.896V24.144C117.416 24.464 117.565 24.624 117.864 24.624H118.536V26H117.304C116.93 26 116.626 25.904 116.392 25.712C116.157 25.52 116.04 25.2587 116.04 24.928V24.88H115.8C115.714 25.04 115.586 25.2267 115.416 25.44C115.245 25.6533 114.994 25.84 114.664 26C114.333 26.1493 113.896 26.224 113.352 26.224ZM113.592 24.864C114.253 24.864 114.786 24.6773 115.192 24.304C115.597 23.92 115.8 23.3973 115.8 22.736V22.576H113.496C113.058 22.576 112.706 22.672 112.44 22.864C112.173 23.0453 112.039 23.3173 112.039 23.68C112.039 24.0427 112.178 24.3307 112.456 24.544C112.733 24.7573 113.112 24.864 113.592 24.864ZM120.138 26V18.112H121.786V26H120.138ZM120.97 17.04C120.65 17.04 120.378 16.9387 120.154 16.736C119.941 16.5227 119.834 16.2507 119.834 15.92C119.834 15.5893 119.941 15.3227 120.154 15.12C120.378 14.9067 120.65 14.8 120.97 14.8C121.301 14.8 121.573 14.9067 121.786 15.12C121.999 15.3227 122.106 15.5893 122.106 15.92C122.106 16.2507 121.999 16.5227 121.786 16.736C121.573 16.9387 121.301 17.04 120.97 17.04ZM124.232 26V18.112H125.848V19.296H126.104C126.253 18.976 126.52 18.6773 126.904 18.4C127.288 18.1227 127.858 17.984 128.616 17.984C129.213 17.984 129.741 18.1173 130.2 18.384C130.669 18.6507 131.037 19.0293 131.304 19.52C131.57 20 131.704 20.5813 131.704 21.264V26H130.056V21.392C130.056 20.7093 129.885 20.208 129.544 19.888C129.202 19.5573 128.733 19.392 128.136 19.392C127.453 19.392 126.904 19.616 126.488 20.064C126.082 20.512 125.88 21.1627 125.88 22.016V26H124.232ZM135.067 26.224C134.694 26.224 134.379 26.1013 134.123 25.856C133.878 25.6107 133.755 25.296 133.755 24.912C133.755 24.528 133.878 24.2187 134.123 23.984C134.379 23.7387 134.694 23.616 135.067 23.616C135.441 23.616 135.75 23.7387 135.995 23.984C136.251 24.2293 136.379 24.5387 136.379 24.912C136.379 25.296 136.251 25.6107 135.995 25.856C135.75 26.1013 135.441 26.224 135.067 26.224ZM142.052 26.224C141.295 26.224 140.607 26.064 139.988 25.744C139.38 25.424 138.895 24.96 138.532 24.352C138.18 23.744 138.004 23.0133 138.004 22.16V21.952C138.004 21.0987 138.18 20.3733 138.532 19.776C138.895 19.168 139.38 18.704 139.988 18.384C140.607 18.0533 141.295 17.888 142.052 17.888C142.809 17.888 143.455 18.0267 143.988 18.304C144.521 18.5813 144.948 18.9493 145.268 19.408C145.599 19.8667 145.812 20.3733 145.908 20.928L144.308 21.264C144.255 20.912 144.143 20.592 143.972 20.304C143.801 20.016 143.561 19.7867 143.252 19.616C142.943 19.4453 142.553 19.36 142.084 19.36C141.625 19.36 141.209 19.4667 140.836 19.68C140.473 19.8827 140.185 20.1813 139.972 20.576C139.759 20.96 139.652 21.4293 139.652 21.984V22.128C139.652 22.6827 139.759 23.1573 139.972 23.552C140.185 23.9467 140.473 24.2453 140.836 24.448C141.209 24.6507 141.625 24.752 142.084 24.752C142.777 24.752 143.305 24.576 143.668 24.224C144.031 23.8613 144.26 23.4027 144.356 22.848L145.956 23.216C145.828 23.76 145.599 24.2613 145.268 24.72C144.948 25.1787 144.521 25.5467 143.988 25.824C143.455 26.0907 142.809 26.224 142.052 26.224ZM151.553 26.224C150.763 26.224 150.059 26.064 149.441 25.744C148.833 25.4133 148.353 24.944 148.001 24.336C147.649 23.728 147.473 23.008 147.473 22.176V21.936C147.473 21.104 147.649 20.3893 148.001 19.792C148.353 19.184 148.833 18.7147 149.441 18.384C150.059 18.0533 150.763 17.888 151.553 17.888C152.342 17.888 153.046 18.0533 153.665 18.384C154.283 18.7147 154.769 19.184 155.121 19.792C155.473 20.3893 155.649 21.104 155.649 21.936V22.176C155.649 23.008 155.473 23.728 155.121 24.336C154.769 24.944 154.283 25.4133 153.665 25.744C153.046 26.064 152.342 26.224 151.553 26.224ZM151.553 24.752C152.278 24.752 152.865 24.5227 153.313 24.064C153.771 23.5947 154.001 22.9493 154.001 22.128V21.984C154.001 21.1627 153.777 20.5227 153.329 20.064C152.881 19.5947 152.289 19.36 151.553 19.36C150.838 19.36 150.251 19.5947 149.793 20.064C149.345 20.5227 149.121 21.1627 149.121 21.984V22.128C149.121 22.9493 149.345 23.5947 149.793 24.064C150.251 24.5227 150.838 24.752 151.553 24.752ZM157.7 26V18.112H159.316V19.04H159.572C159.722 18.7627 159.962 18.5173 160.292 18.304C160.623 18.0907 161.071 17.984 161.636 17.984C162.223 17.984 162.692 18.1067 163.044 18.352C163.407 18.5867 163.679 18.8907 163.86 19.264H164.116C164.298 18.9013 164.559 18.5973 164.9 18.352C165.252 18.1067 165.748 17.984 166.388 17.984C166.9 17.984 167.354 18.0907 167.748 18.304C168.143 18.5067 168.458 18.816 168.692 19.232C168.927 19.6373 169.044 20.144 169.044 20.752V26H167.396V20.88C167.396 20.4 167.263 20.032 166.996 19.776C166.74 19.5093 166.372 19.376 165.892 19.376C165.38 19.376 164.97 19.5413 164.66 19.872C164.351 20.2027 164.196 20.6773 164.196 21.296V26H162.548V20.88C162.548 20.4 162.415 20.032 162.148 19.776C161.892 19.5093 161.524 19.376 161.044 19.376C160.532 19.376 160.122 19.5413 159.812 19.872C159.503 20.2027 159.348 20.6773 159.348 21.296V26H157.7Z" fill="#98A2B3"/>
<defs>
<clipPath id="clip0_867_5733">
<rect width="40" height="40" fill="white"/>
</clipPath>
</defs>
</svg>
