<svg width="160" height="42" viewBox="0 0 160 42" fill="none" xmlns="http://www.w3.org/2000/svg">
<g clip-path="url(#clip0_866_5189)">
<path d="M23.1869 28.9337L16.5206 31.7988V31.5122C15.2352 31.8376 13.8113 32.0251 12.4627 32.0854C6.19343 32.0251 1.21731 28.7815 1.1594 24.9218V23.489C3.21851 26.449 7.41015 28.4322 12.4627 28.3606C14.1719 28.4322 15.9206 28.1648 17.3899 27.7875L17.9696 26.3546C16.2269 26.8687 14.3248 27.2263 12.4627 27.2143C6.19343 27.2263 1.21731 23.9827 1.1594 20.0513V18.9051C3.21851 21.6412 7.40119 23.6251 12.4627 23.4895C14.7397 23.6251 16.9666 23.1516 18.8388 22.3433L19.129 20.9104C17.2997 21.8645 14.929 22.4185 12.4627 22.3433C6.19343 22.4185 1.21731 19.1749 1.1594 15.1803V14.034C3.21851 16.834 7.41015 18.8173 12.4627 18.9051C15.3343 18.8173 18.0567 18.0669 20.2884 16.8991L20.5785 15.1797C18.5528 16.6639 15.5958 17.6203 12.4627 17.7588C6.19343 17.6203 1.21791 14.3761 1.1594 10.3093C1.21731 6.44119 6.19343 3.19761 12.4627 3.14627C16.2 3.19761 19.671 4.49313 21.7379 6.58448L21.9391 6.91582L23.4006 6.92179L23.1869 6.58448C21.1313 3.82269 17.0203 2 12.4627 2C5.52597 2 0 5.7797 0 10.3093V25.2084C0.243582 29.6298 5.64358 33.231 12.4627 33.231C16.9666 33.231 21.0143 31.48 23.1869 28.9337Z" fill="#667085"/>
<path d="M20.4752 39.016L22.8155 29.1838L16.0878 32.0757L20.1833 15.0142H12.2848L14.3326 6.62797H39.4884L37.4406 15.0142H29.2508L27.4955 19.6411L36.563 15.8817L20.4752 39.016ZM24.5708 27.1593L23.4006 32.9432L33.0531 18.4847L25.1552 21.9551L28.6657 13.8578H36.563L38.0257 7.78498H15.2102L13.7475 13.8578H21.6454L17.8424 30.0518L24.5708 27.1605V27.1593ZM56.8185 12.1665C56.7493 13.1253 56.3952 13.8799 55.7564 14.4315C55.1176 14.9826 54.2758 15.2578 53.2311 15.2578C52.089 15.2578 51.1893 14.8733 50.5349 14.1038C49.88 13.3348 49.5522 12.2787 49.5522 10.936V10.391C49.5522 9.53424 49.7033 8.77901 50.0054 8.12588C50.3075 7.47334 50.7391 6.97185 51.2997 6.62319C51.8609 6.27394 52.5128 6.09961 53.2561 6.09961C54.2842 6.09961 55.1128 6.37543 55.7415 6.92648C56.3696 7.47692 56.7326 8.25065 56.8311 9.24647H54.9946C54.9499 8.67095 54.7893 8.25364 54.514 7.99453C54.2382 7.73543 53.8191 7.60588 53.2561 7.60588C52.6436 7.60588 52.1857 7.82498 51.8818 8.26379C51.5773 8.70259 51.4215 9.38319 51.4131 10.3056V10.979C51.4131 11.942 51.5594 12.6459 51.8508 13.0907C52.1433 13.5354 52.603 13.7581 53.2317 13.7581C53.7988 13.7581 54.2221 13.6286 54.5015 13.3695C54.7815 13.1104 54.9415 12.7092 54.9821 12.1665H56.8185ZM66.3015 10.8811C66.3015 11.7587 66.1463 12.5277 65.8358 13.1886C65.526 13.8501 65.0824 14.3599 64.5045 14.7193C63.9272 15.0781 63.2651 15.2578 62.5182 15.2578C61.7797 15.2578 61.1206 15.0805 60.5409 14.7253C59.9618 14.3701 59.5122 13.8632 59.194 13.2041C58.8758 12.545 58.7146 11.7868 58.7105 10.9295V10.4889C58.7105 9.61125 58.8687 8.83931 59.1851 8.17245C59.5015 7.50498 59.9481 6.99274 60.526 6.63513C61.1033 6.27812 61.7636 6.09961 62.5063 6.09961C63.249 6.09961 63.9093 6.27871 64.4866 6.63513C65.0639 6.99274 65.5111 7.50498 65.8269 8.17185C66.1433 8.83931 66.3015 9.60946 66.3015 10.4829V10.8811ZM64.4406 10.4769C64.4406 9.542 64.2734 8.83215 63.9391 8.34618C63.6042 7.8608 63.1266 7.61782 62.5063 7.61782C61.8896 7.61782 61.4143 7.85782 61.0794 8.33722C60.7451 8.81662 60.5755 9.51931 60.5719 10.4465V10.8811C60.5719 11.791 60.7391 12.4972 61.0734 12.9987C61.4078 13.5008 61.8896 13.7521 62.5182 13.7521C63.1343 13.7521 63.6078 13.5104 63.9391 13.0268C64.2693 12.5432 64.4364 11.8381 64.4406 10.9115V10.4769ZM70.5433 15.1354H68.7069V6.222H70.5433V15.1354ZM80.449 15.1354H78.612L75.037 9.27095V15.1354H73.2006V6.222H75.037L78.6185 12.099V6.222H80.449V15.1354ZM89.5403 7.70976H86.8102V15.1354H84.9737V7.70976H82.28V6.222H89.5403V7.70976ZM96.9051 11.2727H93.3791V13.6602H97.517V15.1354H91.5421V6.222H97.5051V7.70976H93.3791V9.83394H96.9051V11.2727ZM101.386 13.6602H105.286V15.1354H99.5499V6.222H101.386V13.6608V13.6602ZM112.657 11.2721H109.131V13.6602H113.269V15.1354H107.294V6.222H113.257V7.70976H109.131V9.83394H112.657V11.2721ZM122.354 14.0089C122.023 14.4047 121.556 14.7121 120.952 14.9301C120.348 15.1486 119.679 15.2584 118.944 15.2584C118.173 15.2584 117.496 15.0895 116.915 14.7527C116.333 14.416 115.884 13.9277 115.568 13.2865C115.251 12.6459 115.09 11.893 115.081 11.028V10.4214C115.081 9.53185 115.231 8.7617 115.531 8.11095C115.831 7.46021 116.264 6.9617 116.829 6.61722C117.394 6.27215 118.056 6.09961 118.816 6.09961C119.872 6.09961 120.699 6.35155 121.295 6.85603C121.891 7.35991 122.244 8.09364 122.354 9.05662H120.566C120.485 8.54618 120.304 8.17304 120.024 7.93603C119.745 7.69961 119.36 7.5814 118.87 7.5814C118.246 7.5814 117.771 7.81603 117.444 8.28528C117.118 8.75453 116.952 9.45244 116.948 10.379V10.948C116.948 11.8829 117.126 12.5886 117.481 13.0662C117.836 13.5438 118.356 13.7826 119.042 13.7826C119.731 13.7826 120.224 13.6357 120.517 13.342V11.8053H118.846V10.4524H122.354V14.0089ZM128.096 11.8727H126.633V15.1354H124.796V6.222H128.109C129.161 6.222 129.974 6.45662 130.544 6.92648C131.116 7.39573 131.402 8.05842 131.402 8.91573C131.402 9.52409 131.27 10.031 131.007 10.4369C130.744 10.8429 130.344 11.1665 129.81 11.4071L131.739 15.0495V15.1354H129.767L128.096 11.8727ZM126.633 10.385H128.114C128.576 10.385 128.933 10.2674 129.186 10.0327C129.439 9.79812 129.565 9.47513 129.565 9.06259C129.565 8.6423 129.446 8.31155 129.207 8.07095C128.968 7.83036 128.602 7.70976 128.109 7.70976H126.633L126.633 10.385ZM138.785 13.2984H135.565L134.953 15.1354H133L136.318 6.222H138.02L141.356 15.1354H139.404L138.785 13.2984ZM136.061 11.8118H138.289L137.169 8.47453L136.061 11.8118ZM144.98 11.9951V15.1354H143.144V6.222H146.621C147.29 6.222 147.879 6.34439 148.387 6.58976C148.896 6.83453 149.286 7.182 149.559 7.63334C149.833 8.08409 149.97 8.59752 149.97 9.17304C149.97 10.0465 149.671 10.7348 149.073 11.2387C148.475 11.7432 147.647 11.9951 146.59 11.9951H144.98ZM144.98 10.5074H146.621C147.107 10.5074 147.477 10.3933 147.732 10.1647C147.987 9.93603 148.115 9.60946 148.115 9.18558C148.115 8.74856 147.986 8.39513 147.729 8.12588C147.472 7.85722 147.117 7.71812 146.664 7.70976H144.98V10.5074ZM159.44 15.1354H157.604V11.3157H154.023V15.1354H152.186V6.222H154.023V9.83394H157.604V6.222H159.44V15.1354Z" fill="#667085"/>
<path d="M54.603 23.3923H52.6173V28.867H51.52V23.3923H49.5522V22.5004H54.603V23.3923ZM56.7403 24.652C57.0872 24.2496 57.526 24.0484 58.0567 24.0484C59.0657 24.0484 59.5767 24.624 59.5911 25.7756V28.867H58.529V25.815C58.529 25.4884 58.4585 25.2574 58.317 25.1219C58.1755 24.9864 57.9678 24.9189 57.6937 24.9189C57.2681 24.9189 56.9505 25.1081 56.7403 25.4867V28.867H55.6776V22.1505H56.7403V24.652ZM63.1069 28.9541C62.4334 28.9541 61.8878 28.7422 61.4693 28.3183C61.0513 27.8944 60.8418 27.329 60.8418 26.624V26.4926C60.8418 26.0204 60.9331 25.5983 61.1152 25.227C61.2836 24.8708 61.5496 24.5698 61.8824 24.3589C62.2123 24.1517 62.5949 24.044 62.9845 24.0484C63.6287 24.0484 64.1266 24.2538 64.4776 24.6646C64.8287 25.0759 65.0048 25.6574 65.0048 26.4096V26.8383H61.9128C61.9451 27.2287 62.0758 27.5374 62.3045 27.7649C62.5331 27.9923 62.8209 28.1064 63.1678 28.1064C63.6549 28.1064 64.0514 27.9093 64.3576 27.5153L64.9308 28.0622C64.7408 28.3455 64.4787 28.5728 64.1713 28.7207C63.8549 28.8759 63.5003 28.9541 63.1069 28.9541ZM62.9803 24.9004C62.6884 24.9004 62.4531 25.0031 62.274 25.2072C62.0949 25.4108 61.9803 25.695 61.9308 26.0598H63.9546V25.981C63.9319 25.6252 63.837 25.3565 63.6711 25.1744C63.5045 24.9923 63.2746 24.9004 62.9803 24.9004ZM69.1493 28.867V24.9231H68.4275V24.1356H69.1493V23.7028C69.1493 23.178 69.2949 22.7726 69.5863 22.4872C69.8782 22.2013 70.286 22.0586 70.8108 22.0586C70.9976 22.0586 71.1958 22.0849 71.4054 22.1374L71.3791 22.9684C71.2451 22.9435 71.1089 22.9317 70.9725 22.9332C70.4651 22.9332 70.2119 23.1941 70.2119 23.7159V24.1356H71.1731V24.9231H70.2119V28.867H69.1493ZM75.1743 28.4037C74.8627 28.7708 74.4191 28.9541 73.8448 28.9541C73.3319 28.9541 72.9433 28.8043 72.68 28.504C72.4161 28.2037 72.2842 27.7696 72.2842 27.2007V24.1356H73.3469V27.1875C73.3469 27.7881 73.5958 28.089 74.0943 28.089C74.6102 28.089 74.9588 27.904 75.1391 27.5338V24.1356H76.2018V28.867H75.2006L75.1743 28.4037ZM78.9737 22.9858V24.1356H79.8096V24.9231H78.9737V27.5637C78.9737 27.7446 79.0096 27.8753 79.0812 27.9553C79.1528 28.0353 79.28 28.0753 79.4633 28.0753C79.5863 28.0753 79.7099 28.061 79.8352 28.0317V28.8538C79.6076 28.9187 79.3722 28.9525 79.1355 28.9541C78.3194 28.9541 77.9116 28.504 77.9116 27.6031V24.9225H77.1331V24.1356H77.9111V22.9864H78.9737V22.9858ZM83.8448 28.4037C83.5325 28.7708 83.0896 28.9541 82.5152 28.9541C82.0018 28.9541 81.6137 28.8043 81.3499 28.504C81.086 28.2037 80.954 27.7696 80.954 27.2007V24.1356H82.0167V27.1875C82.0167 27.7881 82.2663 28.089 82.7648 28.089C83.2806 28.089 83.6287 27.904 83.8096 27.5338V24.1356H84.8722V28.867H83.871L83.8448 28.4037ZM88.7899 25.1064C88.6468 25.0829 88.502 25.0713 88.357 25.0717C87.8699 25.0717 87.5421 25.258 87.3731 25.6311V28.867H86.3105V24.1356H87.3254L87.3511 24.6646C87.6078 24.2538 87.9636 24.0484 88.4179 24.0484C88.5696 24.0484 88.6949 24.0687 88.794 24.1093L88.7899 25.1064ZM91.8197 28.9541C91.1463 28.9541 90.6006 28.7422 90.1821 28.3183C89.7642 27.8944 89.5546 27.329 89.5546 26.624V26.4926C89.5546 26.0204 89.646 25.5983 89.8281 25.227C89.9964 24.8708 90.2625 24.5698 90.5952 24.3589C90.9252 24.1517 91.3078 24.044 91.6973 24.0484C92.3415 24.0484 92.8394 24.2538 93.1904 24.6646C93.5415 25.0759 93.7176 25.6574 93.7176 26.4096V26.8383H90.6257C90.6579 27.2287 90.7887 27.5374 91.0173 27.7649C91.246 27.9923 91.5337 28.1064 91.8806 28.1064C92.3678 28.1064 92.7642 27.9093 93.0705 27.5153L93.6436 28.0622C93.4537 28.3455 93.1915 28.5728 92.8842 28.7207C92.5678 28.8759 92.2131 28.9541 91.8197 28.9541ZM91.6931 24.9004C91.4012 24.9004 91.166 25.0031 90.9869 25.2072C90.8078 25.4108 90.6931 25.695 90.6436 26.0598H92.6675V25.981C92.6448 25.6252 92.5499 25.3565 92.3839 25.1744C92.2173 24.9923 91.9875 24.9004 91.6931 24.9004ZM97.289 26.4574C97.289 25.9941 97.3809 25.5768 97.5648 25.2049C97.7334 24.8496 98.0024 24.5516 98.3385 24.3475C98.671 24.1481 99.0525 24.0484 99.4848 24.0484C100.122 24.0484 100.641 24.2538 101.039 24.6646C101.436 25.0759 101.652 25.621 101.684 26.3004L101.688 26.5493C101.688 27.0156 101.599 27.4329 101.42 27.8001C101.252 28.1539 100.985 28.4504 100.65 28.6526C100.316 28.8538 99.9302 28.9541 99.4931 28.9541C98.8257 28.9541 98.2914 28.732 97.8902 28.2878C97.4902 27.8431 97.289 27.2502 97.289 26.5099V26.4574ZM98.3516 26.5493C98.3516 27.0365 98.4525 27.4174 98.6537 27.6926C98.8543 27.9684 99.1343 28.1064 99.4931 28.1064C99.8513 28.1064 100.131 27.9661 100.33 27.6861C100.53 27.4067 100.63 26.9971 100.63 26.4574C100.63 25.9798 100.527 25.6007 100.322 25.3207C100.116 25.0407 99.837 24.901 99.4842 24.901C99.1379 24.901 98.8621 25.0383 98.6579 25.3141C98.4537 25.5899 98.3516 26.0007 98.3516 26.5493ZM103.319 28.867V24.9231H102.598V24.1356H103.319V23.7028C103.319 23.178 103.465 22.7726 103.756 22.4872C104.048 22.2013 104.456 22.0586 104.981 22.0586C105.168 22.0586 105.366 22.0849 105.576 22.1374L105.549 22.9684C105.415 22.9435 105.279 22.9317 105.143 22.9332C104.636 22.9332 104.382 23.1941 104.382 23.7159V24.1356H105.344V24.9231H104.382V28.867H103.319ZM110.066 24.1356L110.096 24.6299C110.429 24.2419 110.884 24.0484 111.46 24.0484C112.093 24.0484 112.526 24.2902 112.759 24.7744C113.103 24.2902 113.587 24.0484 114.211 24.0484C114.733 24.0484 115.121 24.1923 115.376 24.4813C115.631 24.7696 115.762 25.1953 115.768 25.7577V28.867H114.705V25.7887C114.705 25.4884 114.639 25.2681 114.508 25.1284C114.377 24.9881 114.16 24.9183 113.857 24.9183C113.615 24.9183 113.417 24.9834 113.264 25.1129C113.109 25.2467 112.997 25.4241 112.943 25.6222L112.947 28.867H111.885V25.7535C111.87 25.1971 111.586 24.9183 111.032 24.9183C110.607 24.9183 110.304 25.0914 110.127 25.4389V28.867H109.064V24.1356H110.066ZM117.018 26.458C117.018 25.9941 117.11 25.5768 117.293 25.2049C117.462 24.8495 117.731 24.5515 118.067 24.3475C118.399 24.1481 118.782 24.0484 119.213 24.0484C119.851 24.0484 120.37 24.2538 120.767 24.6646C121.165 25.0759 121.38 25.621 121.412 26.3004L121.417 26.5493C121.417 27.0156 121.327 27.4329 121.148 27.8001C120.981 28.1539 120.713 28.4504 120.378 28.6526C120.044 28.8538 119.659 28.9541 119.221 28.9541C118.554 28.9541 118.02 28.732 117.619 28.2878C117.219 27.8431 117.018 27.2502 117.018 26.5099V26.458ZM118.081 26.5493C118.081 27.0365 118.181 27.4174 118.382 27.6926C118.583 27.9684 118.863 28.1064 119.221 28.1064C119.58 28.1064 119.859 27.9661 120.059 27.6861C120.259 27.4067 120.359 26.9971 120.359 26.4574C120.359 25.9798 120.256 25.6007 120.05 25.3207C119.845 25.0407 119.565 24.901 119.213 24.901C118.866 24.901 118.59 25.0383 118.386 25.3141C118.183 25.5899 118.081 26.0007 118.081 26.5493ZM123.66 24.1356L123.69 24.6825C124.04 24.2598 124.499 24.0484 125.067 24.0484C126.053 24.0484 126.554 24.6126 126.572 25.7404V28.867H125.509V25.8019C125.509 25.5016 125.444 25.2789 125.315 25.135C125.185 24.9905 124.973 24.9183 124.678 24.9183C124.25 24.9183 123.931 25.1123 123.721 25.4998V28.867H122.658V24.1356H123.66ZM130.096 28.9541C129.423 28.9541 128.876 28.7422 128.459 28.3183C128.04 27.8944 127.831 27.329 127.831 26.624V26.4926C127.831 26.0204 127.922 25.5983 128.104 25.227C128.272 24.8707 128.539 24.5697 128.872 24.3589C129.201 24.1518 129.584 24.0441 129.973 24.0484C130.618 24.0484 131.115 24.2538 131.467 24.6646C131.818 25.0759 131.993 25.6574 131.993 26.4096V26.8383H128.902C128.934 27.2287 129.064 27.5374 129.293 27.7649C129.522 27.9923 129.81 28.1064 130.157 28.1064C130.644 28.1064 131.041 27.9093 131.346 27.5153L131.919 28.0622C131.73 28.3454 131.468 28.5727 131.161 28.7207C130.844 28.8759 130.49 28.9541 130.096 28.9541ZM129.969 24.9004C129.678 24.9004 129.442 25.0031 129.263 25.2072C129.084 25.4108 128.969 25.695 128.919 26.0598H130.944V25.981C130.921 25.6252 130.826 25.3565 130.66 25.1744C130.494 24.9923 130.263 24.9004 129.969 24.9004ZM134.774 27.3452L135.736 24.1356H136.869L134.988 29.584C134.7 30.3798 134.21 30.778 133.519 30.778C133.346 30.7752 133.174 30.7487 133.008 30.6992V29.8771L133.209 29.8902C133.477 29.8902 133.679 29.8413 133.814 29.744C133.95 29.6461 134.057 29.4819 134.136 29.252L134.289 28.8449L132.627 24.1356H133.773L134.774 27.3452Z" fill="#667085"/>
</g>
<defs>
<clipPath id="clip0_866_5189">
<rect width="160" height="37.0149" fill="white" transform="translate(0 2)"/>
</clipPath>
</defs>
</svg>
