<svg width="170" height="40" viewBox="0 0 170 40" fill="none" xmlns="http://www.w3.org/2000/svg">
<g clip-path="url(#clip0_867_5735)">
<path fill-rule="evenodd" clip-rule="evenodd" d="M15.2933 11.5907C14.3644 12.7821 13.4727 14.0858 12.6425 15.4875C11.7806 16.9428 11.0431 18.4056 10.431 19.8441C11.0434 21.2838 11.7813 22.7478 12.644 24.2043C13.4746 25.6066 14.3668 26.9109 15.2961 28.1028C16.7947 28.2949 18.3709 28.3978 20 28.3978C21.6292 28.3978 23.2055 28.2949 24.7041 28.1028C25.6339 26.9105 26.5265 25.6057 27.3574 24.2028C28.2198 22.7468 28.9575 21.2833 29.5697 19.8441C28.9578 18.4061 28.2205 16.9438 27.3589 15.4889C26.5283 14.0867 25.6362 12.7826 24.707 11.5908C23.2075 11.3984 21.6303 11.2954 20 11.2954C18.3698 11.2954 16.7927 11.3984 15.2933 11.5907ZM12.7789 12.0105C12.2031 12.8304 11.6475 13.6897 11.1177 14.5843C10.5407 15.5584 10.0152 16.539 9.54215 17.5176C9.04328 16.0436 8.68348 14.6156 8.46384 13.2701C9.76426 12.7615 11.2141 12.3352 12.7789 12.0105ZM16.9356 9.64106C17.9356 9.56334 18.9591 9.52314 20 9.52314C21.0409 9.52314 22.0645 9.56334 23.0644 9.64107C22.0587 8.53817 21.0279 7.56661 19.9998 6.74265C18.9718 7.56666 17.9411 8.53822 16.9356 9.64106ZM18.5241 5.65993C17.0956 6.84974 15.6844 8.28775 14.3481 9.93254C12.1334 10.2619 10.0748 10.7809 8.24885 11.4558C7.98644 7.76108 8.93502 5.21631 10.7126 4.16348C12.5054 3.10163 15.2238 3.50867 18.3718 5.55965C18.4225 5.59269 18.4733 5.62611 18.5241 5.65993ZM21.4754 5.65976C22.9041 6.84955 24.3156 8.28762 25.6521 9.93258C27.8672 10.262 29.9262 10.7812 31.7524 11.4563C32.0153 7.76049 31.0667 5.21501 29.2888 4.162C27.496 3.10015 24.7776 3.50719 21.6296 5.55817C21.5782 5.59163 21.5268 5.6255 21.4754 5.65976ZM33.4699 12.169C33.4862 12.0063 33.5004 11.8447 33.5127 11.6844C33.8135 7.73795 32.8836 4.23136 30.192 2.63713C27.5003 1.04291 23.9783 1.91271 20.6621 4.07326C20.4415 4.217 20.2206 4.36713 19.9996 4.5235C19.7794 4.36767 19.5592 4.21803 19.3392 4.07473C16.0231 1.91419 12.5011 1.04439 9.80943 2.63861C7.11777 4.23284 6.18784 7.73943 6.48874 11.6859C6.50091 11.8455 6.51511 12.0064 6.53132 12.1685C6.38286 12.2375 6.23645 12.3076 6.09215 12.3788C2.54323 14.1311 0 16.7182 0 19.8466C0 22.975 2.54323 25.5621 6.09215 27.3143C6.23595 27.3853 6.38185 27.4552 6.52978 27.5239C6.51359 27.6858 6.49942 27.8464 6.48726 28.0059C6.18637 31.9523 7.11629 35.4589 9.80795 37.0532C12.4996 38.6474 16.0216 37.7776 19.3378 35.617C19.5582 35.4734 19.7789 35.3234 19.9996 35.1672C20.2211 35.324 20.4425 35.4744 20.6636 35.6185C23.9798 37.7791 27.5018 38.6489 30.1934 37.0546C32.8851 35.4604 33.815 31.9538 33.5141 28.0074C33.5019 27.8473 33.4877 27.6859 33.4714 27.5234C33.6189 27.4548 33.7644 27.3851 33.9079 27.3143C37.4568 25.5621 40 22.975 40 19.8466C40 16.7182 37.4568 14.1311 33.9079 12.3788C33.7639 12.3078 33.6179 12.2378 33.4699 12.169ZM31.5372 13.2705C30.2367 12.7618 28.7866 12.3354 27.2215 12.0106C27.7977 12.8309 28.3535 13.6906 28.8837 14.5858C29.4604 15.5595 29.9857 16.5397 30.4586 17.5178C30.9576 16.044 31.3175 14.616 31.5372 13.2705ZM31.4872 19.844C32.2921 17.8363 32.8688 15.8664 33.2078 14.01C36.5212 15.6672 38.2277 17.7804 38.2277 19.8466C38.2277 21.9124 36.5218 24.0253 33.2094 25.6824C32.8702 23.8246 32.293 21.8532 31.4872 19.844ZM30.4589 22.1703C29.9856 23.1497 29.4597 24.1311 28.8823 25.106C28.3516 26.0018 27.7953 26.8622 27.2187 27.6832C28.7854 27.3581 30.237 26.9313 31.5388 26.422C31.3189 25.0753 30.9586 23.6457 30.4589 22.1703ZM31.7539 28.2363C29.9266 28.912 27.866 29.4315 25.6492 29.761C24.3134 31.4047 22.9029 32.8418 21.4752 34.0309C21.5272 34.0655 21.5792 34.0998 21.6311 34.1336C24.7791 36.1846 27.4975 36.5916 29.2903 35.5298C31.068 34.4768 32.0166 31.9317 31.7539 28.2363ZM19.9998 32.9479C21.0269 32.1246 22.0567 31.154 23.0615 30.0523C22.0624 30.1299 21.0399 30.17 20 30.17C18.9601 30.17 17.9376 30.1299 16.9386 30.0523C17.9431 31.154 18.9728 32.1246 19.9998 32.9479ZM12.7817 27.6833C12.2055 26.8627 11.6494 26.0028 11.1191 25.1074C10.5415 24.1322 10.0154 23.1504 9.54189 22.1706C9.04229 23.6461 8.68204 25.0756 8.46224 26.4224C9.76386 26.9316 11.2153 27.3583 12.7817 27.6833ZM8.24732 28.2368C10.0744 28.9123 12.1346 29.4316 14.3511 29.761C15.6865 31.4046 17.0967 32.8416 18.5242 34.0307C18.4729 34.0649 18.4216 34.0987 18.3703 34.1321C15.2223 36.1831 12.5039 36.5901 10.7111 35.5283C8.93367 34.4755 7.98511 31.9311 8.24732 28.2368ZM6.79162 25.6829C7.13073 23.825 7.70781 21.8534 8.51361 19.844C7.70867 17.8361 7.13212 15.866 6.7932 14.0095C3.47913 15.6667 1.77226 17.7802 1.77226 19.8466C1.77226 21.9126 3.47858 24.0258 6.79162 25.6829Z" fill="#98A2B3"/>
<path d="M22.428 22.7262H20.6202V23.9934H19.8582V22.744C19.6632 22.744 19.4594 22.744 19.2467 22.7351V23.9846H18.4847V22.7174C18.3074 22.7174 18.1214 22.7174 17.9441 22.7085H16.9517L17.1023 21.7958C17.1023 21.7958 17.6694 21.8047 17.6517 21.7958C17.8644 21.7958 17.9264 21.6363 17.9353 21.5477V18.1184C17.9087 17.9677 17.8023 17.7816 17.5011 17.7816C17.5099 17.7728 16.9517 17.7816 16.9517 17.7816V16.9664H18.0062C18.1657 16.9664 18.3252 16.9664 18.4935 16.9575V15.7081H19.2556V16.9309C19.4594 16.9309 19.6632 16.9221 19.867 16.9221V15.6992H20.6291V16.9487H22.4457C22.4457 16.9487 22.4457 17.8082 22.4457 17.7639H19.2822V19.3412H21.852V20.1122H19.2822V21.7604H22.295L22.428 22.7262Z" fill="#667085"/>
</g>
<path d="M49.168 26V14.8H56.224V16.368H50.896V19.584H55.776V21.152H50.896V24.432H56.304V26H49.168ZM58.1535 26V14.8H59.8015V26H58.1535ZM65.8633 26.224C65.0633 26.224 64.3646 26.0587 63.7673 25.728C63.1699 25.3867 62.7006 24.912 62.3593 24.304C62.0286 23.6853 61.8633 22.9707 61.8633 22.16V21.968C61.8633 21.1467 62.0286 20.432 62.3593 19.824C62.6899 19.2053 63.1486 18.7307 63.7353 18.4C64.3326 18.0587 65.0206 17.888 65.7993 17.888C66.5566 17.888 67.2179 18.0587 67.7833 18.4C68.3593 18.7307 68.8073 19.1947 69.1273 19.792C69.4473 20.3893 69.6073 21.088 69.6073 21.888V22.512H63.5433C63.5646 23.2053 63.7939 23.76 64.2313 24.176C64.6793 24.5813 65.2339 24.784 65.8953 24.784C66.5139 24.784 66.9779 24.6453 67.2873 24.368C67.6073 24.0907 67.8526 23.7707 68.0233 23.408L69.3833 24.112C69.2339 24.4107 69.0153 24.7253 68.7273 25.056C68.4499 25.3867 68.0819 25.664 67.6233 25.888C67.1646 26.112 66.5779 26.224 65.8633 26.224ZM63.5593 21.248H67.9273C67.8846 20.6507 67.6713 20.1867 67.2873 19.856C66.9033 19.5147 66.4019 19.344 65.7833 19.344C65.1646 19.344 64.6579 19.5147 64.2633 19.856C63.8793 20.1867 63.6446 20.6507 63.5593 21.248ZM75.255 26.224C74.4977 26.224 73.8097 26.064 73.191 25.744C72.583 25.424 72.0977 24.96 71.735 24.352C71.383 23.744 71.207 23.0133 71.207 22.16V21.952C71.207 21.0987 71.383 20.3733 71.735 19.776C72.0977 19.168 72.583 18.704 73.191 18.384C73.8097 18.0533 74.4977 17.888 75.255 17.888C76.0123 17.888 76.6577 18.0267 77.191 18.304C77.7243 18.5813 78.151 18.9493 78.471 19.408C78.8017 19.8667 79.015 20.3733 79.111 20.928L77.511 21.264C77.4577 20.912 77.3457 20.592 77.175 20.304C77.0043 20.016 76.7643 19.7867 76.455 19.616C76.1457 19.4453 75.7563 19.36 75.287 19.36C74.8283 19.36 74.4123 19.4667 74.039 19.68C73.6763 19.8827 73.3883 20.1813 73.175 20.576C72.9617 20.96 72.855 21.4293 72.855 21.984V22.128C72.855 22.6827 72.9617 23.1573 73.175 23.552C73.3883 23.9467 73.6763 24.2453 74.039 24.448C74.4123 24.6507 74.8283 24.752 75.287 24.752C75.9803 24.752 76.5083 24.576 76.871 24.224C77.2337 23.8613 77.463 23.4027 77.559 22.848L79.159 23.216C79.031 23.76 78.8017 24.2613 78.471 24.72C78.151 25.1787 77.7243 25.5467 77.191 25.824C76.6577 26.0907 76.0123 26.224 75.255 26.224ZM83.7229 26C83.2429 26 82.8589 25.856 82.5709 25.568C82.2935 25.28 82.1549 24.896 82.1549 24.416V19.504H79.9789V18.112H82.1549V15.504H83.8029V18.112H86.1549V19.504H83.8029V24.128C83.8029 24.448 83.9522 24.608 84.2509 24.608H85.8989V26H83.7229ZM88.091 26V18.112H89.707V19.04H89.963C90.091 18.7093 90.2937 18.4693 90.571 18.32C90.859 18.16 91.211 18.08 91.627 18.08H92.571V19.568H91.563C91.0297 19.568 90.5923 19.7173 90.251 20.016C89.9097 20.304 89.739 20.752 89.739 21.36V26H88.091ZM97.3025 26.144C96.7052 26.144 96.1718 26.0107 95.7025 25.744C95.2332 25.4773 94.8652 25.0987 94.5985 24.608C94.3318 24.1173 94.1985 23.5307 94.1985 22.848V18.112H95.8465V22.736C95.8465 23.4187 96.0172 23.9253 96.3585 24.256C96.6998 24.576 97.1745 24.736 97.7825 24.736C98.4545 24.736 98.9932 24.512 99.3985 24.064C99.8145 23.6053 100.023 22.9493 100.023 22.096V18.112H101.671V26H100.055V24.816H99.7985C99.6492 25.136 99.3825 25.44 98.9985 25.728C98.6145 26.0053 98.0492 26.144 97.3025 26.144ZM104.107 26V18.112H105.723V19.04H105.979C106.128 18.7627 106.368 18.5173 106.699 18.304C107.029 18.0907 107.477 17.984 108.043 17.984C108.629 17.984 109.099 18.1067 109.451 18.352C109.813 18.5867 110.085 18.8907 110.267 19.264H110.523C110.704 18.9013 110.965 18.5973 111.307 18.352C111.659 18.1067 112.155 17.984 112.795 17.984C113.307 17.984 113.76 18.0907 114.155 18.304C114.549 18.5067 114.864 18.816 115.099 19.232C115.333 19.6373 115.451 20.144 115.451 20.752V26H113.803V20.88C113.803 20.4 113.669 20.032 113.403 19.776C113.147 19.5093 112.779 19.376 112.299 19.376C111.787 19.376 111.376 19.5413 111.067 19.872C110.757 20.2027 110.603 20.6773 110.603 21.296V26H108.955V20.88C108.955 20.4 108.821 20.032 108.555 19.776C108.299 19.5093 107.931 19.376 107.451 19.376C106.939 19.376 106.528 19.5413 106.219 19.872C105.909 20.2027 105.755 20.6773 105.755 21.296V26H104.107ZM122.754 26L121.106 14.8H122.834L124.178 24.832H124.434L126.162 14.8H129.186L130.914 24.832H131.17L132.498 14.8H134.226L132.578 26H129.554L127.794 15.824H127.538L125.794 26H122.754ZM138.305 26.224C137.739 26.224 137.233 26.128 136.785 25.936C136.347 25.744 135.995 25.4613 135.729 25.088C135.473 24.7147 135.345 24.2613 135.345 23.728C135.345 23.184 135.473 22.736 135.729 22.384C135.995 22.0213 136.353 21.7493 136.801 21.568C137.259 21.3867 137.777 21.296 138.353 21.296H140.753V20.784C140.753 20.3253 140.614 19.9573 140.337 19.68C140.059 19.4027 139.633 19.264 139.057 19.264C138.491 19.264 138.059 19.3973 137.761 19.664C137.462 19.9307 137.265 20.2773 137.169 20.704L135.633 20.208C135.761 19.7813 135.963 19.3973 136.241 19.056C136.529 18.704 136.907 18.4213 137.377 18.208C137.846 17.9947 138.411 17.888 139.073 17.888C140.097 17.888 140.902 18.1493 141.489 18.672C142.075 19.1947 142.369 19.936 142.369 20.896V24.144C142.369 24.464 142.518 24.624 142.817 24.624H143.489V26H142.257C141.883 26 141.579 25.904 141.345 25.712C141.11 25.52 140.993 25.2587 140.993 24.928V24.88H140.753C140.667 25.04 140.539 25.2267 140.369 25.44C140.198 25.6533 139.947 25.84 139.617 26C139.286 26.1493 138.849 26.224 138.305 26.224ZM138.545 24.864C139.206 24.864 139.739 24.6773 140.145 24.304C140.55 23.92 140.753 23.3973 140.753 22.736V22.576H138.449C138.011 22.576 137.659 22.672 137.393 22.864C137.126 23.0453 136.993 23.3173 136.993 23.68C136.993 24.0427 137.131 24.3307 137.409 24.544C137.686 24.7573 138.065 24.864 138.545 24.864ZM145.091 26V14.8H146.739V26H145.091ZM149.185 26V14.8H150.833V26H149.185ZM156.895 26.224C156.095 26.224 155.396 26.0587 154.799 25.728C154.201 25.3867 153.732 24.912 153.391 24.304C153.06 23.6853 152.895 22.9707 152.895 22.16V21.968C152.895 21.1467 153.06 20.432 153.391 19.824C153.721 19.2053 154.18 18.7307 154.767 18.4C155.364 18.0587 156.052 17.888 156.831 17.888C157.588 17.888 158.249 18.0587 158.815 18.4C159.391 18.7307 159.839 19.1947 160.159 19.792C160.479 20.3893 160.639 21.088 160.639 21.888V22.512H154.575C154.596 23.2053 154.825 23.76 155.263 24.176C155.711 24.5813 156.265 24.784 156.927 24.784C157.545 24.784 158.009 24.6453 158.319 24.368C158.639 24.0907 158.884 23.7707 159.055 23.408L160.415 24.112C160.265 24.4107 160.047 24.7253 159.759 25.056C159.481 25.3867 159.113 25.664 158.655 25.888C158.196 26.112 157.609 26.224 156.895 26.224ZM154.591 21.248H158.959C158.916 20.6507 158.703 20.1867 158.319 19.856C157.935 19.5147 157.433 19.344 156.815 19.344C156.196 19.344 155.689 19.5147 155.295 19.856C154.911 20.1867 154.676 20.6507 154.591 21.248ZM165.285 26C164.805 26 164.421 25.856 164.133 25.568C163.856 25.28 163.717 24.896 163.717 24.416V19.504H161.541V18.112H163.717V15.504H165.365V18.112H167.717V19.504H165.365V24.128C165.365 24.448 165.515 24.608 165.813 24.608H167.461V26H165.285Z" fill="#98A2B3"/>
<defs>
<clipPath id="clip0_867_5735">
<rect width="40" height="40" fill="white"/>
</clipPath>
</defs>
</svg>
