<svg width="160" height="21" viewBox="0 0 160 21" fill="none" xmlns="http://www.w3.org/2000/svg">
<g clip-path="url(#clip0_866_5161)">
<mask id="mask0_866_5161" style="mask-type:luminance" maskUnits="userSpaceOnUse" x="0" y="0" width="160" height="21">
<path d="M0 0H159.65V20.741H0V0Z" fill="white"/>
</mask>
<g mask="url(#mask0_866_5161)">
<path fill-rule="evenodd" clip-rule="evenodd" d="M11.8567 20.2703H17.3574V5.54671H11.8567V20.2703ZM11.8567 3.9576H17.3574V0.0136H11.8567V3.9576ZM2.25046 20.2703H7.75111V9.63926H10.5286V5.54566H7.63922C7.55556 4.18566 7.93935 3.98689 9.27268 3.98689H10.6667V0.0125538C9.8332 -0.0156923 9.02797 0.0125538 8.19451 0.0125538C5.97229 0.0125538 4.58353 0.183077 3.38719 1.40394C2.33307 2.48148 2.19399 4.09883 2.25046 5.54566H0V9.63926H2.25046V20.2703ZM18.7911 20.2703H24.2918V12.4974C24.2918 10.1414 25.5414 9.66018 26.4858 9.66018C28.0973 9.66018 28.2918 10.8518 28.2918 12.5538V20.2703H33.7924V10.1707C33.7924 6.79477 31.4311 5.17741 28.8481 5.17741C26.652 5.17741 25.1796 5.9432 24.1527 7.41828H24.0973V5.54566H18.7911V20.2703ZM44.182 15.0217C44.0983 16.5533 43.1258 17.3191 41.8771 17.3191C40.8763 17.3191 40.1537 16.6391 40.1537 15.958C40.1537 14.9642 40.7937 14.6535 42.0152 14.3689C42.766 14.1994 43.5158 14.0007 44.182 13.6596V15.0217ZM49.4609 10.9365C49.4609 8.09932 49.5163 5.17741 42.6269 5.17741C39.2094 5.17741 35.3757 5.85742 35.2094 10.0002H40.321C40.3482 9.37563 40.6818 8.49686 42.377 8.49686C43.2659 8.49686 44.182 8.86511 44.182 9.85791C44.182 10.7953 43.4322 11.0212 42.6824 11.1635C39.8756 11.7023 34.5422 11.5318 34.5422 16.185C34.5422 19.2775 36.8481 20.6385 39.6267 20.6385C41.4044 20.6385 43.0986 20.242 44.2656 18.8799H44.321C44.2939 19.2775 44.3765 19.8738 44.5156 20.2713H49.4609V10.9365ZM50.8664 20.2703H56.3671V12.4974C56.3671 10.1414 57.6167 9.66018 58.5611 9.66018C60.1726 9.66018 60.3671 10.8518 60.3671 12.5538V20.2703H65.8677V10.1707C65.8677 6.79477 63.5064 5.17741 60.9224 5.17741C58.7273 5.17741 57.2549 5.9432 56.2269 7.41828H56.1715V5.54566H50.8664V20.2703ZM66.925 20.2703H81.3145V16.185H74.148L80.732 9.85791V5.54566H67.5346V9.63194H73.6742L66.9239 15.9298V20.2713L66.925 20.2703ZM86.6771 11.2482C86.9281 9.66018 87.8724 8.78141 89.5111 8.78141C90.9271 8.78141 91.9278 9.8872 91.9278 11.2482H86.6771ZM97.2058 14.1712C97.2058 8.44037 94.7336 5.17741 89.0112 5.17741C84.4549 5.17741 81.3992 8.66739 81.3992 12.9503C81.3992 17.8589 84.8711 20.6396 89.4829 20.6396C92.7603 20.6396 95.7888 19.1634 96.9014 15.9863H91.7616C91.3171 16.6956 90.3435 17.0356 89.4557 17.0356C87.7333 17.0356 86.789 15.845 86.6499 14.1712H97.2058ZM98.1229 20.2703H103.624V12.4974C103.624 10.1414 104.874 9.66018 105.818 9.66018C107.429 9.66018 107.624 10.8518 107.624 12.5538V20.2703H112.888V10.1707C112.888 6.79477 110.764 5.17741 108.179 5.17741C105.985 5.17741 104.512 5.9432 103.484 7.41828H103.429V5.54566H98.1229V20.2703ZM125.533 5.37723H127.319V7.95181H127.375C128.027 6.15871 129.983 4.94203 132.051 4.94203C136.159 4.94203 137.406 7.14209 137.406 10.7011V20.3079H135.621V10.9909C135.621 8.41526 134.799 6.47569 131.909 6.47569C129.075 6.47569 127.375 8.67575 127.318 11.5987V20.3079H125.533V5.37723ZM150.469 11.8006C150.384 9.05132 148.712 6.47569 145.823 6.47569C142.903 6.47569 141.288 9.08062 141.005 11.8006H150.469ZM141.005 13.3343C141.033 15.9967 142.393 19.2084 145.823 19.2084C148.429 19.2084 149.847 17.6455 150.414 15.3879H152.198C151.433 18.7743 149.506 20.7421 145.823 20.7421C141.175 20.7421 139.22 17.0962 139.22 12.8426C139.22 8.90695 141.175 4.94203 145.823 4.94203C150.525 4.94203 152.396 9.1392 152.254 13.3343H141.005ZM156.675 5.37723H159.651V6.90985H156.676V16.9801C156.676 18.1665 156.844 18.8611 158.119 18.9469C158.63 18.9469 159.14 18.9186 159.651 18.8611V20.423C159.111 20.423 158.601 20.4816 158.063 20.4816C155.683 20.4816 154.861 19.6708 154.889 17.1245V6.90985H152.34V5.37723H154.889V0.890277H156.676V5.37618L156.675 5.37723Z" fill="#667085"/>
</g>
<path fill-rule="evenodd" clip-rule="evenodd" d="M119.12 20.4248C121.728 20.4248 123.841 18.2655 123.841 15.603C123.841 12.9395 121.728 10.7803 119.12 10.7803C116.511 10.7803 114.398 12.9395 114.398 15.603C114.398 18.2655 116.511 20.4248 119.12 20.4248Z" fill="#667085"/>
<path fill-rule="evenodd" clip-rule="evenodd" d="M119.12 14.8592C121.138 14.8592 122.898 15.9713 123.834 15.7642C123.835 15.7098 123.841 15.6574 123.841 15.603C123.841 12.9395 121.728 10.7803 119.12 10.7803C116.511 10.7803 114.398 12.9395 114.398 15.603C114.398 15.6574 114.403 15.7098 114.405 15.7642C115.34 15.9723 117.1 14.8592 119.12 14.8592Z" fill="#667085"/>
</g>
<defs>
<clipPath id="clip0_866_5161">
<rect width="160" height="20.9231" fill="white"/>
</clipPath>
</defs>
</svg>
