<svg width="44" height="44" viewBox="0 0 44 44" fill="none" xmlns="http://www.w3.org/2000/svg">
<g id="settings-01">
<g id="Icon">
<path d="M21.9998 27.5013C25.0374 27.5013 27.4998 25.0389 27.4998 22.0013C27.4998 18.9637 25.0374 16.5013 21.9998 16.5013C18.9623 16.5013 16.4998 18.9637 16.4998 22.0013C16.4998 25.0389 18.9623 27.5013 21.9998 27.5013Z" fill="#F7931A" fill-opacity="0.1"/>
<path d="M34.3332 27.0013C34.1113 27.504 34.0451 28.0616 34.1432 28.6023C34.2412 29.1429 34.4989 29.6418 34.8832 30.0346L34.9832 30.1346C35.2931 30.4442 35.539 30.8118 35.7067 31.2165C35.8745 31.6212 35.9608 32.0549 35.9608 32.493C35.9608 32.931 35.8745 33.3648 35.7067 33.7694C35.539 34.1741 35.2931 34.5417 34.9832 34.8513C34.6736 35.1612 34.306 35.4071 33.9013 35.5748C33.4966 35.7426 33.0629 35.8289 32.6248 35.8289C32.1868 35.8289 31.753 35.7426 31.3484 35.5748C30.9437 35.4071 30.5761 35.1612 30.2665 34.8513L30.1665 34.7513C29.7737 34.3671 29.2748 34.1093 28.7342 34.0113C28.1935 33.9133 27.6359 33.9794 27.1332 34.2013C26.6402 34.4126 26.2198 34.7634 25.9237 35.2105C25.6276 35.6577 25.4686 36.1817 25.4665 36.718V37.0013C25.4665 37.8854 25.1153 38.7332 24.4902 39.3583C23.8651 39.9834 23.0172 40.3346 22.1332 40.3346C21.2491 40.3346 20.4013 39.9834 19.7761 39.3583C19.151 38.7332 18.7998 37.8854 18.7998 37.0013V36.8513C18.7869 36.2996 18.6084 35.7646 18.2874 35.3158C17.9663 34.867 17.5177 34.5251 16.9998 34.3346C16.4971 34.1128 15.9395 34.0466 15.3989 34.1446C14.8582 34.2427 14.3593 34.5004 13.9665 34.8846L13.8665 34.9846C13.5569 35.2946 13.1893 35.5404 12.7846 35.7082C12.38 35.8759 11.9462 35.9623 11.5082 35.9623C11.0701 35.9623 10.6364 35.8759 10.2317 35.7082C9.82704 35.5404 9.45941 35.2946 9.14984 34.9846C8.83992 34.6751 8.59405 34.3074 8.4263 33.9028C8.25856 33.4981 8.17221 33.0644 8.17221 32.6263C8.17221 32.1882 8.25856 31.7545 8.4263 31.3498C8.59405 30.9452 8.83992 30.5775 9.14984 30.268L9.24984 30.168C9.63407 29.7752 9.89181 29.2763 9.98984 28.7356C10.0879 28.195 10.0217 27.6373 9.79984 27.1346C9.58857 26.6417 9.23776 26.2213 8.79061 25.9251C8.34346 25.629 7.81948 25.4701 7.28317 25.468H6.99984C6.11578 25.468 5.26794 25.1168 4.64281 24.4917C4.01769 23.8665 3.6665 23.0187 3.6665 22.1346C3.6665 21.2506 4.01769 20.4027 4.64281 19.7776C5.26794 19.1525 6.11578 18.8013 6.99984 18.8013H7.14984C7.70149 18.7884 8.23651 18.6098 8.68534 18.2888C9.13416 17.9678 9.47603 17.5192 9.6665 17.0013C9.88836 16.4986 9.95454 15.941 9.85651 15.4003C9.75848 14.8597 9.50073 14.3608 9.1165 13.968L9.0165 13.868C8.70658 13.5584 8.46072 13.1908 8.29297 12.7861C8.12522 12.3814 8.03888 11.9477 8.03888 11.5096C8.03888 11.0716 8.12522 10.6378 8.29297 10.2332C8.46072 9.82851 8.70658 9.46088 9.0165 9.1513C9.32608 8.84138 9.69371 8.59552 10.0984 8.42777C10.503 8.26002 10.9368 8.17368 11.3748 8.17368C11.8129 8.17368 12.2466 8.26002 12.6513 8.42777C13.056 8.59552 13.4236 8.84138 13.7332 9.1513L13.8332 9.2513C14.226 9.63553 14.7249 9.89328 15.2655 9.99131C15.8062 10.0893 16.3638 10.0232 16.8665 9.8013H16.9998C17.4928 9.59003 17.9132 9.23923 18.2093 8.79208C18.5055 8.34493 18.6644 7.82095 18.6665 7.28464V7.0013C18.6665 6.11725 19.0177 5.2694 19.6428 4.64428C20.2679 4.01916 21.1158 3.66797 21.9998 3.66797C22.8839 3.66797 23.7317 4.01916 24.3569 4.64428C24.982 5.2694 25.3332 6.11725 25.3332 7.0013V7.1513C25.3353 7.68761 25.4942 8.21159 25.7903 8.65874C26.0865 9.1059 26.5069 9.4567 26.9998 9.66797C27.5025 9.88983 28.0602 9.95601 28.6008 9.85798C29.1415 9.75994 29.6404 9.5022 30.0332 9.11797L30.1332 9.01797C30.4427 8.70805 30.8104 8.46218 31.215 8.29444C31.6197 8.12669 32.0535 8.04035 32.4915 8.04035C32.9296 8.04035 33.3633 8.12669 33.768 8.29444C34.1726 8.46218 34.5403 8.70805 34.8498 9.01797C35.1598 9.32755 35.4056 9.69517 35.5734 10.0998C35.7411 10.5045 35.8275 10.9383 35.8275 11.3763C35.8275 11.8144 35.7411 12.2481 35.5734 12.6528C35.4056 13.0574 35.1598 13.4251 34.8498 13.7346L34.7498 13.8346C34.3656 14.2274 34.1079 14.7263 34.0098 15.267C33.9118 15.8076 33.978 16.3653 34.1998 16.868V17.0013C34.4111 17.4943 34.7619 17.9147 35.2091 18.2108C35.6562 18.5069 36.1802 18.6658 36.7165 18.668H36.9998C37.8839 18.668 38.7317 19.0192 39.3569 19.6443C39.982 20.2694 40.3332 21.1172 40.3332 22.0013C40.3332 22.8854 39.982 23.7332 39.3569 24.3583C38.7317 24.9834 37.8839 25.3346 36.9998 25.3346H36.8498C36.3135 25.3368 35.7895 25.4957 35.3424 25.7918C34.8952 26.0879 34.5444 26.5084 34.3332 27.0013Z" fill="#F7931A" fill-opacity="0.1"/>
<path d="M21.9998 27.5013C25.0374 27.5013 27.4998 25.0389 27.4998 22.0013C27.4998 18.9637 25.0374 16.5013 21.9998 16.5013C18.9623 16.5013 16.4998 18.9637 16.4998 22.0013C16.4998 25.0389 18.9623 27.5013 21.9998 27.5013Z" stroke="#F7931A" stroke-width="3" stroke-linecap="round" stroke-linejoin="round"/>
<path d="M34.3332 27.0013C34.1113 27.504 34.0451 28.0616 34.1432 28.6023C34.2412 29.1429 34.4989 29.6418 34.8832 30.0346L34.9832 30.1346C35.2931 30.4442 35.539 30.8118 35.7067 31.2165C35.8745 31.6212 35.9608 32.0549 35.9608 32.493C35.9608 32.931 35.8745 33.3648 35.7067 33.7694C35.539 34.1741 35.2931 34.5417 34.9832 34.8513C34.6736 35.1612 34.306 35.4071 33.9013 35.5748C33.4966 35.7426 33.0629 35.8289 32.6248 35.8289C32.1868 35.8289 31.753 35.7426 31.3484 35.5748C30.9437 35.4071 30.5761 35.1612 30.2665 34.8513L30.1665 34.7513C29.7737 34.3671 29.2748 34.1093 28.7342 34.0113C28.1935 33.9133 27.6359 33.9794 27.1332 34.2013C26.6402 34.4126 26.2198 34.7634 25.9237 35.2105C25.6276 35.6577 25.4686 36.1817 25.4665 36.718V37.0013C25.4665 37.8854 25.1153 38.7332 24.4902 39.3583C23.8651 39.9834 23.0172 40.3346 22.1332 40.3346C21.2491 40.3346 20.4013 39.9834 19.7761 39.3583C19.151 38.7332 18.7998 37.8854 18.7998 37.0013V36.8513C18.7869 36.2996 18.6084 35.7646 18.2874 35.3158C17.9663 34.867 17.5177 34.5251 16.9998 34.3346C16.4971 34.1128 15.9395 34.0466 15.3989 34.1446C14.8582 34.2427 14.3593 34.5004 13.9665 34.8846L13.8665 34.9846C13.5569 35.2946 13.1893 35.5404 12.7846 35.7082C12.38 35.8759 11.9462 35.9623 11.5082 35.9623C11.0701 35.9623 10.6364 35.8759 10.2317 35.7082C9.82704 35.5404 9.45941 35.2946 9.14984 34.9846C8.83992 34.6751 8.59405 34.3074 8.4263 33.9028C8.25856 33.4981 8.17221 33.0644 8.17221 32.6263C8.17221 32.1882 8.25856 31.7545 8.4263 31.3498C8.59405 30.9452 8.83992 30.5775 9.14984 30.268L9.24984 30.168C9.63407 29.7752 9.89181 29.2763 9.98984 28.7356C10.0879 28.195 10.0217 27.6373 9.79984 27.1346C9.58857 26.6417 9.23776 26.2213 8.79061 25.9251C8.34346 25.629 7.81948 25.4701 7.28317 25.468H6.99984C6.11578 25.468 5.26794 25.1168 4.64281 24.4917C4.01769 23.8665 3.6665 23.0187 3.6665 22.1346C3.6665 21.2506 4.01769 20.4027 4.64281 19.7776C5.26794 19.1525 6.11578 18.8013 6.99984 18.8013H7.14984C7.70149 18.7884 8.23651 18.6098 8.68534 18.2888C9.13416 17.9678 9.47603 17.5192 9.6665 17.0013C9.88836 16.4986 9.95454 15.941 9.85651 15.4003C9.75848 14.8597 9.50073 14.3608 9.1165 13.968L9.0165 13.868C8.70658 13.5584 8.46072 13.1908 8.29297 12.7861C8.12522 12.3814 8.03888 11.9477 8.03888 11.5096C8.03888 11.0716 8.12522 10.6378 8.29297 10.2332C8.46072 9.82851 8.70658 9.46088 9.0165 9.1513C9.32608 8.84138 9.69371 8.59552 10.0984 8.42777C10.503 8.26002 10.9368 8.17368 11.3748 8.17368C11.8129 8.17368 12.2466 8.26002 12.6513 8.42777C13.056 8.59552 13.4236 8.84138 13.7332 9.1513L13.8332 9.2513C14.226 9.63553 14.7249 9.89328 15.2655 9.99131C15.8062 10.0893 16.3638 10.0232 16.8665 9.8013H16.9998C17.4928 9.59003 17.9132 9.23923 18.2093 8.79208C18.5055 8.34493 18.6644 7.82095 18.6665 7.28464V7.0013C18.6665 6.11725 19.0177 5.2694 19.6428 4.64428C20.2679 4.01916 21.1158 3.66797 21.9998 3.66797C22.8839 3.66797 23.7317 4.01916 24.3569 4.64428C24.982 5.2694 25.3332 6.11725 25.3332 7.0013V7.1513C25.3353 7.68761 25.4942 8.21159 25.7903 8.65874C26.0865 9.1059 26.5069 9.4567 26.9998 9.66797C27.5025 9.88983 28.0602 9.95601 28.6008 9.85798C29.1415 9.75994 29.6404 9.5022 30.0332 9.11797L30.1332 9.01797C30.4427 8.70805 30.8104 8.46218 31.215 8.29444C31.6197 8.12669 32.0535 8.04035 32.4915 8.04035C32.9296 8.04035 33.3633 8.12669 33.768 8.29444C34.1726 8.46218 34.5403 8.70805 34.8498 9.01797C35.1598 9.32755 35.4056 9.69517 35.5734 10.0998C35.7411 10.5045 35.8275 10.9383 35.8275 11.3763C35.8275 11.8144 35.7411 12.2481 35.5734 12.6528C35.4056 13.0574 35.1598 13.4251 34.8498 13.7346L34.7498 13.8346C34.3656 14.2274 34.1079 14.7263 34.0098 15.267C33.9118 15.8076 33.978 16.3653 34.1998 16.868V17.0013C34.4111 17.4943 34.7619 17.9147 35.2091 18.2108C35.6562 18.5069 36.1802 18.6658 36.7165 18.668H36.9998C37.8839 18.668 38.7317 19.0192 39.3569 19.6443C39.982 20.2694 40.3332 21.1172 40.3332 22.0013C40.3332 22.8854 39.982 23.7332 39.3569 24.3583C38.7317 24.9834 37.8839 25.3346 36.9998 25.3346H36.8498C36.3135 25.3368 35.7895 25.4957 35.3424 25.7918C34.8952 26.0879 34.5444 26.5084 34.3332 27.0013Z" stroke="#F7931A" stroke-width="3" stroke-linecap="round" stroke-linejoin="round"/>
</g>
</g>
</svg>
