<svg height="auto" viewBox="0 0 2000 1000" xmlns="http://www.w3.org/2000/svg"><path d="M0 1000h80v-7.336q0-4-4-4H4q-4 0-4 4ZM100 1000h80v-37.524q0-4-4-4h-72q-4 0-4 4ZM200 1000h80v-78.143q0-4-4-4h-72q-4 0-4 4ZM300 1000h80V888.574q0-4-4-4h-72q-4 0-4 4ZM400 1000h80V820.707q0-4-4-4h-72q-4 0-4 4ZM500 1000h80V861.807q0-4-4-4h-72q-4 0-4 4ZM600 1000h80V728.687q0-4-4-4h-72q-4 0-4 4ZM700 1000h80V644.404q0-4-4-4h-72q-4 0-4 4ZM800 1000h80V679.891q0-4-4-4h-72q-4 0-4 4ZM900 1000h80V581.172q0-4-4-4h-72q-4 0-4 4ZM1000 1000h80V596.826q0-4-4-4h-72q-4 0-4 4ZM1100 1000h80V599.051q0-4-4-4h-72q-4 0-4 4ZM1200 1000h80V380.546q0-4-4-4h-72q-4 0-4 4ZM1300 1000h80V343.33q0-4-4-4h-72q-4 0-4 4ZM1400 1000h80V605.586q0-4-4-4h-72q-4 0-4 4ZM1500 1000h80V385.166q0-4-4-4h-72q-4 0-4 4ZM1600 1000h80V526.751q0-4-4-4h-72q-4 0-4 4ZM1700 1000h80V184.601q0-4-4-4h-72q-4 0-4 4ZM1800 1000h80V172.753q0-4-4-4h-72q-4 0-4 4ZM1900 1000h80V222.679q0-4-4-4h-72q-4 0-4 4Z" fill="#444cf7"/></svg>