<svg height="auto" viewBox="0 0 2000 1000" xmlns="http://www.w3.org/2000/svg"><path d="M0 510.775c21-42.602 63-151.767 105-213.009 42-61.242 63-106.944 105-93.202 42 13.742 63 75.481 105 161.911s63 186.131 105 270.237c42 84.107 63 238.022 105 150.294 42-87.728 63-466.644 105-588.933 42-122.29 63-58.324 105-22.512 42 35.811 63 152.972 105 201.57 42 48.6 63 17.64 105 41.423 42 23.782 63 73.557 105 77.488 42 3.931 63-51.476 105-57.833 42-6.356 63-41.16 105 26.052 42 67.212 63 253.175 105 310.01 42 56.836 63 41.645 105-25.833 42-67.478 63-292.475 105-311.557 42-19.082 63 148.873 105 216.149 42 67.276 63 193.494 105 120.23 42-73.263 63-414.923 105-486.548s84 102.738 105 128.422l5 584.866H0Z" fill="#444cf71a"/><path d="M0 510.775c21-42.602 63-151.767 105-213.009 42-61.242 63-106.944 105-93.202 42 13.742 63 75.481 105 161.911s63 186.131 105 270.237c42 84.107 63 238.022 105 150.294 42-87.728 63-466.644 105-588.933 42-122.29 63-58.324 105-22.512 42 35.811 63 152.972 105 201.57 42 48.6 63 17.64 105 41.423 42 23.782 63 73.557 105 77.488 42 3.931 63-51.476 105-57.833 42-6.356 63-41.16 105 26.052 42 67.212 63 253.175 105 310.01 42 56.836 63 41.645 105-25.833 42-67.478 63-292.475 105-311.557 42-19.082 63 148.873 105 216.149 42 67.276 63 193.494 105 120.23 42-73.263 63-414.923 105-486.548s84 102.738 105 128.422" fill="none" stroke="#444cf7" stroke-width="4"/><g fill="#444cf7"><circle cy="510.775" r="8"/><circle cx="105" cy="297.766" r="8"/><circle cx="210" cy="204.564" r="8"/><circle cx="315" cy="366.475" r="8"/><circle cx="420" cy="636.712" r="8"/><circle cx="525" cy="787.006" r="8"/><circle cx="630" cy="198.073" r="8"/><circle cx="735" cy="175.561" r="8"/><circle cx="840" cy="377.132" r="8"/><circle cx="945" cy="418.554" r="8"/><circle cx="1050" cy="496.042" r="8"/><circle cx="1155" cy="438.209" r="8"/><circle cx="1260" cy="464.261" r="8"/><circle cx="1365" cy="774.272" r="8"/><circle cx="1470" cy="748.438" r="8"/><circle cx="1575" cy="436.881" r="8"/><circle cx="1680" cy="653.03" r="8"/><circle cx="1785" cy="773.261" r="8"/><circle cx="1890" cy="286.712" r="8"/><circle cx="1995" cy="415.134" r="8"/></g></svg>