<svg height="auto" viewBox="0 0 2000 1000" xmlns="http://www.w3.org/2000/svg"><path d="M0 19.893c21 2.163 63 2.782 105 10.812s63 9.865 105 29.338 63 53.111 105 68.026c42 14.916 63-17.255 105 6.55 42 23.806 63 104.74 105 112.479 42 7.74 63-84.209 105-73.781 42 10.427 63 105.776 105 125.917 42 20.142 63-42.04 105-25.21s63 108.476 105 109.36c42 .884 63-144.152 105-104.94 42 39.213 63 262.942 105 301.005 42 38.062 63-122.03 105-110.694 42 11.337 63 124.725 105 167.378 42 42.653 63 18.707 105 45.887s63 85.372 105 90.015c42 4.643 63-32.587 105-66.8 42-34.213 63-117 105-104.266 42 12.735 63 123.775 105 167.942s84 42.316 105 52.895l5 178.194H0Z" fill="#444cf71a"/><path d="M0 19.893c21 2.163 63 2.782 105 10.812s63 9.865 105 29.338 63 53.111 105 68.026c42 14.916 63-17.255 105 6.55 42 23.806 63 104.74 105 112.479 42 7.74 63-84.209 105-73.781 42 10.427 63 105.776 105 125.917 42 20.142 63-42.04 105-25.21s63 108.476 105 109.36c42 .884 63-144.152 105-104.94 42 39.213 63 262.942 105 301.005 42 38.062 63-122.03 105-110.694 42 11.337 63 124.725 105 167.378 42 42.653 63 18.707 105 45.887s63 85.372 105 90.015c42 4.643 63-32.587 105-66.8 42-34.213 63-117 105-104.266 42 12.735 63 123.775 105 167.942s84 42.316 105 52.895" fill="none" stroke="#444cf7" stroke-width="4"/></svg>