<svg width="170" height="40" viewBox="0 0 170 40" fill="none" xmlns="http://www.w3.org/2000/svg">
<path d="M30.9411 4H16.1756V23.7517H35.9921V9.13898C36.0001 6.36441 33.7248 4 30.9411 4ZM11.6411 4H9.16401C6.38035 4 4.00012 6.25986 4.00012 9.14702V11.616H11.6411V4ZM4.00012 16.2403H11.6411V23.8562H4.00012V16.2403ZM28.3592 35.992H30.8362C33.6199 35.992 36.0001 33.7321 36.0001 30.8449V28.384H28.3592V35.992ZM16.1756 28.384H23.8166V36H16.1756V28.384ZM4.00012 28.384V30.853C4.00012 33.6275 6.26739 36 9.16401 36H11.6411V28.384H4.00012Z" fill="#98A2B3"/>
<path d="M49.168 26V14.8H50.896V24.432H56.288V26H49.168ZM61.5039 26.224C60.7039 26.224 60.0052 26.0587 59.4079 25.728C58.8105 25.3867 58.3412 24.912 57.9999 24.304C57.6692 23.6853 57.5039 22.9707 57.5039 22.16V21.968C57.5039 21.1467 57.6692 20.432 57.9999 19.824C58.3305 19.2053 58.7892 18.7307 59.3759 18.4C59.9732 18.0587 60.6612 17.888 61.4399 17.888C62.1972 17.888 62.8585 18.0587 63.4239 18.4C63.9999 18.7307 64.4479 19.1947 64.7679 19.792C65.0879 20.3893 65.2479 21.088 65.2479 21.888V22.512H59.1839C59.2052 23.2053 59.4345 23.76 59.8719 24.176C60.3199 24.5813 60.8745 24.784 61.5359 24.784C62.1545 24.784 62.6185 24.6453 62.9279 24.368C63.2479 24.0907 63.4932 23.7707 63.6639 23.408L65.0239 24.112C64.8745 24.4107 64.6559 24.7253 64.3679 25.056C64.0905 25.3867 63.7225 25.664 63.2639 25.888C62.8052 26.112 62.2185 26.224 61.5039 26.224ZM59.1999 21.248H63.5679C63.5252 20.6507 63.3119 20.1867 62.9279 19.856C62.5439 19.5147 62.0425 19.344 61.4239 19.344C60.8052 19.344 60.2985 19.5147 59.9039 19.856C59.5199 20.1867 59.2852 20.6507 59.1999 21.248ZM70.4956 26.224C69.845 26.224 69.2423 26.064 68.6876 25.744C68.133 25.424 67.685 24.9653 67.3436 24.368C67.013 23.76 66.8476 23.0293 66.8476 22.176V21.936C66.8476 21.0933 67.013 20.368 67.3436 19.76C67.6743 19.152 68.117 18.688 68.6716 18.368C69.2263 18.048 69.8343 17.888 70.4956 17.888C71.0076 17.888 71.4343 17.952 71.7756 18.08C72.1276 18.208 72.4156 18.3733 72.6396 18.576C72.8636 18.768 73.0343 18.9707 73.1516 19.184H73.4076V14.8H75.0556V26H73.4396V24.88H73.1836C72.981 25.2213 72.6716 25.5307 72.2556 25.808C71.8503 26.0853 71.2636 26.224 70.4956 26.224ZM70.9596 24.784C71.6743 24.784 72.261 24.5547 72.7196 24.096C73.189 23.6373 73.4236 22.9813 73.4236 22.128V21.984C73.4236 21.1413 73.1943 20.4907 72.7356 20.032C72.277 19.5733 71.685 19.344 70.9596 19.344C70.2556 19.344 69.669 19.5733 69.1996 20.032C68.741 20.4907 68.5116 21.1413 68.5116 21.984V22.128C68.5116 22.9813 68.741 23.6373 69.1996 24.096C69.669 24.5547 70.2556 24.784 70.9596 24.784ZM77.0976 22.096V21.856C77.0976 21.024 77.263 20.3147 77.5936 19.728C77.935 19.1413 78.383 18.688 78.9376 18.368C79.4923 18.048 80.1003 17.888 80.7616 17.888C81.5296 17.888 82.1163 18.032 82.5216 18.32C82.9376 18.608 83.2416 18.9173 83.4336 19.248H83.6896V18.112H85.2896V27.616C85.2896 28.096 85.1456 28.48 84.8576 28.768C84.5803 29.056 84.1963 29.2 83.7056 29.2H78.3936V27.76H83.1936C83.503 27.76 83.6576 27.6 83.6576 27.28V24.768H83.4016C83.2843 24.96 83.119 25.1573 82.9056 25.36C82.6923 25.5627 82.4096 25.728 82.0576 25.856C81.7163 25.984 81.2843 26.048 80.7616 26.048C80.1003 26.048 79.487 25.8933 78.9216 25.584C78.367 25.264 77.9243 24.8107 77.5936 24.224C77.263 23.6267 77.0976 22.9173 77.0976 22.096ZM81.2096 24.608C81.9243 24.608 82.511 24.384 82.9696 23.936C83.439 23.4773 83.6736 22.848 83.6736 22.048V21.904C83.6736 21.0827 83.4443 20.4533 82.9856 20.016C82.527 19.568 81.935 19.344 81.2096 19.344C80.5056 19.344 79.919 19.568 79.4496 20.016C78.991 20.4533 78.7616 21.0827 78.7616 21.904V22.048C78.7616 22.848 78.991 23.4773 79.4496 23.936C79.919 24.384 80.5056 24.608 81.2096 24.608ZM91.332 26.224C90.532 26.224 89.8333 26.0587 89.236 25.728C88.6387 25.3867 88.1693 24.912 87.828 24.304C87.4973 23.6853 87.332 22.9707 87.332 22.16V21.968C87.332 21.1467 87.4973 20.432 87.828 19.824C88.1587 19.2053 88.6173 18.7307 89.204 18.4C89.8013 18.0587 90.4893 17.888 91.268 17.888C92.0253 17.888 92.6867 18.0587 93.252 18.4C93.828 18.7307 94.276 19.1947 94.596 19.792C94.916 20.3893 95.076 21.088 95.076 21.888V22.512H89.012C89.0333 23.2053 89.2627 23.76 89.7 24.176C90.148 24.5813 90.7027 24.784 91.364 24.784C91.9827 24.784 92.4467 24.6453 92.756 24.368C93.076 24.0907 93.3213 23.7707 93.492 23.408L94.852 24.112C94.7027 24.4107 94.484 24.7253 94.196 25.056C93.9187 25.3867 93.5507 25.664 93.092 25.888C92.6333 26.112 92.0467 26.224 91.332 26.224ZM89.028 21.248H93.396C93.3533 20.6507 93.14 20.1867 92.756 19.856C92.372 19.5147 91.8707 19.344 91.252 19.344C90.6333 19.344 90.1267 19.5147 89.732 19.856C89.348 20.1867 89.1133 20.6507 89.028 21.248ZM97.0598 26V18.112H98.6758V19.04H98.9318C99.0598 18.7093 99.2624 18.4693 99.5398 18.32C99.8278 18.16 100.18 18.08 100.596 18.08H101.54V19.568H100.532C99.9984 19.568 99.5611 19.7173 99.2198 20.016C98.8784 20.304 98.7078 20.752 98.7078 21.36V26H97.0598ZM107.277 26V14.8H110.605L113.645 24.848H113.901V14.8H115.613V26H112.285L109.245 15.936H108.989V26H107.277ZM120.445 26.224C119.88 26.224 119.373 26.128 118.925 25.936C118.488 25.744 118.136 25.4613 117.869 25.088C117.613 24.7147 117.485 24.2613 117.485 23.728C117.485 23.184 117.613 22.736 117.869 22.384C118.136 22.0213 118.493 21.7493 118.941 21.568C119.4 21.3867 119.917 21.296 120.493 21.296H122.893V20.784C122.893 20.3253 122.755 19.9573 122.477 19.68C122.2 19.4027 121.773 19.264 121.197 19.264C120.632 19.264 120.2 19.3973 119.901 19.664C119.603 19.9307 119.405 20.2773 119.309 20.704L117.773 20.208C117.901 19.7813 118.104 19.3973 118.381 19.056C118.669 18.704 119.048 18.4213 119.517 18.208C119.987 17.9947 120.552 17.888 121.213 17.888C122.237 17.888 123.043 18.1493 123.629 18.672C124.216 19.1947 124.509 19.936 124.509 20.896V24.144C124.509 24.464 124.659 24.624 124.957 24.624H125.629V26H124.397C124.024 26 123.72 25.904 123.485 25.712C123.251 25.52 123.133 25.2587 123.133 24.928V24.88H122.893C122.808 25.04 122.68 25.2267 122.509 25.44C122.339 25.6533 122.088 25.84 121.757 26C121.427 26.1493 120.989 26.224 120.445 26.224ZM120.685 24.864C121.347 24.864 121.88 24.6773 122.285 24.304C122.691 23.92 122.893 23.3973 122.893 22.736V22.576H120.589C120.152 22.576 119.8 22.672 119.533 22.864C119.267 23.0453 119.133 23.3173 119.133 23.68C119.133 24.0427 119.272 24.3307 119.549 24.544C119.827 24.7573 120.205 24.864 120.685 24.864ZM127.232 26V18.112H128.848V19.296H129.104C129.253 18.976 129.52 18.6773 129.904 18.4C130.288 18.1227 130.858 17.984 131.616 17.984C132.213 17.984 132.741 18.1173 133.2 18.384C133.669 18.6507 134.037 19.0293 134.304 19.52C134.57 20 134.704 20.5813 134.704 21.264V26H133.056V21.392C133.056 20.7093 132.885 20.208 132.544 19.888C132.202 19.5573 131.733 19.392 131.136 19.392C130.453 19.392 129.904 19.616 129.488 20.064C129.082 20.512 128.88 21.1627 128.88 22.016V26H127.232ZM140.771 26.224C139.982 26.224 139.278 26.064 138.659 25.744C138.051 25.4133 137.571 24.944 137.219 24.336C136.867 23.728 136.691 23.008 136.691 22.176V21.936C136.691 21.104 136.867 20.3893 137.219 19.792C137.571 19.184 138.051 18.7147 138.659 18.384C139.278 18.0533 139.982 17.888 140.771 17.888C141.561 17.888 142.265 18.0533 142.883 18.384C143.502 18.7147 143.987 19.184 144.339 19.792C144.691 20.3893 144.867 21.104 144.867 21.936V22.176C144.867 23.008 144.691 23.728 144.339 24.336C143.987 24.944 143.502 25.4133 142.883 25.744C142.265 26.064 141.561 26.224 140.771 26.224ZM140.771 24.752C141.497 24.752 142.083 24.5227 142.531 24.064C142.99 23.5947 143.219 22.9493 143.219 22.128V21.984C143.219 21.1627 142.995 20.5227 142.547 20.064C142.099 19.5947 141.507 19.36 140.771 19.36C140.057 19.36 139.47 19.5947 139.011 20.064C138.563 20.5227 138.339 21.1627 138.339 21.984V22.128C138.339 22.9493 138.563 23.5947 139.011 24.064C139.47 24.5227 140.057 24.752 140.771 24.752ZM154.757 26.224C153.915 26.224 153.168 26.0747 152.517 25.776C151.867 25.4773 151.355 25.04 150.981 24.464C150.619 23.8773 150.437 23.168 150.437 22.336V21.936H152.149V22.336C152.149 23.1253 152.384 23.7173 152.853 24.112C153.333 24.5067 153.968 24.704 154.757 24.704C155.557 24.704 156.16 24.5387 156.565 24.208C156.971 23.8667 157.173 23.4293 157.173 22.896C157.173 22.544 157.077 22.256 156.885 22.032C156.693 21.808 156.421 21.632 156.069 21.504C155.717 21.3653 155.296 21.2373 154.805 21.12L154.213 20.976C153.499 20.8053 152.875 20.5973 152.341 20.352C151.819 20.096 151.413 19.76 151.125 19.344C150.837 18.928 150.693 18.3947 150.693 17.744C150.693 17.0827 150.853 16.5173 151.173 16.048C151.504 15.5787 151.957 15.216 152.533 14.96C153.109 14.704 153.787 14.576 154.565 14.576C155.344 14.576 156.037 14.7093 156.645 14.976C157.264 15.2427 157.749 15.6373 158.101 16.16C158.453 16.6827 158.629 17.3387 158.629 18.128V18.704H156.917V18.128C156.917 17.648 156.816 17.2587 156.613 16.96C156.421 16.6613 156.149 16.4427 155.797 16.304C155.445 16.1653 155.035 16.096 154.565 16.096C153.883 16.096 153.349 16.24 152.965 16.528C152.592 16.8053 152.405 17.1947 152.405 17.696C152.405 18.0373 152.485 18.32 152.645 18.544C152.816 18.7573 153.061 18.9333 153.381 19.072C153.701 19.2107 154.101 19.3333 154.581 19.44L155.173 19.584C155.899 19.744 156.539 19.952 157.093 20.208C157.648 20.4533 158.085 20.7893 158.405 21.216C158.725 21.6427 158.885 22.192 158.885 22.864C158.885 23.536 158.715 24.1227 158.373 24.624C158.043 25.1253 157.568 25.52 156.949 25.808C156.331 26.0853 155.6 26.224 154.757 26.224Z" fill="#98A2B3"/>
</svg>
