<svg width="137" height="23" viewBox="0 0 137 23" fill="none" xmlns="http://www.w3.org/2000/svg">
<path d="M0.82 22.5V1.5H9.46C11.32 1.5 12.91 1.8 14.23 2.4C15.57 3 16.6 3.86 17.32 4.98C18.04 6.1 18.4 7.43 18.4 8.97C18.4 10.51 18.04 11.84 17.32 12.96C16.6 14.06 15.57 14.91 14.23 15.51C12.91 16.09 11.32 16.38 9.46 16.38H2.98L4.72 14.61V22.5H0.82ZM14.56 22.5L9.25 14.88H13.42L18.76 22.5H14.56ZM4.72 15.03L2.98 13.17H9.28C11 13.17 12.29 12.8 13.15 12.06C14.03 11.32 14.47 10.29 14.47 8.97C14.47 7.63 14.03 6.6 13.15 5.88C12.29 5.16 11 4.8 9.28 4.8H2.98L4.72 2.88V15.03ZM29.9334 22.71C28.1534 22.71 26.5934 22.36 25.2534 21.66C23.9334 20.94 22.9034 19.96 22.1634 18.72C21.4434 17.48 21.0834 16.07 21.0834 14.49C21.0834 12.89 21.4334 11.48 22.1334 10.26C22.8534 9.02 23.8334 8.05 25.0734 7.35C26.3334 6.65 27.7634 6.3 29.3634 6.3C30.9234 6.3 32.3134 6.64 33.5334 7.32C34.7534 8 35.7134 8.96 36.4134 10.2C37.1134 11.44 37.4634 12.9 37.4634 14.58C37.4634 14.74 37.4534 14.92 37.4334 15.12C37.4334 15.32 37.4234 15.51 37.4034 15.69H24.0534V13.2H35.4234L33.9534 13.98C33.9734 13.06 33.7834 12.25 33.3834 11.55C32.9834 10.85 32.4334 10.3 31.7334 9.9C31.0534 9.5 30.2634 9.3 29.3634 9.3C28.4434 9.3 27.6334 9.5 26.9334 9.9C26.2534 10.3 25.7134 10.86 25.3134 11.58C24.9334 12.28 24.7434 13.11 24.7434 14.07V14.67C24.7434 15.63 24.9634 16.48 25.4034 17.22C25.8434 17.96 26.4634 18.53 27.2634 18.93C28.0634 19.33 28.9834 19.53 30.0234 19.53C30.9234 19.53 31.7334 19.39 32.4534 19.11C33.1734 18.83 33.8134 18.39 34.3734 17.79L36.3834 20.1C35.6634 20.94 34.7534 21.59 33.6534 22.05C32.5734 22.49 31.3334 22.71 29.9334 22.71ZM45.7895 22.5L38.8295 1.5H42.8795L49.0895 20.49H47.0795L53.5295 1.5H57.1295L63.3995 20.49H61.4495L67.8095 1.5H71.5295L64.5695 22.5H60.4295L54.6995 5.37H55.7795L49.9595 22.5H45.7895ZM83.0155 22.5V19.26L82.8055 18.57V12.9C82.8055 11.8 82.4755 10.95 81.8155 10.35C81.1555 9.73 80.1555 9.42 78.8155 9.42C77.9155 9.42 77.0255 9.56 76.1455 9.84C75.2855 10.12 74.5555 10.51 73.9555 11.01L72.4855 8.28C73.3455 7.62 74.3655 7.13 75.5455 6.81C76.7455 6.47 77.9855 6.3 79.2655 6.3C81.5855 6.3 83.3755 6.86 84.6355 7.98C85.9155 9.08 86.5555 10.79 86.5555 13.11V22.5H83.0155ZM77.9755 22.71C76.7755 22.71 75.7255 22.51 74.8255 22.11C73.9255 21.69 73.2255 21.12 72.7255 20.4C72.2455 19.66 72.0055 18.83 72.0055 17.91C72.0055 17.01 72.2155 16.2 72.6355 15.48C73.0755 14.76 73.7855 14.19 74.7655 13.77C75.7455 13.35 77.0455 13.14 78.6655 13.14H83.3155V15.63H78.9355C77.6555 15.63 76.7955 15.84 76.3555 16.26C75.9155 16.66 75.6955 17.16 75.6955 17.76C75.6955 18.44 75.9655 18.98 76.5055 19.38C77.0455 19.78 77.7955 19.98 78.7555 19.98C79.6755 19.98 80.4955 19.77 81.2155 19.35C81.9555 18.93 82.4855 18.31 82.8055 17.49L83.4355 19.74C83.0755 20.68 82.4255 21.41 81.4855 21.93C80.5655 22.45 79.3955 22.71 77.9755 22.71ZM91.3682 22.5V0.239999H95.1182V22.5H91.3682ZM100.04 22.5V0.239999H103.79V22.5H100.04ZM116.242 22.71C114.462 22.71 112.902 22.36 111.562 21.66C110.242 20.94 109.212 19.96 108.472 18.72C107.752 17.48 107.392 16.07 107.392 14.49C107.392 12.89 107.742 11.48 108.442 10.26C109.162 9.02 110.142 8.05 111.382 7.35C112.642 6.65 114.072 6.3 115.672 6.3C117.232 6.3 118.622 6.64 119.842 7.32C121.062 8 122.022 8.96 122.722 10.2C123.422 11.44 123.772 12.9 123.772 14.58C123.772 14.74 123.762 14.92 123.742 15.12C123.742 15.32 123.732 15.51 123.712 15.69H110.362V13.2H121.732L120.262 13.98C120.282 13.06 120.092 12.25 119.692 11.55C119.292 10.85 118.742 10.3 118.042 9.9C117.362 9.5 116.572 9.3 115.672 9.3C114.752 9.3 113.942 9.5 113.242 9.9C112.562 10.3 112.022 10.86 111.622 11.58C111.242 12.28 111.052 13.11 111.052 14.07V14.67C111.052 15.63 111.272 16.48 111.712 17.22C112.152 17.96 112.772 18.53 113.572 18.93C114.372 19.33 115.292 19.53 116.332 19.53C117.232 19.53 118.042 19.39 118.762 19.11C119.482 18.83 120.122 18.39 120.682 17.79L122.692 20.1C121.972 20.94 121.062 21.59 119.962 22.05C118.882 22.49 117.642 22.71 116.242 22.71ZM133.404 22.71C131.644 22.71 130.284 22.26 129.324 21.36C128.364 20.44 127.884 19.09 127.884 17.31V2.94H131.634V17.22C131.634 17.98 131.824 18.57 132.204 18.99C132.604 19.41 133.154 19.62 133.854 19.62C134.694 19.62 135.394 19.4 135.954 18.96L137.004 21.63C136.564 21.99 136.024 22.26 135.384 22.44C134.744 22.62 134.084 22.71 133.404 22.71ZM125.244 9.6V6.6H135.924V9.6H125.244Z" fill="#1A1E42"/>
<path d="M0.82 22.5H-0.18V23.5H0.82V22.5ZM0.82 1.5V0.499999H-0.18V1.5H0.82ZM14.23 2.4L13.8162 3.31038L13.8213 3.31268L14.23 2.4ZM17.32 4.98L18.1612 4.43924L18.1612 4.43924L17.32 4.98ZM17.32 12.96L18.1567 13.5077L18.1612 13.5008L17.32 12.96ZM14.23 15.51L14.6323 16.4255L14.6387 16.4227L14.23 15.51ZM2.98 16.38L2.26688 15.679L0.59467 17.38H2.98V16.38ZM4.72 14.61H5.72V12.1663L4.00688 13.909L4.72 14.61ZM4.72 22.5V23.5H5.72V22.5H4.72ZM14.56 22.5L13.7396 23.0717L14.038 23.5H14.56V22.5ZM9.25 14.88V13.88H7.3343L8.42956 15.4517L9.25 14.88ZM13.42 14.88L14.2389 14.3061L13.9403 13.88H13.42V14.88ZM18.76 22.5V23.5H20.6819L19.5789 21.9261L18.76 22.5ZM4.72 15.03L3.98973 15.7132L5.72 17.5628V15.03H4.72ZM2.98 13.17V12.17H0.675163L2.24973 13.8532L2.98 13.17ZM13.15 12.06L12.5064 11.2946L12.4978 11.302L13.15 12.06ZM13.15 5.88L12.508 6.64681L12.5168 6.65396L13.15 5.88ZM2.98 4.8L2.23901 4.12848L0.724199 5.8H2.98V4.8ZM4.72 2.88H5.72V0.28739L3.97901 2.20848L4.72 2.88ZM1.82 22.5V1.5H-0.18V22.5H1.82ZM0.82 2.5H9.46V0.499999H0.82V2.5ZM9.46 2.5C11.2161 2.5 12.6574 2.78364 13.8162 3.31037L14.6438 1.48963C13.1626 0.816357 11.4239 0.499999 9.46 0.499999V2.5ZM13.8213 3.31268C15.003 3.84179 15.8745 4.58068 16.4788 5.52076L18.1612 4.43924C17.3255 3.13931 16.137 2.1582 14.6387 1.48731L13.8213 3.31268ZM16.4788 5.52076C17.0797 6.45544 17.4 7.59104 17.4 8.97H19.4C19.4 7.26896 19.0003 5.74456 18.1612 4.43924L16.4788 5.52076ZM17.4 8.97C17.4 10.349 17.0797 11.4846 16.4788 12.4192L18.1612 13.5008C19.0003 12.1954 19.4 10.671 19.4 8.97H17.4ZM16.4833 12.4123C15.8801 13.3339 15.0077 14.0661 13.8213 14.5973L14.6387 16.4227C16.1323 15.7539 17.3199 14.7861 18.1567 13.5077L16.4833 12.4123ZM13.8277 14.5945C12.6656 15.1051 11.22 15.38 9.46 15.38V17.38C11.42 17.38 13.1544 17.0749 14.6323 16.4255L13.8277 14.5945ZM9.46 15.38H2.98V17.38H9.46V15.38ZM3.69312 17.081L5.43312 15.311L4.00688 13.909L2.26688 15.679L3.69312 17.081ZM3.72 14.61V22.5H5.72V14.61H3.72ZM4.72 21.5H0.82V23.5H4.72V21.5ZM15.3804 21.9283L10.0704 14.3083L8.42956 15.4517L13.7396 23.0717L15.3804 21.9283ZM9.25 15.88H13.42V13.88H9.25V15.88ZM12.6011 15.4539L17.9411 23.0739L19.5789 21.9261L14.2389 14.3061L12.6011 15.4539ZM18.76 21.5H14.56V23.5H18.76V21.5ZM5.45027 14.3468L3.71027 12.4868L2.24973 13.8532L3.98973 15.7132L5.45027 14.3468ZM2.98 14.17H9.28V12.17H2.98V14.17ZM9.28 14.17C11.1204 14.17 12.6874 13.7773 13.8022 12.818L12.4978 11.302C11.8926 11.8227 10.8796 12.17 9.28 12.17V14.17ZM13.7936 12.8254C14.9344 11.866 15.47 10.5364 15.47 8.97H13.47C13.47 10.0436 13.1256 10.774 12.5064 11.2946L13.7936 12.8254ZM15.47 8.97C15.47 7.38967 14.9379 6.05074 13.7832 5.10604L12.5168 6.65396C13.1221 7.14926 13.47 7.87033 13.47 8.97H15.47ZM13.7919 5.11324C12.6777 4.18039 11.1151 3.8 9.28 3.8V5.8C10.8849 5.8 11.9023 6.1396 12.5081 6.64676L13.7919 5.11324ZM9.28 3.8H2.98V5.8H9.28V3.8ZM3.72099 5.47152L5.46099 3.55152L3.97901 2.20848L2.23901 4.12848L3.72099 5.47152ZM3.72 2.88V15.03H5.72V2.88H3.72ZM25.2534 21.66L24.7745 22.5379L24.7824 22.5422L24.7903 22.5463L25.2534 21.66ZM22.1634 18.72L21.2985 19.2222L21.3046 19.2325L22.1634 18.72ZM22.1334 10.26L21.2686 9.75786L21.266 9.76233L22.1334 10.26ZM25.0734 7.35L24.5877 6.47582L24.5818 6.47918L25.0734 7.35ZM33.5334 7.32L34.0202 6.44652L34.0202 6.44652L33.5334 7.32ZM36.4134 10.2L35.5425 10.6916L36.4134 10.2ZM37.4334 15.12L36.4383 15.0205L36.4334 15.0701V15.12H37.4334ZM37.4034 15.69V16.69H38.2984L38.3972 15.8004L37.4034 15.69ZM24.0534 15.69H23.0534V16.69H24.0534V15.69ZM24.0534 13.2V12.2H23.0534V13.2H24.0534ZM35.4234 13.2L35.8921 14.0833L35.4234 12.2V13.2ZM33.9534 13.98L32.9536 13.9583L32.9166 15.6622L34.4221 14.8633L33.9534 13.98ZM33.3834 11.55L32.5151 12.0461L32.5151 12.0461L33.3834 11.55ZM31.7334 9.9L31.2263 10.762L31.2372 10.7682L31.7334 9.9ZM26.9334 9.9L26.4372 9.03169L26.4263 9.03807L26.9334 9.9ZM25.3134 11.58L24.4392 11.0943L24.4345 11.1029L25.3134 11.58ZM27.2634 18.93L26.8161 19.8244L26.8161 19.8244L27.2634 18.93ZM32.4534 19.11L32.8158 20.042L32.8158 20.042L32.4534 19.11ZM34.3734 17.79L35.1278 17.1336L34.3994 16.2965L33.6423 17.1077L34.3734 17.79ZM36.3834 20.1L37.1426 20.7508L37.7047 20.0951L37.1378 19.4436L36.3834 20.1ZM33.6534 22.05L34.0307 22.9761L34.0392 22.9726L33.6534 22.05ZM29.9334 21.71C28.286 21.71 26.8901 21.3868 25.7164 20.7737L24.7903 22.5463C26.2966 23.3332 28.0207 23.71 29.9334 23.71V21.71ZM25.7322 20.7821C24.5625 20.1441 23.6665 19.2875 23.0221 18.2075L21.3046 19.2325C22.1402 20.6325 23.3043 21.7359 24.7745 22.5379L25.7322 20.7821ZM23.0281 18.2179C22.4055 17.1456 22.0834 15.9121 22.0834 14.49H20.0834C20.0834 16.2279 20.4812 17.8144 21.2986 19.2221L23.0281 18.2179ZM22.0834 14.49C22.0834 13.0402 22.399 11.8063 23.0007 10.7577L21.266 9.76233C20.4677 11.1537 20.0834 12.7398 20.0834 14.49H22.0834ZM22.9981 10.7621C23.6294 9.67492 24.4811 8.83269 25.565 8.22082L24.5818 6.47918C23.1856 7.26731 22.0773 8.36508 21.2686 9.75786L22.9981 10.7621ZM25.559 8.22416C26.6546 7.61549 27.9142 7.3 29.3634 7.3V5.3C27.6125 5.3 26.0121 5.68451 24.5877 6.47584L25.559 8.22416ZM29.3634 7.3C30.7733 7.3 31.9921 7.60581 33.0465 8.19348L34.0202 6.44652C32.6346 5.67419 31.0735 5.3 29.3634 5.3V7.3ZM33.0465 8.19348C34.1026 8.7821 34.9311 9.60849 35.5425 10.6916L37.2842 9.7084C36.4956 8.31151 35.4042 7.2179 34.0202 6.44652L33.0465 8.19348ZM35.5425 10.6916C36.1438 11.7566 36.4634 13.0411 36.4634 14.58H38.4634C38.4634 12.7589 38.0829 11.1234 37.2842 9.7084L35.5425 10.6916ZM36.4634 14.58C36.4634 14.6996 36.4558 14.8456 36.4383 15.0205L38.4284 15.2195C38.4509 14.9944 38.4634 14.7804 38.4634 14.58H36.4634ZM36.4334 15.12C36.4334 15.2869 36.425 15.4398 36.4095 15.5796L38.3972 15.8004C38.4217 15.5802 38.4334 15.3531 38.4334 15.12H36.4334ZM37.4034 14.69H24.0534V16.69H37.4034V14.69ZM25.0534 15.69V13.2H23.0534V15.69H25.0534ZM24.0534 14.2H35.4234V12.2H24.0534V14.2ZM34.9546 12.3167L33.4846 13.0967L34.4221 14.8633L35.8921 14.0833L34.9546 12.3167ZM34.9531 14.0017C34.9765 12.9265 34.7538 11.9326 34.2516 11.0539L32.5151 12.0461C32.813 12.5674 32.9702 13.1935 32.9536 13.9583L34.9531 14.0017ZM34.2516 11.0539C33.763 10.1988 33.0845 9.52035 32.2295 9.03176L31.2372 10.7682C31.7822 11.0797 32.2037 11.5012 32.5151 12.0461L34.2516 11.0539ZM32.2404 9.03807C31.3861 8.53553 30.4161 8.3 29.3634 8.3V10.3C30.1106 10.3 30.7206 10.4645 31.2263 10.7619L32.2404 9.03807ZM29.3634 8.3C28.2943 8.3 27.3086 8.53383 26.4372 9.03176L27.4295 10.7682C27.9581 10.4662 28.5924 10.3 29.3634 10.3V8.3ZM26.4263 9.03807C25.5857 9.53257 24.9219 10.2256 24.4392 11.0944L26.1875 12.0656C26.5049 11.4944 26.921 11.0674 27.4404 10.7619L26.4263 9.03807ZM24.4345 11.1029C23.9602 11.9766 23.7434 12.9774 23.7434 14.07H25.7434C25.7434 13.2426 25.9065 12.5834 26.1922 12.0571L24.4345 11.1029ZM23.7434 14.07V14.67H25.7434V14.07H23.7434ZM23.7434 14.67C23.7434 15.7887 24.0016 16.8192 24.5438 17.7311L26.2629 16.7089C25.9251 16.1408 25.7434 15.4713 25.7434 14.67H23.7434ZM24.5438 17.7311C25.0857 18.6423 25.8519 19.3423 26.8161 19.8244L27.7106 18.0356C27.0749 17.7177 26.6011 17.2777 26.2629 16.7089L24.5438 17.7311ZM26.8161 19.8244C27.7759 20.3043 28.8534 20.53 30.0234 20.53V18.53C29.1134 18.53 28.3508 18.3557 27.7106 18.0356L26.8161 19.8244ZM30.0234 20.53C31.0272 20.53 31.9629 20.3737 32.8158 20.042L32.0909 18.178C31.5039 18.4063 30.8195 18.53 30.0234 18.53V20.53ZM32.8158 20.042C33.6845 19.7042 34.4484 19.1752 35.1044 18.4723L33.6423 17.1077C33.1783 17.6048 32.6622 17.9558 32.0909 18.178L32.8158 20.042ZM33.619 18.4464L35.629 20.7564L37.1378 19.4436L35.1278 17.1336L33.619 18.4464ZM35.6241 19.4492C35.0134 20.1616 34.235 20.7229 33.2676 21.1274L34.0392 22.9726C35.2717 22.4571 36.3133 21.7184 37.1426 20.7508L35.6241 19.4492ZM33.2761 21.1239C32.3373 21.5064 31.2293 21.71 29.9334 21.71V23.71C31.4374 23.71 32.8094 23.4736 34.0307 22.9761L33.2761 21.1239ZM45.7895 22.5L44.8403 22.8146L45.0675 23.5H45.7895V22.5ZM38.8295 1.5V0.499999H37.4446L37.8803 1.8146L38.8295 1.5ZM42.8795 1.5L43.83 1.18918L43.6046 0.499999H42.8795V1.5ZM49.0895 20.49V21.49H50.4687L50.04 20.1792L49.0895 20.49ZM47.0795 20.49L46.1327 20.1684L45.6838 21.49H47.0795V20.49ZM53.5295 1.5V0.499999H52.8131L52.5827 1.17839L53.5295 1.5ZM57.1295 1.5L58.0791 1.18647L57.8525 0.499999H57.1295V1.5ZM63.3995 20.49V21.49H64.7828L64.3491 20.1765L63.3995 20.49ZM61.4495 20.49L60.5013 20.1724L60.06 21.49H61.4495V20.49ZM67.8095 1.5V0.499999H67.0899L66.8613 1.18242L67.8095 1.5ZM71.5295 1.5L72.4788 1.8146L72.9145 0.499999H71.5295V1.5ZM64.5695 22.5V23.5H65.2916L65.5188 22.8146L64.5695 22.5ZM60.4295 22.5L59.4812 22.8172L59.7096 23.5H60.4295V22.5ZM54.6995 5.37V4.37H53.3106L53.7512 5.68722L54.6995 5.37ZM55.7795 5.37L56.7264 5.69169L57.1754 4.37H55.7795V5.37ZM49.9595 22.5V23.5H50.6759L50.9064 22.8217L49.9595 22.5ZM46.7388 22.1854L39.7788 1.1854L37.8803 1.8146L44.8403 22.8146L46.7388 22.1854ZM38.8295 2.5H42.8795V0.499999H38.8295V2.5ZM41.9291 1.81082L48.1391 20.8008L50.04 20.1792L43.83 1.18918L41.9291 1.81082ZM49.0895 19.49H47.0795V21.49H49.0895V19.49ZM48.0264 20.8116L54.4764 1.82161L52.5827 1.17839L46.1327 20.1684L48.0264 20.8116ZM53.5295 2.5H57.1295V0.499999H53.5295V2.5ZM56.18 1.81352L62.45 20.8035L64.3491 20.1765L58.0791 1.18647L56.18 1.81352ZM63.3995 19.49H61.4495V21.49H63.3995V19.49ZM62.3978 20.8076L68.7578 1.81757L66.8613 1.18242L60.5013 20.1724L62.3978 20.8076ZM67.8095 2.5H71.5295V0.499999H67.8095V2.5ZM70.5803 1.1854L63.6203 22.1854L65.5188 22.8146L72.4788 1.8146L70.5803 1.1854ZM64.5695 21.5H60.4295V23.5H64.5695V21.5ZM61.3779 22.1828L55.6479 5.05277L53.7512 5.68722L59.4812 22.8172L61.3779 22.1828ZM54.6995 6.37H55.7795V4.37H54.6995V6.37ZM54.8327 5.0483L49.0127 22.1783L50.9064 22.8217L56.7264 5.69169L54.8327 5.0483ZM49.9595 21.5H45.7895V23.5H49.9595V21.5ZM83.0155 22.5H82.0155V23.5H83.0155V22.5ZM83.0155 19.26H84.0155V19.1112L83.9722 18.9688L83.0155 19.26ZM82.8055 18.57H81.8055V18.7188L81.8489 18.8612L82.8055 18.57ZM81.8155 10.35L81.1309 11.0788L81.1368 11.0844L81.1429 11.0899L81.8155 10.35ZM76.1455 9.84L75.8423 8.88705L75.836 8.88913L76.1455 9.84ZM73.9555 11.01L73.0751 11.4841L73.6554 12.5618L74.5957 11.7782L73.9555 11.01ZM72.4855 8.28L71.8767 7.48669L71.2016 8.0048L71.6051 8.7541L72.4855 8.28ZM75.5455 6.81L75.8073 7.7752L75.8181 7.77213L75.5455 6.81ZM84.6355 7.98L83.9712 8.72741L83.9774 8.73297L83.9838 8.73842L84.6355 7.98ZM86.5555 22.5V23.5H87.5555V22.5H86.5555ZM74.8255 22.11L74.4027 23.0162L74.411 23.0201L74.4194 23.0238L74.8255 22.11ZM72.7255 20.4L71.8866 20.9442L71.8952 20.9574L71.9042 20.9704L72.7255 20.4ZM72.6355 15.48L71.7823 14.9585L71.7769 14.9673L71.7718 14.9761L72.6355 15.48ZM74.7655 13.77L75.1595 14.6891L75.1595 14.6891L74.7655 13.77ZM83.3155 13.14H84.3155V12.14H83.3155V13.14ZM83.3155 15.63V16.63H84.3155V15.63H83.3155ZM76.3555 16.26L77.0282 16.9999L77.0372 16.9918L77.046 16.9834L76.3555 16.26ZM76.5055 19.38L75.9103 20.1836L75.9103 20.1836L76.5055 19.38ZM81.2155 19.35L80.7219 18.4803L80.7117 18.4862L81.2155 19.35ZM82.8055 17.49L83.7685 17.2204L82.9617 14.339L81.874 17.1265L82.8055 17.49ZM83.4355 19.74L84.3694 20.0976L84.4877 19.7888L84.3985 19.4704L83.4355 19.74ZM81.4855 21.93L81.0015 21.0549L80.9935 21.0594L81.4855 21.93ZM84.0155 22.5V19.26H82.0155V22.5H84.0155ZM83.9722 18.9688L83.7622 18.2788L81.8489 18.8612L82.0589 19.5512L83.9722 18.9688ZM83.8055 18.57V12.9H81.8055V18.57H83.8055ZM83.8055 12.9C83.8055 11.5891 83.4039 10.4425 82.4882 9.61006L81.1429 11.0899C81.5472 11.4575 81.8055 12.0109 81.8055 12.9H83.8055ZM82.5002 9.62115C81.5827 8.7592 80.2898 8.42 78.8155 8.42V10.42C80.0213 10.42 80.7284 10.7008 81.1309 11.0788L82.5002 9.62115ZM78.8155 8.42C77.81 8.42 76.8178 8.5767 75.8423 8.88707L76.4488 10.7929C77.2333 10.5433 78.0211 10.42 78.8155 10.42V8.42ZM75.836 8.88913C74.874 9.20232 74.0271 9.64866 73.3154 10.2418L74.5957 11.7782C75.084 11.3713 75.6971 11.0377 76.4551 10.7909L75.836 8.88913ZM74.836 10.5359L73.366 7.8059L71.6051 8.7541L73.0751 11.4841L74.836 10.5359ZM73.0944 9.07331C73.8386 8.50217 74.737 8.06537 75.8073 7.77514L75.2838 5.84486C73.994 6.19463 72.8525 6.73783 71.8767 7.48669L73.0944 9.07331ZM75.8181 7.77213C76.9271 7.45791 78.0753 7.3 79.2655 7.3V5.3C77.8958 5.3 76.5639 5.48209 75.2729 5.84787L75.8181 7.77213ZM79.2655 7.3C81.4331 7.3 82.9532 7.82256 83.9712 8.72741L85.2999 7.23259C83.7979 5.89744 81.738 5.3 79.2655 5.3V7.3ZM83.9838 8.73842C84.9687 9.5848 85.5555 10.9671 85.5555 13.11H87.5555C87.5555 10.6129 86.8624 8.5752 85.2873 7.22158L83.9838 8.73842ZM85.5555 13.11V22.5H87.5555V13.11H85.5555ZM86.5555 21.5H83.0155V23.5H86.5555V21.5ZM77.9755 21.71C76.8856 21.71 75.9791 21.5284 75.2317 21.1962L74.4194 23.0238C75.472 23.4916 76.6655 23.71 77.9755 23.71V21.71ZM75.2484 21.2038C74.4869 20.8484 73.9333 20.3859 73.5469 19.8296L71.9042 20.9704C72.5178 21.8541 73.3642 22.5316 74.4027 23.0162L75.2484 21.2038ZM73.5645 19.8558C73.1943 19.285 73.0055 18.6456 73.0055 17.91H71.0055C71.0055 19.0144 71.2968 20.035 71.8866 20.9442L73.5645 19.8558ZM73.0055 17.91C73.0055 17.1725 73.1756 16.5388 73.4993 15.9839L71.7718 14.9761C71.2555 15.8612 71.0055 16.8475 71.0055 17.91H73.0055ZM73.4888 16.0014C73.7952 15.5002 74.3196 15.0491 75.1595 14.6891L74.3716 12.8509C73.2515 13.3309 72.3559 14.0198 71.7823 14.9585L73.4888 16.0014ZM75.1595 14.6891C75.9675 14.3428 77.1175 14.14 78.6655 14.14V12.14C76.9736 12.14 75.5235 12.3572 74.3716 12.8509L75.1595 14.6891ZM78.6655 14.14H83.3155V12.14H78.6655V14.14ZM82.3155 13.14V15.63H84.3155V13.14H82.3155ZM83.3155 14.63H78.9355V16.63H83.3155V14.63ZM78.9355 14.63C78.2478 14.63 77.627 14.6857 77.0933 14.816C76.5657 14.9449 76.0567 15.1628 75.6651 15.5366L77.046 16.9834C77.0944 16.9372 77.2354 16.8401 77.5678 16.759C77.8941 16.6793 78.3433 16.63 78.9355 16.63V14.63ZM75.6829 15.5201C75.0323 16.1115 74.6955 16.8812 74.6955 17.76H76.6955C76.6955 17.4388 76.7988 17.2085 77.0282 16.9999L75.6829 15.5201ZM74.6955 17.76C74.6955 18.7524 75.1122 19.5923 75.9103 20.1836L77.1008 18.5764C76.8189 18.3677 76.6955 18.1276 76.6955 17.76H74.6955ZM75.9103 20.1836C76.6824 20.7554 77.67 20.98 78.7555 20.98V18.98C77.9211 18.98 77.4087 18.8046 77.1008 18.5764L75.9103 20.1836ZM78.7555 20.98C79.8337 20.98 80.831 20.732 81.7194 20.2138L80.7117 18.4862C80.1601 18.808 79.5174 18.98 78.7555 18.98V20.98ZM81.7092 20.2197C82.6563 19.6821 83.3367 18.8796 83.7371 17.8535L81.874 17.1265C81.6344 17.7404 81.2548 18.1779 80.7219 18.4803L81.7092 20.2197ZM81.8426 17.7596L82.4726 20.0096L84.3985 19.4704L83.7685 17.2204L81.8426 17.7596ZM82.5017 19.3824C82.2319 20.0868 81.7502 20.6408 81.0015 21.055L81.9696 22.805C83.1008 22.1792 83.9192 21.2732 84.3694 20.0976L82.5017 19.3824ZM80.9935 21.0594C80.2665 21.4704 79.2802 21.71 77.9755 21.71V23.71C79.5109 23.71 80.8646 23.4296 81.9776 22.8006L80.9935 21.0594ZM91.3682 22.5H90.3682V23.5H91.3682V22.5ZM91.3682 0.239999V-0.760001H90.3682V0.239999H91.3682ZM95.1182 0.239999H96.1182V-0.760001H95.1182V0.239999ZM95.1182 22.5V23.5H96.1182V22.5H95.1182ZM92.3682 22.5V0.239999H90.3682V22.5H92.3682ZM91.3682 1.24H95.1182V-0.760001H91.3682V1.24ZM94.1182 0.239999V22.5H96.1182V0.239999H94.1182ZM95.1182 21.5H91.3682V23.5H95.1182V21.5ZM100.04 22.5H99.0401V23.5H100.04V22.5ZM100.04 0.239999V-0.760001H99.0401V0.239999H100.04ZM103.79 0.239999H104.79V-0.760001H103.79V0.239999ZM103.79 22.5V23.5H104.79V22.5H103.79ZM101.04 22.5V0.239999H99.0401V22.5H101.04ZM100.04 1.24H103.79V-0.760001H100.04V1.24ZM102.79 0.239999V22.5H104.79V0.239999H102.79ZM103.79 21.5H100.04V23.5H103.79V21.5ZM111.562 21.66L111.083 22.5379L111.091 22.5422L111.099 22.5463L111.562 21.66ZM108.472 18.72L107.607 19.2222L107.613 19.2325L108.472 18.72ZM108.442 10.26L107.577 9.75786L107.575 9.76233L108.442 10.26ZM111.382 7.35L110.896 6.47582L110.89 6.47918L111.382 7.35ZM119.842 7.32L120.329 6.44652L120.329 6.44652L119.842 7.32ZM122.722 10.2L121.851 10.6916L122.722 10.2ZM123.742 15.12L122.747 15.0205L122.742 15.0701V15.12H123.742ZM123.712 15.69V16.69H124.607L124.706 15.8004L123.712 15.69ZM110.362 15.69H109.362V16.69H110.362V15.69ZM110.362 13.2V12.2H109.362V13.2H110.362ZM121.732 13.2L122.201 14.0833L121.732 12.2V13.2ZM120.262 13.98L119.262 13.9583L119.225 15.6622L120.731 14.8633L120.262 13.98ZM119.692 11.55L118.824 12.0461L118.824 12.0461L119.692 11.55ZM118.042 9.9L117.535 10.762L117.546 10.7682L118.042 9.9ZM113.242 9.9L112.746 9.03169L112.735 9.03807L113.242 9.9ZM111.622 11.58L110.748 11.0943L110.743 11.1029L111.622 11.58ZM113.572 18.93L113.125 19.8244L113.125 19.8244L113.572 18.93ZM118.762 19.11L119.124 20.042L119.124 20.042L118.762 19.11ZM120.682 17.79L121.436 17.1336L120.708 16.2965L119.951 17.1077L120.682 17.79ZM122.692 20.1L123.451 20.7508L124.013 20.0951L123.446 19.4436L122.692 20.1ZM119.962 22.05L120.339 22.9761L120.348 22.9726L119.962 22.05ZM116.242 21.71C114.595 21.71 113.199 21.3868 112.025 20.7737L111.099 22.5463C112.605 23.3332 114.329 23.71 116.242 23.71V21.71ZM112.041 20.7821C110.871 20.1441 109.975 19.2875 109.331 18.2075L107.613 19.2325C108.449 20.6325 109.613 21.7359 111.083 22.5379L112.041 20.7821ZM109.337 18.2179C108.714 17.1456 108.392 15.9121 108.392 14.49H106.392C106.392 16.2279 106.79 17.8144 107.607 19.2221L109.337 18.2179ZM108.392 14.49C108.392 13.0402 108.708 11.8063 109.309 10.7577L107.575 9.76233C106.776 11.1537 106.392 12.7398 106.392 14.49H108.392ZM109.307 10.7621C109.938 9.67492 110.79 8.83269 111.874 8.22082L110.89 6.47918C109.494 7.26731 108.386 8.36508 107.577 9.75786L109.307 10.7621ZM111.868 8.22416C112.963 7.61549 114.223 7.3 115.672 7.3V5.3C113.921 5.3 112.321 5.68451 110.896 6.47584L111.868 8.22416ZM115.672 7.3C117.082 7.3 118.301 7.60581 119.355 8.19348L120.329 6.44652C118.943 5.67419 117.382 5.3 115.672 5.3V7.3ZM119.355 8.19348C120.411 8.7821 121.24 9.60849 121.851 10.6916L123.593 9.7084C122.804 8.31151 121.713 7.2179 120.329 6.44652L119.355 8.19348ZM121.851 10.6916C122.452 11.7566 122.772 13.0411 122.772 14.58H124.772C124.772 12.7589 124.392 11.1234 123.593 9.7084L121.851 10.6916ZM122.772 14.58C122.772 14.6996 122.764 14.8456 122.747 15.0205L124.737 15.2195C124.76 14.9944 124.772 14.7804 124.772 14.58H122.772ZM122.742 15.12C122.742 15.2869 122.734 15.4398 122.718 15.5796L124.706 15.8004C124.73 15.5802 124.742 15.3531 124.742 15.12H122.742ZM123.712 14.69H110.362V16.69H123.712V14.69ZM111.362 15.69V13.2H109.362V15.69H111.362ZM110.362 14.2H121.732V12.2H110.362V14.2ZM121.263 12.3167L119.793 13.0967L120.731 14.8633L122.201 14.0833L121.263 12.3167ZM121.262 14.0017C121.285 12.9265 121.062 11.9326 120.56 11.0539L118.824 12.0461C119.122 12.5674 119.279 13.1935 119.262 13.9583L121.262 14.0017ZM120.56 11.0539C120.072 10.1988 119.393 9.52035 118.538 9.03176L117.546 10.7682C118.091 11.0797 118.512 11.5012 118.824 12.0461L120.56 11.0539ZM118.549 9.03807C117.695 8.53553 116.725 8.3 115.672 8.3V10.3C116.419 10.3 117.029 10.4645 117.535 10.7619L118.549 9.03807ZM115.672 8.3C114.603 8.3 113.617 8.53383 112.746 9.03176L113.738 10.7682C114.267 10.4662 114.901 10.3 115.672 10.3V8.3ZM112.735 9.03807C111.894 9.53257 111.23 10.2256 110.748 11.0944L112.496 12.0656C112.813 11.4944 113.23 11.0674 113.749 10.7619L112.735 9.03807ZM110.743 11.1029C110.269 11.9766 110.052 12.9774 110.052 14.07H112.052C112.052 13.2426 112.215 12.5834 112.501 12.0571L110.743 11.1029ZM110.052 14.07V14.67H112.052V14.07H110.052ZM110.052 14.67C110.052 15.7887 110.31 16.8192 110.852 17.7311L112.571 16.7089C112.234 16.1408 112.052 15.4713 112.052 14.67H110.052ZM110.852 17.7311C111.394 18.6423 112.16 19.3423 113.125 19.8244L114.019 18.0356C113.383 17.7177 112.91 17.2777 112.571 16.7089L110.852 17.7311ZM113.125 19.8244C114.085 20.3043 115.162 20.53 116.332 20.53V18.53C115.422 18.53 114.659 18.3557 114.019 18.0356L113.125 19.8244ZM116.332 20.53C117.336 20.53 118.271 20.3737 119.124 20.042L118.4 18.178C117.812 18.4063 117.128 18.53 116.332 18.53V20.53ZM119.124 20.042C119.993 19.7042 120.757 19.1752 121.413 18.4723L119.951 17.1077C119.487 17.6048 118.971 17.9558 118.4 18.178L119.124 20.042ZM119.928 18.4464L121.938 20.7564L123.446 19.4436L121.436 17.1336L119.928 18.4464ZM121.933 19.4492C121.322 20.1616 120.544 20.7229 119.576 21.1274L120.348 22.9726C121.58 22.4571 122.622 21.7184 123.451 20.7508L121.933 19.4492ZM119.585 21.1239C118.646 21.5064 117.538 21.71 116.242 21.71V23.71C117.746 23.71 119.118 23.4736 120.339 22.9761L119.585 21.1239ZM129.324 21.36L128.632 22.082L128.64 22.0895L129.324 21.36ZM127.884 2.94V1.94H126.884V2.94H127.884ZM131.634 2.94H132.634V1.94H131.634V2.94ZM132.204 18.99L131.463 19.6609L131.471 19.6704L131.48 19.6797L132.204 18.99ZM135.954 18.96L136.885 18.594L136.393 17.3435L135.336 18.1737L135.954 18.96ZM137.004 21.63L137.637 22.404L138.201 21.9424L137.935 21.264L137.004 21.63ZM135.384 22.44L135.655 23.4027L135.384 22.44ZM125.244 9.6H124.244V10.6H125.244V9.6ZM125.244 6.6V5.6H124.244V6.6H125.244ZM135.924 6.6H136.924V5.6H135.924V6.6ZM135.924 9.6V10.6H136.924V9.6H135.924ZM133.404 21.71C131.81 21.71 130.727 21.3048 130.008 20.6305L128.64 22.0895C129.841 23.2152 131.478 23.71 133.404 23.71V21.71ZM130.016 20.638C129.313 19.964 128.884 18.9133 128.884 17.31H126.884C126.884 19.2667 127.415 20.916 128.632 22.082L130.016 20.638ZM128.884 17.31V2.94H126.884V17.31H128.884ZM127.884 3.94H131.634V1.94H127.884V3.94ZM130.634 2.94V17.22H132.634V2.94H130.634ZM130.634 17.22C130.634 18.1419 130.866 19.0019 131.463 19.6609L132.946 18.3191C132.782 18.1381 132.634 17.8181 132.634 17.22H130.634ZM131.48 19.6797C132.107 20.338 132.941 20.62 133.854 20.62V18.62C133.367 18.62 133.101 18.482 132.928 18.3003L131.48 19.6797ZM133.854 20.62C134.876 20.62 135.805 20.3485 136.572 19.7463L135.336 18.1737C134.983 18.4515 134.512 18.62 133.854 18.62V20.62ZM135.023 19.326L136.073 21.996L137.935 21.264L136.885 18.594L135.023 19.326ZM136.371 20.856C136.054 21.1154 135.643 21.3284 135.113 21.4773L135.655 23.4027C136.405 23.1916 137.074 22.8646 137.637 22.404L136.371 20.856ZM135.113 21.4773C134.563 21.632 133.995 21.71 133.404 21.71V23.71C134.173 23.71 134.925 23.608 135.655 23.4027L135.113 21.4773ZM126.244 9.6V6.6H124.244V9.6H126.244ZM125.244 7.6H135.924V5.6H125.244V7.6ZM134.924 6.6V9.6H136.924V6.6H134.924ZM135.924 8.6H125.244V10.6H135.924V8.6Z" fill="black"/>
</svg>
