<svg width="170" height="40" viewBox="0 0 170 40" fill="none" xmlns="http://www.w3.org/2000/svg">
<path d="M20.0209 1C14.8387 1 10.6448 5.19389 10.6448 10.3761V13.8902C8.82502 14.2196 7 14.6589 7 15.2289V33.568C7 33.568 7 34.0752 7.56999 34.3158C9.63556 35.1525 17.7619 38.0286 19.6287 38.6875C19.8693 38.7763 19.9372 38.7763 20 38.7763C20.0889 38.7763 20.1307 38.7763 20.3713 38.6875C22.2381 38.0286 30.3854 35.1525 32.4509 34.3158C32.9791 34.0961 33 33.5889 33 33.5889V15.2289C33 14.6589 31.2011 14.1987 29.3761 13.8902V10.3761C29.4023 5.19389 25.1822 1 20.0209 1ZM20.0209 5.4815C23.0748 5.4815 24.9208 7.32743 24.9208 10.3813V13.4352C21.4956 13.1947 18.5724 13.1947 15.1263 13.4352V10.3813C15.1263 7.3222 16.9722 5.4815 20.0209 5.4815ZM20 17.9324C24.2619 17.9324 27.8387 18.2619 27.8387 18.8528V30.2944C27.8387 30.4722 27.8178 30.4932 27.6609 30.5559C27.5093 30.6239 20.3922 33.1915 20.3922 33.1915C20.3922 33.1915 20.1046 33.2804 20.0209 33.2804C19.932 33.2804 19.6496 33.1706 19.6496 33.1706C19.6496 33.1706 12.5326 30.603 12.3809 30.535C12.2293 30.467 12.2031 30.4461 12.2031 30.2735V18.8319C12.1613 18.2409 15.7381 17.9324 20 17.9324Z" fill="#98A2B3"/>
<path d="M51.84 26V16.368H48.4V14.8H57.008V16.368H53.568V26H51.84ZM57.466 26V18.112H59.082V19.04H59.338C59.466 18.7093 59.6687 18.4693 59.946 18.32C60.234 18.16 60.586 18.08 61.002 18.08H61.946V19.568H60.938C60.4047 19.568 59.9673 19.7173 59.626 20.016C59.2847 20.304 59.114 20.752 59.114 21.36V26H57.466ZM66.9883 26.224C66.1883 26.224 65.4896 26.0587 64.8923 25.728C64.2949 25.3867 63.8256 24.912 63.4843 24.304C63.1536 23.6853 62.9883 22.9707 62.9883 22.16V21.968C62.9883 21.1467 63.1536 20.432 63.4843 19.824C63.8149 19.2053 64.2736 18.7307 64.8603 18.4C65.4576 18.0587 66.1456 17.888 66.9243 17.888C67.6816 17.888 68.3429 18.0587 68.9083 18.4C69.4843 18.7307 69.9323 19.1947 70.2523 19.792C70.5723 20.3893 70.7323 21.088 70.7323 21.888V22.512H64.6683C64.6896 23.2053 64.9189 23.76 65.3563 24.176C65.8043 24.5813 66.3589 24.784 67.0203 24.784C67.6389 24.784 68.1029 24.6453 68.4123 24.368C68.7323 24.0907 68.9776 23.7707 69.1483 23.408L70.5083 24.112C70.3589 24.4107 70.1403 24.7253 69.8523 25.056C69.5749 25.3867 69.2069 25.664 68.7483 25.888C68.2896 26.112 67.7029 26.224 66.9883 26.224ZM64.6843 21.248H69.0523C69.0096 20.6507 68.7963 20.1867 68.4123 19.856C68.0283 19.5147 67.5269 19.344 66.9083 19.344C66.2896 19.344 65.7829 19.5147 65.3883 19.856C65.0043 20.1867 64.7696 20.6507 64.6843 21.248ZM72.1773 26V23.984L76.8333 19.728V19.504H72.3372V18.112H78.6253V20.144L73.9533 24.4V24.608H78.7533V26H72.1773ZM84.2714 26.224C83.482 26.224 82.778 26.064 82.1594 25.744C81.5514 25.4133 81.0714 24.944 80.7194 24.336C80.3674 23.728 80.1914 23.008 80.1914 22.176V21.936C80.1914 21.104 80.3674 20.3893 80.7194 19.792C81.0714 19.184 81.5514 18.7147 82.1594 18.384C82.778 18.0533 83.482 17.888 84.2714 17.888C85.0607 17.888 85.7647 18.0533 86.3834 18.384C87.002 18.7147 87.4874 19.184 87.8394 19.792C88.1914 20.3893 88.3674 21.104 88.3674 21.936V22.176C88.3674 23.008 88.1914 23.728 87.8394 24.336C87.4874 24.944 87.002 25.4133 86.3834 25.744C85.7647 26.064 85.0607 26.224 84.2714 26.224ZM84.2714 24.752C84.9967 24.752 85.5834 24.5227 86.0314 24.064C86.49 23.5947 86.7194 22.9493 86.7194 22.128V21.984C86.7194 21.1627 86.4954 20.5227 86.0474 20.064C85.5994 19.5947 85.0074 19.36 84.2714 19.36C83.5567 19.36 82.97 19.5947 82.5114 20.064C82.0634 20.5227 81.8394 21.1627 81.8394 21.984V22.128C81.8394 22.9493 82.0634 23.5947 82.5114 24.064C82.97 24.5227 83.5567 24.752 84.2714 24.752ZM90.4191 26V18.112H92.0351V19.04H92.2911C92.4191 18.7093 92.6218 18.4693 92.8991 18.32C93.1871 18.16 93.5391 18.08 93.9551 18.08H94.8991V19.568H93.8911C93.3578 19.568 92.9205 19.7173 92.5791 20.016C92.2378 20.304 92.0671 20.752 92.0671 21.36V26H90.4191ZM101.535 26L99.8874 14.8H101.615L102.959 24.832H103.215L104.943 14.8H107.967L109.695 24.832H109.951L111.279 14.8H113.007L111.359 26H108.335L106.575 15.824H106.319L104.575 26H101.535ZM117.086 26.224C116.521 26.224 116.014 26.128 115.566 25.936C115.129 25.744 114.777 25.4613 114.51 25.088C114.254 24.7147 114.126 24.2613 114.126 23.728C114.126 23.184 114.254 22.736 114.51 22.384C114.777 22.0213 115.134 21.7493 115.582 21.568C116.041 21.3867 116.558 21.296 117.134 21.296H119.534V20.784C119.534 20.3253 119.395 19.9573 119.118 19.68C118.841 19.4027 118.414 19.264 117.838 19.264C117.273 19.264 116.841 19.3973 116.542 19.664C116.243 19.9307 116.046 20.2773 115.95 20.704L114.414 20.208C114.542 19.7813 114.745 19.3973 115.022 19.056C115.31 18.704 115.689 18.4213 116.158 18.208C116.627 17.9947 117.193 17.888 117.854 17.888C118.878 17.888 119.683 18.1493 120.27 18.672C120.857 19.1947 121.15 19.936 121.15 20.896V24.144C121.15 24.464 121.299 24.624 121.598 24.624H122.27V26H121.038C120.665 26 120.361 25.904 120.126 25.712C119.891 25.52 119.774 25.2587 119.774 24.928V24.88H119.534C119.449 25.04 119.321 25.2267 119.15 25.44C118.979 25.6533 118.729 25.84 118.398 26C118.067 26.1493 117.63 26.224 117.086 26.224ZM117.326 24.864C117.987 24.864 118.521 24.6773 118.926 24.304C119.331 23.92 119.534 23.3973 119.534 22.736V22.576H117.23C116.793 22.576 116.441 22.672 116.174 22.864C115.907 23.0453 115.774 23.3173 115.774 23.68C115.774 24.0427 115.913 24.3307 116.19 24.544C116.467 24.7573 116.846 24.864 117.326 24.864ZM123.872 26V14.8H125.52V26H123.872ZM127.966 26V14.8H129.614V26H127.966ZM135.676 26.224C134.876 26.224 134.177 26.0587 133.58 25.728C132.982 25.3867 132.513 24.912 132.172 24.304C131.841 23.6853 131.676 22.9707 131.676 22.16V21.968C131.676 21.1467 131.841 20.432 132.172 19.824C132.502 19.2053 132.961 18.7307 133.548 18.4C134.145 18.0587 134.833 17.888 135.612 17.888C136.369 17.888 137.03 18.0587 137.596 18.4C138.172 18.7307 138.62 19.1947 138.94 19.792C139.26 20.3893 139.42 21.088 139.42 21.888V22.512H133.356C133.377 23.2053 133.606 23.76 134.044 24.176C134.492 24.5813 135.046 24.784 135.708 24.784C136.326 24.784 136.79 24.6453 137.1 24.368C137.42 24.0907 137.665 23.7707 137.836 23.408L139.196 24.112C139.046 24.4107 138.828 24.7253 138.54 25.056C138.262 25.3867 137.894 25.664 137.436 25.888C136.977 26.112 136.39 26.224 135.676 26.224ZM133.372 21.248H137.74C137.697 20.6507 137.484 20.1867 137.1 19.856C136.716 19.5147 136.214 19.344 135.596 19.344C134.977 19.344 134.47 19.5147 134.076 19.856C133.692 20.1867 133.457 20.6507 133.372 21.248ZM144.067 26C143.587 26 143.203 25.856 142.915 25.568C142.637 25.28 142.499 24.896 142.499 24.416V19.504H140.323V18.112H142.499V15.504H144.147V18.112H146.499V19.504H144.147V24.128C144.147 24.448 144.296 24.608 144.595 24.608H146.243V26H144.067Z" fill="#98A2B3"/>
</svg>
