<svg width="55" height="50" viewBox="0 0 55 50" fill="none" xmlns="http://www.w3.org/2000/svg">
<path d="M47.3989 34.2591C44.6494 34.2591 42.1173 32.7688 40.797 30.3575L36.7817 23.0287L33.4058 29.2467C31.7178 32.5521 26.9806 32.9856 25.2655 29.6938L21.7263 22.9068L16.3903 32.7418L9.99254 32.7824L17.6425 18.3415C19.2625 15.28 23.632 15.2257 25.3472 18.2332L29.1587 24.9523L32.8614 18.2467C34.5218 15.2393 38.8778 15.2257 40.5383 18.2331L45.7249 27.5533C46.6642 29.2467 49.2368 28.583 49.2368 26.6592L49.2503 14.264C49.2503 9.65806 45.4797 5.90563 40.8514 5.90563H15.0017C10.3736 5.90563 6.60306 9.65806 6.60306 14.264V35.7489C6.60306 40.3552 10.3736 44.1077 15.0019 44.1077H49.6859V49.7701H15.0019C7.22926 49.7701 0.913086 43.4844 0.913086 35.7489V14.291C0.913086 6.54224 7.21562 0.270081 15.0019 0.270081H40.8244C48.6104 0.270081 54.9131 6.54224 54.9131 14.291V26.7813C54.9131 30.9128 51.5507 34.259 47.3989 34.259V34.2591Z" fill="#7B1BF8"/>
</svg>
